G04 (created by PCBNEW (2013-07-07 BZR 4022)-stable) date 1/21/2014 13:57:26*
%MOIN*%
G04 Gerber Fmt 3.4, Leading zero omitted, Abs format*
%FSLAX34Y34*%
G01*
G70*
G90*
G04 APERTURE LIST*
%ADD10C,0.00590551*%
%ADD11C,0.0984252*%
%ADD12C,0.0688976*%
%ADD13R,0.025X0.045*%
%ADD14O,0.0688976X0.0299213*%
%ADD15R,0.0688976X0.0299213*%
%ADD16R,0.0748031X0.0748031*%
%ADD17R,0.0748031X0.0708661*%
%ADD18R,0.0629921X0.0826772*%
%ADD19R,0.0787402X0.015748*%
%ADD20C,0.027*%
%ADD21C,0.01*%
%ADD22C,0.005*%
G04 APERTURE END LIST*
G54D10*
G54D11*
X47600Y-28000D03*
G54D12*
X52000Y-26500D03*
X46000Y-31500D03*
X47000Y-31500D03*
X48000Y-31500D03*
X49000Y-31500D03*
X50000Y-31500D03*
X51000Y-31500D03*
X52000Y-31500D03*
X52000Y-30500D03*
X52000Y-29500D03*
X52000Y-28500D03*
X52000Y-27500D03*
X52000Y-25500D03*
X52000Y-24500D03*
X51000Y-24500D03*
X50000Y-24500D03*
X49000Y-24500D03*
X48000Y-24500D03*
X47000Y-24500D03*
X46000Y-24500D03*
X45000Y-24500D03*
X44000Y-31500D03*
X44000Y-24500D03*
G54D10*
G36*
X50096Y-25997D02*
X49703Y-26096D01*
X49703Y-25603D01*
X50096Y-25702D01*
X50096Y-25997D01*
X50096Y-25997D01*
G37*
G36*
X49596Y-26096D02*
X49203Y-25997D01*
X49203Y-25702D01*
X49596Y-25603D01*
X49596Y-26096D01*
X49596Y-26096D01*
G37*
G54D12*
X45000Y-31500D03*
G54D13*
X46025Y-26650D03*
X46625Y-26650D03*
X45625Y-29600D03*
X46225Y-29600D03*
X45300Y-25750D03*
X45900Y-25750D03*
X47250Y-25850D03*
X46650Y-25850D03*
X48600Y-25850D03*
X48000Y-25850D03*
G54D14*
X49143Y-28984D03*
G54D15*
X50856Y-28984D03*
X49143Y-28484D03*
X50856Y-28484D03*
X49143Y-27984D03*
X50856Y-27984D03*
X49143Y-27484D03*
X50856Y-27484D03*
X49143Y-26984D03*
X50856Y-26984D03*
G54D16*
X43975Y-27527D03*
X43975Y-28472D03*
G54D17*
X43975Y-26503D03*
X43975Y-29496D03*
G54D18*
X44978Y-29220D03*
X44978Y-26779D03*
G54D19*
X45156Y-28255D03*
X45156Y-28000D03*
X45156Y-27744D03*
X45156Y-27488D03*
X45156Y-28511D03*
G54D13*
X45775Y-30575D03*
X46375Y-30575D03*
X48250Y-30075D03*
X47650Y-30075D03*
G54D20*
X50000Y-27125D03*
X49375Y-29350D03*
X46925Y-29600D03*
X46575Y-29250D03*
X46200Y-28800D03*
X46075Y-29125D03*
X45425Y-30100D03*
X45525Y-28850D03*
X49800Y-27675D03*
G54D21*
X50856Y-28484D02*
X50190Y-28484D01*
X47925Y-30575D02*
X47000Y-31500D01*
X48775Y-30575D02*
X47925Y-30575D01*
X49925Y-29425D02*
X48775Y-30575D01*
X49925Y-28750D02*
X49925Y-29425D01*
X50190Y-28484D02*
X49925Y-28750D01*
X50856Y-28984D02*
X50856Y-30643D01*
X50856Y-30643D02*
X50000Y-31500D01*
X49900Y-27025D02*
X49900Y-25850D01*
X50000Y-27125D02*
X49900Y-27025D01*
X48250Y-30075D02*
X48275Y-30050D01*
X48275Y-30050D02*
X48275Y-29600D01*
X49375Y-29350D02*
X49143Y-29118D01*
X49143Y-29118D02*
X49143Y-28984D01*
X49125Y-29600D02*
X49375Y-29350D01*
X49125Y-29600D02*
X48275Y-29600D01*
X48275Y-29600D02*
X46925Y-29600D01*
X49143Y-28984D02*
X49143Y-29118D01*
X46575Y-29250D02*
X46925Y-29600D01*
X45000Y-24500D02*
X45900Y-25400D01*
X45900Y-25400D02*
X45900Y-25750D01*
X49400Y-25850D02*
X48600Y-25850D01*
X48000Y-25850D02*
X47250Y-25850D01*
X46200Y-27000D02*
X46200Y-28800D01*
X46550Y-26650D02*
X46200Y-27000D01*
X46225Y-29600D02*
X46225Y-29275D01*
X46225Y-29275D02*
X46075Y-29125D01*
X46225Y-29525D02*
X46150Y-29600D01*
X45625Y-27725D02*
X45750Y-27600D01*
X45750Y-27600D02*
X45750Y-27475D01*
X45625Y-27725D02*
X45700Y-27650D01*
X45300Y-25750D02*
X45650Y-26100D01*
X45750Y-27275D02*
X45750Y-27475D01*
X45650Y-27175D02*
X45750Y-27275D01*
X45650Y-26100D02*
X45650Y-27175D01*
X45175Y-27725D02*
X45156Y-27744D01*
X45625Y-27725D02*
X45175Y-27725D01*
X45800Y-28400D02*
X45655Y-28255D01*
X45625Y-29600D02*
X45800Y-29425D01*
X45800Y-28400D02*
X45800Y-29425D01*
X45655Y-28255D02*
X45156Y-28255D01*
X45327Y-28250D02*
X45322Y-28255D01*
X45950Y-26650D02*
X45950Y-27750D01*
X45700Y-28000D02*
X45322Y-28000D01*
X45950Y-27750D02*
X45700Y-28000D01*
X45150Y-30375D02*
X45575Y-30375D01*
X45575Y-30375D02*
X45775Y-30575D01*
X45150Y-30375D02*
X45125Y-30375D01*
X45425Y-30100D02*
X45150Y-30375D01*
X44675Y-30375D02*
X44675Y-30825D01*
X44675Y-30825D02*
X44000Y-31500D01*
X45125Y-30375D02*
X44675Y-30375D01*
X45525Y-28850D02*
X45525Y-28625D01*
X45411Y-28511D02*
X45156Y-28511D01*
X45525Y-28625D02*
X45411Y-28511D01*
X50540Y-26984D02*
X50856Y-26984D01*
X49850Y-27675D02*
X50540Y-26984D01*
X49800Y-27675D02*
X49850Y-27675D01*
X50856Y-27015D02*
X50534Y-27015D01*
G54D10*
G36*
X52466Y-31487D02*
X52448Y-31580D01*
X52448Y-31411D01*
X52448Y-30411D01*
X52448Y-29411D01*
X52448Y-28411D01*
X52448Y-27411D01*
X52448Y-26411D01*
X52448Y-25411D01*
X52380Y-25246D01*
X52254Y-25120D01*
X52089Y-25051D01*
X51911Y-25051D01*
X51746Y-25119D01*
X51620Y-25245D01*
X51551Y-25410D01*
X51551Y-25588D01*
X51619Y-25753D01*
X51745Y-25879D01*
X51910Y-25948D01*
X52088Y-25948D01*
X52253Y-25880D01*
X52379Y-25754D01*
X52448Y-25589D01*
X52448Y-25411D01*
X52448Y-26411D01*
X52380Y-26246D01*
X52254Y-26120D01*
X52089Y-26051D01*
X51911Y-26051D01*
X51746Y-26119D01*
X51620Y-26245D01*
X51551Y-26410D01*
X51551Y-26588D01*
X51619Y-26753D01*
X51745Y-26879D01*
X51910Y-26948D01*
X52088Y-26948D01*
X52253Y-26880D01*
X52379Y-26754D01*
X52448Y-26589D01*
X52448Y-26411D01*
X52448Y-27411D01*
X52380Y-27246D01*
X52254Y-27120D01*
X52089Y-27051D01*
X51911Y-27051D01*
X51746Y-27119D01*
X51620Y-27245D01*
X51551Y-27410D01*
X51551Y-27588D01*
X51619Y-27753D01*
X51745Y-27879D01*
X51910Y-27948D01*
X52088Y-27948D01*
X52253Y-27880D01*
X52379Y-27754D01*
X52448Y-27589D01*
X52448Y-27411D01*
X52448Y-28411D01*
X52380Y-28246D01*
X52254Y-28120D01*
X52089Y-28051D01*
X51911Y-28051D01*
X51746Y-28119D01*
X51620Y-28245D01*
X51551Y-28410D01*
X51551Y-28588D01*
X51619Y-28753D01*
X51745Y-28879D01*
X51910Y-28948D01*
X52088Y-28948D01*
X52253Y-28880D01*
X52379Y-28754D01*
X52448Y-28589D01*
X52448Y-28411D01*
X52448Y-29411D01*
X52380Y-29246D01*
X52254Y-29120D01*
X52089Y-29051D01*
X51911Y-29051D01*
X51746Y-29119D01*
X51620Y-29245D01*
X51551Y-29410D01*
X51551Y-29588D01*
X51619Y-29753D01*
X51745Y-29879D01*
X51910Y-29948D01*
X52088Y-29948D01*
X52253Y-29880D01*
X52379Y-29754D01*
X52448Y-29589D01*
X52448Y-29411D01*
X52448Y-30411D01*
X52380Y-30246D01*
X52254Y-30120D01*
X52089Y-30051D01*
X51911Y-30051D01*
X51746Y-30119D01*
X51620Y-30245D01*
X51551Y-30410D01*
X51551Y-30588D01*
X51619Y-30753D01*
X51745Y-30879D01*
X51910Y-30948D01*
X52088Y-30948D01*
X52253Y-30880D01*
X52379Y-30754D01*
X52448Y-30589D01*
X52448Y-30411D01*
X52448Y-31411D01*
X52380Y-31246D01*
X52254Y-31120D01*
X52089Y-31051D01*
X51911Y-31051D01*
X51746Y-31119D01*
X51620Y-31245D01*
X51551Y-31410D01*
X51551Y-31588D01*
X51619Y-31753D01*
X51745Y-31879D01*
X51910Y-31948D01*
X52079Y-31948D01*
X51986Y-31966D01*
X51448Y-31966D01*
X51448Y-31411D01*
X51448Y-24411D01*
X51380Y-24246D01*
X51254Y-24120D01*
X51089Y-24051D01*
X50911Y-24051D01*
X50746Y-24119D01*
X50620Y-24245D01*
X50551Y-24410D01*
X50551Y-24588D01*
X50619Y-24753D01*
X50745Y-24879D01*
X50910Y-24948D01*
X51088Y-24948D01*
X51253Y-24880D01*
X51379Y-24754D01*
X51448Y-24589D01*
X51448Y-24411D01*
X51448Y-31411D01*
X51380Y-31246D01*
X51304Y-31170D01*
X51304Y-29113D01*
X51304Y-28814D01*
X51288Y-28775D01*
X51259Y-28746D01*
X51229Y-28734D01*
X51259Y-28721D01*
X51288Y-28692D01*
X51304Y-28654D01*
X51304Y-28613D01*
X51304Y-28314D01*
X51288Y-28275D01*
X51259Y-28246D01*
X51229Y-28234D01*
X51259Y-28221D01*
X51288Y-28192D01*
X51304Y-28154D01*
X51304Y-28113D01*
X51304Y-27814D01*
X51288Y-27775D01*
X51259Y-27746D01*
X51229Y-27734D01*
X51259Y-27721D01*
X51288Y-27692D01*
X51304Y-27654D01*
X51304Y-27613D01*
X51304Y-27314D01*
X51288Y-27275D01*
X51259Y-27246D01*
X51229Y-27234D01*
X51259Y-27221D01*
X51288Y-27192D01*
X51304Y-27154D01*
X51304Y-27113D01*
X51304Y-26814D01*
X51288Y-26775D01*
X51259Y-26746D01*
X51221Y-26730D01*
X51180Y-26730D01*
X50491Y-26730D01*
X50453Y-26746D01*
X50448Y-26751D01*
X50448Y-24411D01*
X50380Y-24246D01*
X50254Y-24120D01*
X50089Y-24051D01*
X49911Y-24051D01*
X49746Y-24119D01*
X49620Y-24245D01*
X49551Y-24410D01*
X49551Y-24588D01*
X49619Y-24753D01*
X49745Y-24879D01*
X49910Y-24948D01*
X50088Y-24948D01*
X50253Y-24880D01*
X50379Y-24754D01*
X50448Y-24589D01*
X50448Y-24411D01*
X50448Y-26751D01*
X50423Y-26775D01*
X50408Y-26813D01*
X50408Y-26855D01*
X50408Y-26899D01*
X50236Y-27071D01*
X50202Y-26989D01*
X50135Y-26922D01*
X50053Y-26888D01*
X50053Y-26199D01*
X50117Y-26199D01*
X50155Y-26184D01*
X50184Y-26154D01*
X50200Y-26116D01*
X50200Y-26075D01*
X50200Y-25583D01*
X50184Y-25545D01*
X50155Y-25516D01*
X50117Y-25500D01*
X50076Y-25500D01*
X49682Y-25500D01*
X49649Y-25513D01*
X49617Y-25500D01*
X49576Y-25500D01*
X49448Y-25500D01*
X49448Y-24411D01*
X49380Y-24246D01*
X49254Y-24120D01*
X49089Y-24051D01*
X48911Y-24051D01*
X48746Y-24119D01*
X48620Y-24245D01*
X48551Y-24410D01*
X48551Y-24588D01*
X48619Y-24753D01*
X48745Y-24879D01*
X48910Y-24948D01*
X49088Y-24948D01*
X49253Y-24880D01*
X49379Y-24754D01*
X49448Y-24589D01*
X49448Y-24411D01*
X49448Y-25500D01*
X49182Y-25500D01*
X49144Y-25515D01*
X49115Y-25545D01*
X49099Y-25583D01*
X49099Y-25624D01*
X49099Y-25696D01*
X48828Y-25696D01*
X48828Y-25604D01*
X48812Y-25566D01*
X48783Y-25537D01*
X48745Y-25521D01*
X48704Y-25521D01*
X48454Y-25521D01*
X48448Y-25523D01*
X48448Y-24411D01*
X48380Y-24246D01*
X48254Y-24120D01*
X48089Y-24051D01*
X47911Y-24051D01*
X47746Y-24119D01*
X47620Y-24245D01*
X47551Y-24410D01*
X47551Y-24588D01*
X47619Y-24753D01*
X47745Y-24879D01*
X47910Y-24948D01*
X48088Y-24948D01*
X48253Y-24880D01*
X48379Y-24754D01*
X48448Y-24589D01*
X48448Y-24411D01*
X48448Y-25523D01*
X48416Y-25537D01*
X48387Y-25566D01*
X48371Y-25604D01*
X48371Y-25645D01*
X48371Y-26095D01*
X48387Y-26133D01*
X48416Y-26162D01*
X48454Y-26178D01*
X48495Y-26178D01*
X48745Y-26178D01*
X48783Y-26162D01*
X48812Y-26133D01*
X48828Y-26095D01*
X48828Y-26054D01*
X48828Y-26003D01*
X49099Y-26003D01*
X49099Y-26116D01*
X49115Y-26154D01*
X49144Y-26183D01*
X49182Y-26199D01*
X49223Y-26199D01*
X49617Y-26199D01*
X49650Y-26186D01*
X49682Y-26199D01*
X49723Y-26199D01*
X49746Y-26199D01*
X49746Y-27025D01*
X49757Y-27083D01*
X49761Y-27088D01*
X49761Y-27172D01*
X49797Y-27260D01*
X49864Y-27327D01*
X49946Y-27361D01*
X49864Y-27443D01*
X49847Y-27436D01*
X49752Y-27436D01*
X49664Y-27472D01*
X49597Y-27539D01*
X49591Y-27553D01*
X49591Y-27314D01*
X49576Y-27275D01*
X49547Y-27246D01*
X49516Y-27234D01*
X49547Y-27221D01*
X49576Y-27192D01*
X49591Y-27154D01*
X49591Y-26814D01*
X49576Y-26775D01*
X49547Y-26746D01*
X49508Y-26730D01*
X49467Y-26730D01*
X49184Y-26730D01*
X49158Y-26756D01*
X49158Y-26969D01*
X49565Y-26969D01*
X49591Y-26943D01*
X49591Y-26814D01*
X49591Y-27154D01*
X49591Y-27024D01*
X49565Y-26998D01*
X49158Y-26998D01*
X49158Y-27211D01*
X49180Y-27234D01*
X49158Y-27256D01*
X49158Y-27469D01*
X49565Y-27469D01*
X49591Y-27443D01*
X49591Y-27314D01*
X49591Y-27553D01*
X49591Y-27553D01*
X49591Y-27524D01*
X49565Y-27498D01*
X49158Y-27498D01*
X49158Y-27711D01*
X49180Y-27734D01*
X49158Y-27756D01*
X49158Y-27969D01*
X49565Y-27969D01*
X49591Y-27943D01*
X49591Y-27814D01*
X49576Y-27775D01*
X49547Y-27746D01*
X49516Y-27734D01*
X49547Y-27721D01*
X49561Y-27707D01*
X49561Y-27722D01*
X49597Y-27810D01*
X49664Y-27877D01*
X49752Y-27913D01*
X49847Y-27913D01*
X49935Y-27877D01*
X50002Y-27810D01*
X50038Y-27722D01*
X50038Y-27703D01*
X50408Y-27334D01*
X50408Y-27355D01*
X50408Y-27654D01*
X50423Y-27692D01*
X50452Y-27721D01*
X50483Y-27734D01*
X50453Y-27746D01*
X50423Y-27775D01*
X50408Y-27813D01*
X50408Y-27855D01*
X50408Y-28154D01*
X50423Y-28192D01*
X50452Y-28221D01*
X50483Y-28234D01*
X50453Y-28246D01*
X50423Y-28275D01*
X50408Y-28313D01*
X50408Y-28330D01*
X50190Y-28330D01*
X50131Y-28342D01*
X50082Y-28375D01*
X49816Y-28641D01*
X49782Y-28691D01*
X49771Y-28750D01*
X49771Y-29361D01*
X48711Y-30421D01*
X47925Y-30421D01*
X47878Y-30430D01*
X47878Y-30279D01*
X47878Y-30115D01*
X47852Y-30089D01*
X47664Y-30089D01*
X47664Y-30377D01*
X47690Y-30403D01*
X47795Y-30403D01*
X47833Y-30387D01*
X47862Y-30358D01*
X47878Y-30320D01*
X47878Y-30279D01*
X47878Y-30430D01*
X47866Y-30432D01*
X47816Y-30466D01*
X47635Y-30646D01*
X47635Y-30377D01*
X47635Y-30089D01*
X47447Y-30089D01*
X47421Y-30115D01*
X47421Y-30279D01*
X47421Y-30320D01*
X47437Y-30358D01*
X47466Y-30387D01*
X47504Y-30403D01*
X47609Y-30403D01*
X47635Y-30377D01*
X47635Y-30646D01*
X47189Y-31093D01*
X47089Y-31051D01*
X46911Y-31051D01*
X46746Y-31119D01*
X46620Y-31245D01*
X46603Y-31285D01*
X46603Y-30779D01*
X46603Y-30370D01*
X46603Y-30329D01*
X46587Y-30291D01*
X46558Y-30262D01*
X46520Y-30246D01*
X46415Y-30246D01*
X46389Y-30272D01*
X46389Y-30560D01*
X46577Y-30560D01*
X46603Y-30534D01*
X46603Y-30370D01*
X46603Y-30779D01*
X46603Y-30615D01*
X46577Y-30589D01*
X46389Y-30589D01*
X46389Y-30877D01*
X46415Y-30903D01*
X46520Y-30903D01*
X46558Y-30887D01*
X46587Y-30858D01*
X46603Y-30820D01*
X46603Y-30779D01*
X46603Y-31285D01*
X46551Y-31410D01*
X46551Y-31588D01*
X46619Y-31753D01*
X46745Y-31879D01*
X46910Y-31948D01*
X47088Y-31948D01*
X47253Y-31880D01*
X47379Y-31754D01*
X47448Y-31589D01*
X47448Y-31411D01*
X47406Y-31310D01*
X47988Y-30728D01*
X48775Y-30728D01*
X48833Y-30717D01*
X48883Y-30683D01*
X50033Y-29533D01*
X50033Y-29533D01*
X50047Y-29513D01*
X50067Y-29483D01*
X50067Y-29483D01*
X50078Y-29425D01*
X50078Y-29425D01*
X50078Y-28813D01*
X50254Y-28637D01*
X50408Y-28637D01*
X50408Y-28654D01*
X50423Y-28692D01*
X50452Y-28721D01*
X50483Y-28734D01*
X50453Y-28746D01*
X50423Y-28775D01*
X50408Y-28813D01*
X50408Y-28855D01*
X50408Y-29154D01*
X50423Y-29192D01*
X50452Y-29221D01*
X50491Y-29237D01*
X50532Y-29237D01*
X50702Y-29237D01*
X50702Y-30580D01*
X50189Y-31093D01*
X50089Y-31051D01*
X49911Y-31051D01*
X49746Y-31119D01*
X49620Y-31245D01*
X49551Y-31410D01*
X49551Y-31588D01*
X49619Y-31753D01*
X49745Y-31879D01*
X49910Y-31948D01*
X50088Y-31948D01*
X50253Y-31880D01*
X50379Y-31754D01*
X50448Y-31589D01*
X50448Y-31411D01*
X50406Y-31310D01*
X50965Y-30752D01*
X50965Y-30752D01*
X50998Y-30702D01*
X51010Y-30643D01*
X51010Y-30643D01*
X51010Y-29237D01*
X51221Y-29237D01*
X51259Y-29221D01*
X51288Y-29192D01*
X51304Y-29154D01*
X51304Y-29113D01*
X51304Y-31170D01*
X51254Y-31120D01*
X51089Y-31051D01*
X50911Y-31051D01*
X50746Y-31119D01*
X50620Y-31245D01*
X50551Y-31410D01*
X50551Y-31588D01*
X50619Y-31753D01*
X50745Y-31879D01*
X50910Y-31948D01*
X51088Y-31948D01*
X51253Y-31880D01*
X51379Y-31754D01*
X51448Y-31589D01*
X51448Y-31411D01*
X51448Y-31966D01*
X49448Y-31966D01*
X49448Y-31411D01*
X49380Y-31246D01*
X49254Y-31120D01*
X49089Y-31051D01*
X48911Y-31051D01*
X48746Y-31119D01*
X48620Y-31245D01*
X48551Y-31410D01*
X48551Y-31588D01*
X48619Y-31753D01*
X48745Y-31879D01*
X48910Y-31948D01*
X49088Y-31948D01*
X49253Y-31880D01*
X49379Y-31754D01*
X49448Y-31589D01*
X49448Y-31411D01*
X49448Y-31966D01*
X48448Y-31966D01*
X48448Y-31411D01*
X48380Y-31246D01*
X48254Y-31120D01*
X48089Y-31051D01*
X47911Y-31051D01*
X47746Y-31119D01*
X47620Y-31245D01*
X47551Y-31410D01*
X47551Y-31588D01*
X47619Y-31753D01*
X47745Y-31879D01*
X47910Y-31948D01*
X48088Y-31948D01*
X48253Y-31880D01*
X48379Y-31754D01*
X48448Y-31589D01*
X48448Y-31411D01*
X48448Y-31966D01*
X46448Y-31966D01*
X46448Y-31411D01*
X46380Y-31246D01*
X46360Y-31226D01*
X46360Y-30877D01*
X46360Y-30589D01*
X46360Y-30560D01*
X46360Y-30272D01*
X46334Y-30246D01*
X46229Y-30246D01*
X46191Y-30262D01*
X46162Y-30291D01*
X46146Y-30329D01*
X46146Y-30370D01*
X46146Y-30534D01*
X46172Y-30560D01*
X46360Y-30560D01*
X46360Y-30589D01*
X46172Y-30589D01*
X46146Y-30615D01*
X46146Y-30779D01*
X46146Y-30820D01*
X46162Y-30858D01*
X46191Y-30887D01*
X46229Y-30903D01*
X46334Y-30903D01*
X46360Y-30877D01*
X46360Y-31226D01*
X46254Y-31120D01*
X46089Y-31051D01*
X45911Y-31051D01*
X45746Y-31119D01*
X45620Y-31245D01*
X45551Y-31410D01*
X45551Y-31588D01*
X45619Y-31753D01*
X45745Y-31879D01*
X45910Y-31948D01*
X46088Y-31948D01*
X46253Y-31880D01*
X46379Y-31754D01*
X46448Y-31589D01*
X46448Y-31411D01*
X46448Y-31966D01*
X45448Y-31966D01*
X45448Y-31411D01*
X45380Y-31246D01*
X45254Y-31120D01*
X45089Y-31051D01*
X44911Y-31051D01*
X44746Y-31119D01*
X44620Y-31245D01*
X44551Y-31410D01*
X44551Y-31588D01*
X44619Y-31753D01*
X44745Y-31879D01*
X44910Y-31948D01*
X45088Y-31948D01*
X45253Y-31880D01*
X45379Y-31754D01*
X45448Y-31589D01*
X45448Y-31411D01*
X45448Y-31966D01*
X44012Y-31966D01*
X43919Y-31948D01*
X44088Y-31948D01*
X44253Y-31880D01*
X44379Y-31754D01*
X44448Y-31589D01*
X44448Y-31411D01*
X44406Y-31310D01*
X44783Y-30933D01*
X44817Y-30883D01*
X44828Y-30825D01*
X44828Y-30528D01*
X45125Y-30528D01*
X45150Y-30528D01*
X45511Y-30528D01*
X45546Y-30563D01*
X45546Y-30820D01*
X45562Y-30858D01*
X45591Y-30887D01*
X45629Y-30903D01*
X45670Y-30903D01*
X45920Y-30903D01*
X45958Y-30887D01*
X45987Y-30858D01*
X46003Y-30820D01*
X46003Y-30779D01*
X46003Y-30329D01*
X45987Y-30291D01*
X45958Y-30262D01*
X45920Y-30246D01*
X45879Y-30246D01*
X45653Y-30246D01*
X45633Y-30232D01*
X45628Y-30231D01*
X45663Y-30147D01*
X45663Y-30052D01*
X45627Y-29964D01*
X45591Y-29928D01*
X45770Y-29928D01*
X45808Y-29912D01*
X45837Y-29883D01*
X45853Y-29845D01*
X45853Y-29804D01*
X45853Y-29588D01*
X45908Y-29533D01*
X45908Y-29533D01*
X45922Y-29513D01*
X45942Y-29483D01*
X45942Y-29483D01*
X45953Y-29425D01*
X45953Y-29425D01*
X45953Y-29333D01*
X45997Y-29351D01*
X45996Y-29354D01*
X45996Y-29395D01*
X45996Y-29845D01*
X46012Y-29883D01*
X46041Y-29912D01*
X46079Y-29928D01*
X46120Y-29928D01*
X46370Y-29928D01*
X46408Y-29912D01*
X46437Y-29883D01*
X46453Y-29845D01*
X46453Y-29804D01*
X46453Y-29458D01*
X46527Y-29488D01*
X46596Y-29488D01*
X46686Y-29578D01*
X46686Y-29647D01*
X46722Y-29735D01*
X46789Y-29802D01*
X46877Y-29838D01*
X46972Y-29838D01*
X47060Y-29802D01*
X47108Y-29753D01*
X47486Y-29753D01*
X47466Y-29762D01*
X47437Y-29791D01*
X47421Y-29829D01*
X47421Y-29870D01*
X47421Y-30034D01*
X47447Y-30060D01*
X47635Y-30060D01*
X47635Y-30052D01*
X47664Y-30052D01*
X47664Y-30060D01*
X47852Y-30060D01*
X47878Y-30034D01*
X47878Y-29870D01*
X47878Y-29829D01*
X47862Y-29791D01*
X47833Y-29762D01*
X47813Y-29753D01*
X48086Y-29753D01*
X48066Y-29762D01*
X48037Y-29791D01*
X48021Y-29829D01*
X48021Y-29870D01*
X48021Y-30320D01*
X48037Y-30358D01*
X48066Y-30387D01*
X48104Y-30403D01*
X48145Y-30403D01*
X48395Y-30403D01*
X48433Y-30387D01*
X48462Y-30358D01*
X48478Y-30320D01*
X48478Y-30279D01*
X48478Y-29829D01*
X48462Y-29791D01*
X48433Y-29762D01*
X48428Y-29759D01*
X48428Y-29753D01*
X49125Y-29753D01*
X49183Y-29742D01*
X49233Y-29708D01*
X49353Y-29588D01*
X49422Y-29588D01*
X49510Y-29552D01*
X49577Y-29485D01*
X49613Y-29397D01*
X49613Y-29302D01*
X49577Y-29214D01*
X49526Y-29163D01*
X49526Y-29163D01*
X49581Y-29081D01*
X49600Y-28984D01*
X49581Y-28887D01*
X49526Y-28805D01*
X49444Y-28750D01*
X49381Y-28737D01*
X49467Y-28737D01*
X49508Y-28737D01*
X49547Y-28721D01*
X49576Y-28692D01*
X49591Y-28654D01*
X49591Y-28314D01*
X49576Y-28275D01*
X49547Y-28246D01*
X49516Y-28234D01*
X49547Y-28221D01*
X49576Y-28192D01*
X49591Y-28154D01*
X49591Y-28024D01*
X49565Y-27998D01*
X49158Y-27998D01*
X49158Y-28211D01*
X49180Y-28234D01*
X49158Y-28256D01*
X49158Y-28469D01*
X49565Y-28469D01*
X49591Y-28443D01*
X49591Y-28314D01*
X49591Y-28654D01*
X49591Y-28524D01*
X49565Y-28498D01*
X49158Y-28498D01*
X49158Y-28506D01*
X49129Y-28506D01*
X49129Y-28498D01*
X49129Y-28469D01*
X49129Y-28256D01*
X49106Y-28234D01*
X49129Y-28211D01*
X49129Y-27998D01*
X49129Y-27969D01*
X49129Y-27756D01*
X49106Y-27734D01*
X49129Y-27711D01*
X49129Y-27498D01*
X49129Y-27469D01*
X49129Y-27256D01*
X49106Y-27234D01*
X49129Y-27211D01*
X49129Y-26998D01*
X49129Y-26969D01*
X49129Y-26756D01*
X49103Y-26730D01*
X48819Y-26730D01*
X48778Y-26730D01*
X48740Y-26746D01*
X48711Y-26775D01*
X48695Y-26814D01*
X48695Y-26943D01*
X48721Y-26969D01*
X49129Y-26969D01*
X49129Y-26998D01*
X48721Y-26998D01*
X48695Y-27024D01*
X48695Y-27154D01*
X48711Y-27192D01*
X48740Y-27221D01*
X48770Y-27234D01*
X48740Y-27246D01*
X48711Y-27275D01*
X48695Y-27314D01*
X48695Y-27443D01*
X48721Y-27469D01*
X49129Y-27469D01*
X49129Y-27498D01*
X48721Y-27498D01*
X48695Y-27524D01*
X48695Y-27654D01*
X48711Y-27692D01*
X48740Y-27721D01*
X48770Y-27734D01*
X48740Y-27746D01*
X48711Y-27775D01*
X48695Y-27814D01*
X48695Y-27943D01*
X48721Y-27969D01*
X49129Y-27969D01*
X49129Y-27998D01*
X48721Y-27998D01*
X48695Y-28024D01*
X48695Y-28154D01*
X48711Y-28192D01*
X48740Y-28221D01*
X48770Y-28234D01*
X48740Y-28246D01*
X48711Y-28275D01*
X48695Y-28314D01*
X48695Y-28443D01*
X48721Y-28469D01*
X49129Y-28469D01*
X49129Y-28498D01*
X48721Y-28498D01*
X48695Y-28524D01*
X48695Y-28654D01*
X48711Y-28692D01*
X48740Y-28721D01*
X48778Y-28737D01*
X48819Y-28737D01*
X48906Y-28737D01*
X48843Y-28750D01*
X48760Y-28805D01*
X48705Y-28887D01*
X48686Y-28984D01*
X48705Y-29081D01*
X48760Y-29163D01*
X48843Y-29218D01*
X48940Y-29237D01*
X49045Y-29237D01*
X49136Y-29328D01*
X49136Y-29371D01*
X49061Y-29446D01*
X48275Y-29446D01*
X48228Y-29446D01*
X48228Y-26054D01*
X48228Y-25604D01*
X48212Y-25566D01*
X48183Y-25537D01*
X48145Y-25521D01*
X48104Y-25521D01*
X47854Y-25521D01*
X47816Y-25537D01*
X47787Y-25566D01*
X47771Y-25604D01*
X47771Y-25645D01*
X47771Y-25696D01*
X47478Y-25696D01*
X47478Y-25604D01*
X47462Y-25566D01*
X47448Y-25551D01*
X47448Y-24411D01*
X47380Y-24246D01*
X47254Y-24120D01*
X47089Y-24051D01*
X46911Y-24051D01*
X46746Y-24119D01*
X46620Y-24245D01*
X46551Y-24410D01*
X46551Y-24588D01*
X46619Y-24753D01*
X46745Y-24879D01*
X46910Y-24948D01*
X47088Y-24948D01*
X47253Y-24880D01*
X47379Y-24754D01*
X47448Y-24589D01*
X47448Y-24411D01*
X47448Y-25551D01*
X47433Y-25537D01*
X47395Y-25521D01*
X47354Y-25521D01*
X47104Y-25521D01*
X47066Y-25537D01*
X47037Y-25566D01*
X47021Y-25604D01*
X47021Y-25645D01*
X47021Y-26095D01*
X47037Y-26133D01*
X47066Y-26162D01*
X47104Y-26178D01*
X47145Y-26178D01*
X47395Y-26178D01*
X47433Y-26162D01*
X47462Y-26133D01*
X47478Y-26095D01*
X47478Y-26054D01*
X47478Y-26003D01*
X47771Y-26003D01*
X47771Y-26095D01*
X47787Y-26133D01*
X47816Y-26162D01*
X47854Y-26178D01*
X47895Y-26178D01*
X48145Y-26178D01*
X48183Y-26162D01*
X48212Y-26133D01*
X48228Y-26095D01*
X48228Y-26054D01*
X48228Y-29446D01*
X48195Y-29446D01*
X48195Y-27881D01*
X48105Y-27662D01*
X47937Y-27495D01*
X47719Y-27404D01*
X47481Y-27404D01*
X47262Y-27494D01*
X47095Y-27662D01*
X47004Y-27880D01*
X47004Y-28118D01*
X47094Y-28337D01*
X47262Y-28504D01*
X47480Y-28595D01*
X47718Y-28595D01*
X47937Y-28505D01*
X48104Y-28337D01*
X48195Y-28119D01*
X48195Y-27881D01*
X48195Y-29446D01*
X47108Y-29446D01*
X47060Y-29397D01*
X46972Y-29361D01*
X46903Y-29361D01*
X46878Y-29336D01*
X46878Y-26054D01*
X46878Y-25645D01*
X46878Y-25604D01*
X46862Y-25566D01*
X46833Y-25537D01*
X46795Y-25521D01*
X46690Y-25521D01*
X46664Y-25547D01*
X46664Y-25835D01*
X46852Y-25835D01*
X46878Y-25809D01*
X46878Y-25645D01*
X46878Y-26054D01*
X46878Y-25890D01*
X46852Y-25864D01*
X46664Y-25864D01*
X46664Y-26152D01*
X46690Y-26178D01*
X46795Y-26178D01*
X46833Y-26162D01*
X46862Y-26133D01*
X46878Y-26095D01*
X46878Y-26054D01*
X46878Y-29336D01*
X46813Y-29271D01*
X46813Y-29202D01*
X46777Y-29114D01*
X46710Y-29047D01*
X46622Y-29011D01*
X46527Y-29011D01*
X46439Y-29047D01*
X46372Y-29114D01*
X46344Y-29182D01*
X46333Y-29166D01*
X46313Y-29146D01*
X46313Y-29077D01*
X46290Y-29020D01*
X46335Y-29002D01*
X46402Y-28935D01*
X46438Y-28847D01*
X46438Y-28752D01*
X46402Y-28664D01*
X46353Y-28616D01*
X46353Y-27063D01*
X46450Y-26966D01*
X46479Y-26978D01*
X46520Y-26978D01*
X46770Y-26978D01*
X46808Y-26962D01*
X46837Y-26933D01*
X46853Y-26895D01*
X46853Y-26854D01*
X46853Y-26404D01*
X46837Y-26366D01*
X46808Y-26337D01*
X46770Y-26321D01*
X46729Y-26321D01*
X46635Y-26321D01*
X46635Y-26152D01*
X46635Y-25864D01*
X46635Y-25835D01*
X46635Y-25547D01*
X46609Y-25521D01*
X46504Y-25521D01*
X46466Y-25537D01*
X46448Y-25554D01*
X46448Y-24411D01*
X46380Y-24246D01*
X46254Y-24120D01*
X46089Y-24051D01*
X45911Y-24051D01*
X45746Y-24119D01*
X45620Y-24245D01*
X45551Y-24410D01*
X45551Y-24588D01*
X45619Y-24753D01*
X45745Y-24879D01*
X45910Y-24948D01*
X46088Y-24948D01*
X46253Y-24880D01*
X46379Y-24754D01*
X46448Y-24589D01*
X46448Y-24411D01*
X46448Y-25554D01*
X46437Y-25566D01*
X46421Y-25604D01*
X46421Y-25645D01*
X46421Y-25809D01*
X46447Y-25835D01*
X46635Y-25835D01*
X46635Y-25864D01*
X46447Y-25864D01*
X46421Y-25890D01*
X46421Y-26054D01*
X46421Y-26095D01*
X46437Y-26133D01*
X46466Y-26162D01*
X46504Y-26178D01*
X46609Y-26178D01*
X46635Y-26152D01*
X46635Y-26321D01*
X46479Y-26321D01*
X46441Y-26337D01*
X46412Y-26366D01*
X46396Y-26404D01*
X46396Y-26445D01*
X46396Y-26586D01*
X46253Y-26728D01*
X46253Y-26404D01*
X46237Y-26366D01*
X46208Y-26337D01*
X46170Y-26321D01*
X46129Y-26321D01*
X45879Y-26321D01*
X45841Y-26337D01*
X45812Y-26366D01*
X45803Y-26386D01*
X45803Y-26100D01*
X45803Y-26099D01*
X45799Y-26078D01*
X46045Y-26078D01*
X46083Y-26062D01*
X46112Y-26033D01*
X46128Y-25995D01*
X46128Y-25954D01*
X46128Y-25504D01*
X46112Y-25466D01*
X46083Y-25437D01*
X46053Y-25424D01*
X46053Y-25400D01*
X46042Y-25341D01*
X46008Y-25291D01*
X45406Y-24689D01*
X45448Y-24589D01*
X45448Y-24411D01*
X45380Y-24246D01*
X45254Y-24120D01*
X45089Y-24051D01*
X44911Y-24051D01*
X44746Y-24119D01*
X44620Y-24245D01*
X44551Y-24410D01*
X44551Y-24588D01*
X44619Y-24753D01*
X44745Y-24879D01*
X44910Y-24948D01*
X45088Y-24948D01*
X45189Y-24906D01*
X45718Y-25436D01*
X45716Y-25437D01*
X45687Y-25466D01*
X45671Y-25504D01*
X45671Y-25545D01*
X45671Y-25903D01*
X45528Y-25761D01*
X45528Y-25504D01*
X45512Y-25466D01*
X45483Y-25437D01*
X45445Y-25421D01*
X45404Y-25421D01*
X45154Y-25421D01*
X45116Y-25437D01*
X45087Y-25466D01*
X45071Y-25504D01*
X45071Y-25545D01*
X45071Y-25995D01*
X45087Y-26033D01*
X45116Y-26062D01*
X45154Y-26078D01*
X45195Y-26078D01*
X45411Y-26078D01*
X45496Y-26163D01*
X45496Y-27175D01*
X45507Y-27233D01*
X45541Y-27283D01*
X45563Y-27305D01*
X45529Y-27305D01*
X45397Y-27305D01*
X45397Y-27213D01*
X45397Y-26345D01*
X45381Y-26307D01*
X45352Y-26278D01*
X45314Y-26262D01*
X45273Y-26262D01*
X45019Y-26262D01*
X44993Y-26288D01*
X44993Y-26765D01*
X45371Y-26765D01*
X45397Y-26739D01*
X45397Y-26345D01*
X45397Y-27213D01*
X45397Y-26819D01*
X45371Y-26793D01*
X44993Y-26793D01*
X44993Y-27270D01*
X45019Y-27296D01*
X45273Y-27296D01*
X45314Y-27296D01*
X45352Y-27280D01*
X45381Y-27251D01*
X45397Y-27213D01*
X45397Y-27305D01*
X45196Y-27305D01*
X45170Y-27331D01*
X45170Y-27473D01*
X45178Y-27473D01*
X45178Y-27502D01*
X45170Y-27502D01*
X45170Y-27510D01*
X45141Y-27510D01*
X45141Y-27502D01*
X45141Y-27473D01*
X45141Y-27331D01*
X45115Y-27305D01*
X44964Y-27305D01*
X44964Y-27270D01*
X44964Y-26793D01*
X44964Y-26765D01*
X44964Y-26288D01*
X44938Y-26262D01*
X44684Y-26262D01*
X44643Y-26262D01*
X44605Y-26278D01*
X44575Y-26307D01*
X44560Y-26345D01*
X44560Y-26739D01*
X44586Y-26765D01*
X44964Y-26765D01*
X44964Y-26793D01*
X44586Y-26793D01*
X44560Y-26819D01*
X44560Y-27213D01*
X44575Y-27251D01*
X44605Y-27280D01*
X44643Y-27296D01*
X44684Y-27296D01*
X44938Y-27296D01*
X44964Y-27270D01*
X44964Y-27305D01*
X44782Y-27305D01*
X44741Y-27305D01*
X44703Y-27321D01*
X44674Y-27350D01*
X44658Y-27388D01*
X44658Y-27447D01*
X44684Y-27473D01*
X45141Y-27473D01*
X45141Y-27502D01*
X44684Y-27502D01*
X44658Y-27528D01*
X44658Y-27587D01*
X44670Y-27616D01*
X44658Y-27644D01*
X44658Y-27685D01*
X44658Y-27843D01*
X44670Y-27872D01*
X44658Y-27900D01*
X44658Y-27941D01*
X44658Y-28099D01*
X44670Y-28127D01*
X44658Y-28156D01*
X44658Y-28197D01*
X44658Y-28355D01*
X44670Y-28383D01*
X44658Y-28412D01*
X44658Y-28453D01*
X44658Y-28611D01*
X44674Y-28649D01*
X44703Y-28678D01*
X44741Y-28694D01*
X44782Y-28694D01*
X45343Y-28694D01*
X45328Y-28709D01*
X45314Y-28703D01*
X45273Y-28703D01*
X45019Y-28703D01*
X44993Y-28729D01*
X44993Y-29206D01*
X45371Y-29206D01*
X45397Y-29180D01*
X45397Y-29055D01*
X45477Y-29088D01*
X45572Y-29088D01*
X45646Y-29058D01*
X45646Y-29271D01*
X45479Y-29271D01*
X45441Y-29287D01*
X45412Y-29316D01*
X45397Y-29350D01*
X45397Y-29260D01*
X45371Y-29234D01*
X44993Y-29234D01*
X44993Y-29711D01*
X45019Y-29737D01*
X45273Y-29737D01*
X45314Y-29737D01*
X45352Y-29721D01*
X45381Y-29692D01*
X45396Y-29657D01*
X45396Y-29845D01*
X45402Y-29861D01*
X45377Y-29861D01*
X45289Y-29897D01*
X45222Y-29964D01*
X45186Y-30052D01*
X45186Y-30121D01*
X45086Y-30221D01*
X44964Y-30221D01*
X44964Y-29711D01*
X44964Y-29234D01*
X44964Y-29206D01*
X44964Y-28729D01*
X44938Y-28703D01*
X44684Y-28703D01*
X44643Y-28703D01*
X44605Y-28719D01*
X44575Y-28748D01*
X44560Y-28786D01*
X44560Y-29180D01*
X44586Y-29206D01*
X44964Y-29206D01*
X44964Y-29234D01*
X44586Y-29234D01*
X44560Y-29260D01*
X44560Y-29654D01*
X44575Y-29692D01*
X44605Y-29721D01*
X44643Y-29737D01*
X44684Y-29737D01*
X44938Y-29737D01*
X44964Y-29711D01*
X44964Y-30221D01*
X44675Y-30221D01*
X44616Y-30232D01*
X44566Y-30266D01*
X44532Y-30316D01*
X44521Y-30375D01*
X44521Y-30761D01*
X44452Y-30829D01*
X44452Y-29870D01*
X44452Y-29121D01*
X44452Y-28867D01*
X44452Y-28077D01*
X44437Y-28039D01*
X44407Y-28010D01*
X44382Y-28000D01*
X44407Y-27989D01*
X44437Y-27960D01*
X44452Y-27922D01*
X44452Y-27132D01*
X44452Y-26878D01*
X44452Y-26129D01*
X44448Y-26119D01*
X44448Y-24414D01*
X44381Y-24249D01*
X44377Y-24243D01*
X44314Y-24205D01*
X44020Y-24500D01*
X44314Y-24794D01*
X44377Y-24756D01*
X44447Y-24592D01*
X44448Y-24414D01*
X44448Y-26119D01*
X44437Y-26090D01*
X44407Y-26061D01*
X44369Y-26045D01*
X44328Y-26045D01*
X44294Y-26045D01*
X44294Y-24814D01*
X44000Y-24520D01*
X43705Y-24814D01*
X43743Y-24877D01*
X43907Y-24947D01*
X44085Y-24948D01*
X44250Y-24881D01*
X44256Y-24877D01*
X44294Y-24814D01*
X44294Y-26045D01*
X44015Y-26045D01*
X43989Y-26071D01*
X43989Y-26489D01*
X44426Y-26489D01*
X44452Y-26463D01*
X44452Y-26129D01*
X44452Y-26878D01*
X44452Y-26544D01*
X44426Y-26518D01*
X43989Y-26518D01*
X43989Y-26936D01*
X44015Y-26962D01*
X44328Y-26962D01*
X44369Y-26961D01*
X44407Y-26946D01*
X44437Y-26916D01*
X44452Y-26878D01*
X44452Y-27132D01*
X44437Y-27094D01*
X44407Y-27065D01*
X44369Y-27049D01*
X44328Y-27049D01*
X44015Y-27049D01*
X43989Y-27075D01*
X43989Y-27513D01*
X44426Y-27513D01*
X44452Y-27487D01*
X44452Y-27132D01*
X44452Y-27922D01*
X44452Y-27567D01*
X44426Y-27541D01*
X43989Y-27541D01*
X43989Y-27979D01*
X44009Y-28000D01*
X43989Y-28020D01*
X43989Y-28458D01*
X44426Y-28458D01*
X44452Y-28432D01*
X44452Y-28077D01*
X44452Y-28867D01*
X44452Y-28512D01*
X44426Y-28486D01*
X43989Y-28486D01*
X43989Y-28924D01*
X44015Y-28950D01*
X44328Y-28950D01*
X44369Y-28950D01*
X44407Y-28934D01*
X44437Y-28905D01*
X44452Y-28867D01*
X44452Y-29121D01*
X44437Y-29083D01*
X44407Y-29053D01*
X44369Y-29038D01*
X44328Y-29037D01*
X44015Y-29037D01*
X43989Y-29063D01*
X43989Y-29481D01*
X44426Y-29481D01*
X44452Y-29455D01*
X44452Y-29121D01*
X44452Y-29870D01*
X44452Y-29536D01*
X44426Y-29510D01*
X43989Y-29510D01*
X43989Y-29928D01*
X44015Y-29954D01*
X44328Y-29954D01*
X44369Y-29954D01*
X44407Y-29938D01*
X44437Y-29909D01*
X44452Y-29870D01*
X44452Y-30829D01*
X44189Y-31093D01*
X44089Y-31051D01*
X43911Y-31051D01*
X43746Y-31119D01*
X43620Y-31245D01*
X43551Y-31410D01*
X43551Y-31579D01*
X43533Y-31486D01*
X43533Y-29929D01*
X43542Y-29938D01*
X43580Y-29954D01*
X43621Y-29954D01*
X43934Y-29954D01*
X43960Y-29928D01*
X43960Y-29510D01*
X43952Y-29510D01*
X43952Y-29481D01*
X43960Y-29481D01*
X43960Y-29063D01*
X43934Y-29037D01*
X43621Y-29037D01*
X43580Y-29038D01*
X43542Y-29053D01*
X43533Y-29062D01*
X43533Y-28925D01*
X43542Y-28934D01*
X43580Y-28950D01*
X43621Y-28950D01*
X43934Y-28950D01*
X43960Y-28924D01*
X43960Y-28486D01*
X43952Y-28486D01*
X43952Y-28458D01*
X43960Y-28458D01*
X43960Y-28020D01*
X43940Y-28000D01*
X43960Y-27979D01*
X43960Y-27541D01*
X43952Y-27541D01*
X43952Y-27513D01*
X43960Y-27513D01*
X43960Y-27075D01*
X43934Y-27049D01*
X43621Y-27049D01*
X43580Y-27049D01*
X43542Y-27065D01*
X43533Y-27074D01*
X43533Y-26937D01*
X43542Y-26946D01*
X43580Y-26961D01*
X43621Y-26962D01*
X43934Y-26962D01*
X43960Y-26936D01*
X43960Y-26518D01*
X43952Y-26518D01*
X43952Y-26489D01*
X43960Y-26489D01*
X43960Y-26071D01*
X43934Y-26045D01*
X43621Y-26045D01*
X43580Y-26045D01*
X43542Y-26061D01*
X43533Y-26070D01*
X43533Y-24513D01*
X43552Y-24417D01*
X43551Y-24585D01*
X43618Y-24750D01*
X43622Y-24756D01*
X43685Y-24794D01*
X43979Y-24500D01*
X43685Y-24205D01*
X43625Y-24241D01*
X43671Y-24172D01*
X43740Y-24125D01*
X43705Y-24185D01*
X44000Y-24479D01*
X44294Y-24185D01*
X44256Y-24122D01*
X44092Y-24052D01*
X43922Y-24051D01*
X44012Y-24033D01*
X51986Y-24033D01*
X52079Y-24051D01*
X51911Y-24051D01*
X51746Y-24119D01*
X51620Y-24245D01*
X51551Y-24410D01*
X51551Y-24588D01*
X51619Y-24753D01*
X51745Y-24879D01*
X51910Y-24948D01*
X52088Y-24948D01*
X52253Y-24880D01*
X52379Y-24754D01*
X52448Y-24589D01*
X52448Y-24419D01*
X52466Y-24512D01*
X52466Y-31487D01*
X52466Y-31487D01*
G37*
G54D22*
X52466Y-31487D02*
X52448Y-31580D01*
X52448Y-31411D01*
X52448Y-30411D01*
X52448Y-29411D01*
X52448Y-28411D01*
X52448Y-27411D01*
X52448Y-26411D01*
X52448Y-25411D01*
X52380Y-25246D01*
X52254Y-25120D01*
X52089Y-25051D01*
X51911Y-25051D01*
X51746Y-25119D01*
X51620Y-25245D01*
X51551Y-25410D01*
X51551Y-25588D01*
X51619Y-25753D01*
X51745Y-25879D01*
X51910Y-25948D01*
X52088Y-25948D01*
X52253Y-25880D01*
X52379Y-25754D01*
X52448Y-25589D01*
X52448Y-25411D01*
X52448Y-26411D01*
X52380Y-26246D01*
X52254Y-26120D01*
X52089Y-26051D01*
X51911Y-26051D01*
X51746Y-26119D01*
X51620Y-26245D01*
X51551Y-26410D01*
X51551Y-26588D01*
X51619Y-26753D01*
X51745Y-26879D01*
X51910Y-26948D01*
X52088Y-26948D01*
X52253Y-26880D01*
X52379Y-26754D01*
X52448Y-26589D01*
X52448Y-26411D01*
X52448Y-27411D01*
X52380Y-27246D01*
X52254Y-27120D01*
X52089Y-27051D01*
X51911Y-27051D01*
X51746Y-27119D01*
X51620Y-27245D01*
X51551Y-27410D01*
X51551Y-27588D01*
X51619Y-27753D01*
X51745Y-27879D01*
X51910Y-27948D01*
X52088Y-27948D01*
X52253Y-27880D01*
X52379Y-27754D01*
X52448Y-27589D01*
X52448Y-27411D01*
X52448Y-28411D01*
X52380Y-28246D01*
X52254Y-28120D01*
X52089Y-28051D01*
X51911Y-28051D01*
X51746Y-28119D01*
X51620Y-28245D01*
X51551Y-28410D01*
X51551Y-28588D01*
X51619Y-28753D01*
X51745Y-28879D01*
X51910Y-28948D01*
X52088Y-28948D01*
X52253Y-28880D01*
X52379Y-28754D01*
X52448Y-28589D01*
X52448Y-28411D01*
X52448Y-29411D01*
X52380Y-29246D01*
X52254Y-29120D01*
X52089Y-29051D01*
X51911Y-29051D01*
X51746Y-29119D01*
X51620Y-29245D01*
X51551Y-29410D01*
X51551Y-29588D01*
X51619Y-29753D01*
X51745Y-29879D01*
X51910Y-29948D01*
X52088Y-29948D01*
X52253Y-29880D01*
X52379Y-29754D01*
X52448Y-29589D01*
X52448Y-29411D01*
X52448Y-30411D01*
X52380Y-30246D01*
X52254Y-30120D01*
X52089Y-30051D01*
X51911Y-30051D01*
X51746Y-30119D01*
X51620Y-30245D01*
X51551Y-30410D01*
X51551Y-30588D01*
X51619Y-30753D01*
X51745Y-30879D01*
X51910Y-30948D01*
X52088Y-30948D01*
X52253Y-30880D01*
X52379Y-30754D01*
X52448Y-30589D01*
X52448Y-30411D01*
X52448Y-31411D01*
X52380Y-31246D01*
X52254Y-31120D01*
X52089Y-31051D01*
X51911Y-31051D01*
X51746Y-31119D01*
X51620Y-31245D01*
X51551Y-31410D01*
X51551Y-31588D01*
X51619Y-31753D01*
X51745Y-31879D01*
X51910Y-31948D01*
X52079Y-31948D01*
X51986Y-31966D01*
X51448Y-31966D01*
X51448Y-31411D01*
X51448Y-24411D01*
X51380Y-24246D01*
X51254Y-24120D01*
X51089Y-24051D01*
X50911Y-24051D01*
X50746Y-24119D01*
X50620Y-24245D01*
X50551Y-24410D01*
X50551Y-24588D01*
X50619Y-24753D01*
X50745Y-24879D01*
X50910Y-24948D01*
X51088Y-24948D01*
X51253Y-24880D01*
X51379Y-24754D01*
X51448Y-24589D01*
X51448Y-24411D01*
X51448Y-31411D01*
X51380Y-31246D01*
X51304Y-31170D01*
X51304Y-29113D01*
X51304Y-28814D01*
X51288Y-28775D01*
X51259Y-28746D01*
X51229Y-28734D01*
X51259Y-28721D01*
X51288Y-28692D01*
X51304Y-28654D01*
X51304Y-28613D01*
X51304Y-28314D01*
X51288Y-28275D01*
X51259Y-28246D01*
X51229Y-28234D01*
X51259Y-28221D01*
X51288Y-28192D01*
X51304Y-28154D01*
X51304Y-28113D01*
X51304Y-27814D01*
X51288Y-27775D01*
X51259Y-27746D01*
X51229Y-27734D01*
X51259Y-27721D01*
X51288Y-27692D01*
X51304Y-27654D01*
X51304Y-27613D01*
X51304Y-27314D01*
X51288Y-27275D01*
X51259Y-27246D01*
X51229Y-27234D01*
X51259Y-27221D01*
X51288Y-27192D01*
X51304Y-27154D01*
X51304Y-27113D01*
X51304Y-26814D01*
X51288Y-26775D01*
X51259Y-26746D01*
X51221Y-26730D01*
X51180Y-26730D01*
X50491Y-26730D01*
X50453Y-26746D01*
X50448Y-26751D01*
X50448Y-24411D01*
X50380Y-24246D01*
X50254Y-24120D01*
X50089Y-24051D01*
X49911Y-24051D01*
X49746Y-24119D01*
X49620Y-24245D01*
X49551Y-24410D01*
X49551Y-24588D01*
X49619Y-24753D01*
X49745Y-24879D01*
X49910Y-24948D01*
X50088Y-24948D01*
X50253Y-24880D01*
X50379Y-24754D01*
X50448Y-24589D01*
X50448Y-24411D01*
X50448Y-26751D01*
X50423Y-26775D01*
X50408Y-26813D01*
X50408Y-26855D01*
X50408Y-26899D01*
X50236Y-27071D01*
X50202Y-26989D01*
X50135Y-26922D01*
X50053Y-26888D01*
X50053Y-26199D01*
X50117Y-26199D01*
X50155Y-26184D01*
X50184Y-26154D01*
X50200Y-26116D01*
X50200Y-26075D01*
X50200Y-25583D01*
X50184Y-25545D01*
X50155Y-25516D01*
X50117Y-25500D01*
X50076Y-25500D01*
X49682Y-25500D01*
X49649Y-25513D01*
X49617Y-25500D01*
X49576Y-25500D01*
X49448Y-25500D01*
X49448Y-24411D01*
X49380Y-24246D01*
X49254Y-24120D01*
X49089Y-24051D01*
X48911Y-24051D01*
X48746Y-24119D01*
X48620Y-24245D01*
X48551Y-24410D01*
X48551Y-24588D01*
X48619Y-24753D01*
X48745Y-24879D01*
X48910Y-24948D01*
X49088Y-24948D01*
X49253Y-24880D01*
X49379Y-24754D01*
X49448Y-24589D01*
X49448Y-24411D01*
X49448Y-25500D01*
X49182Y-25500D01*
X49144Y-25515D01*
X49115Y-25545D01*
X49099Y-25583D01*
X49099Y-25624D01*
X49099Y-25696D01*
X48828Y-25696D01*
X48828Y-25604D01*
X48812Y-25566D01*
X48783Y-25537D01*
X48745Y-25521D01*
X48704Y-25521D01*
X48454Y-25521D01*
X48448Y-25523D01*
X48448Y-24411D01*
X48380Y-24246D01*
X48254Y-24120D01*
X48089Y-24051D01*
X47911Y-24051D01*
X47746Y-24119D01*
X47620Y-24245D01*
X47551Y-24410D01*
X47551Y-24588D01*
X47619Y-24753D01*
X47745Y-24879D01*
X47910Y-24948D01*
X48088Y-24948D01*
X48253Y-24880D01*
X48379Y-24754D01*
X48448Y-24589D01*
X48448Y-24411D01*
X48448Y-25523D01*
X48416Y-25537D01*
X48387Y-25566D01*
X48371Y-25604D01*
X48371Y-25645D01*
X48371Y-26095D01*
X48387Y-26133D01*
X48416Y-26162D01*
X48454Y-26178D01*
X48495Y-26178D01*
X48745Y-26178D01*
X48783Y-26162D01*
X48812Y-26133D01*
X48828Y-26095D01*
X48828Y-26054D01*
X48828Y-26003D01*
X49099Y-26003D01*
X49099Y-26116D01*
X49115Y-26154D01*
X49144Y-26183D01*
X49182Y-26199D01*
X49223Y-26199D01*
X49617Y-26199D01*
X49650Y-26186D01*
X49682Y-26199D01*
X49723Y-26199D01*
X49746Y-26199D01*
X49746Y-27025D01*
X49757Y-27083D01*
X49761Y-27088D01*
X49761Y-27172D01*
X49797Y-27260D01*
X49864Y-27327D01*
X49946Y-27361D01*
X49864Y-27443D01*
X49847Y-27436D01*
X49752Y-27436D01*
X49664Y-27472D01*
X49597Y-27539D01*
X49591Y-27553D01*
X49591Y-27314D01*
X49576Y-27275D01*
X49547Y-27246D01*
X49516Y-27234D01*
X49547Y-27221D01*
X49576Y-27192D01*
X49591Y-27154D01*
X49591Y-26814D01*
X49576Y-26775D01*
X49547Y-26746D01*
X49508Y-26730D01*
X49467Y-26730D01*
X49184Y-26730D01*
X49158Y-26756D01*
X49158Y-26969D01*
X49565Y-26969D01*
X49591Y-26943D01*
X49591Y-26814D01*
X49591Y-27154D01*
X49591Y-27024D01*
X49565Y-26998D01*
X49158Y-26998D01*
X49158Y-27211D01*
X49180Y-27234D01*
X49158Y-27256D01*
X49158Y-27469D01*
X49565Y-27469D01*
X49591Y-27443D01*
X49591Y-27314D01*
X49591Y-27553D01*
X49591Y-27553D01*
X49591Y-27524D01*
X49565Y-27498D01*
X49158Y-27498D01*
X49158Y-27711D01*
X49180Y-27734D01*
X49158Y-27756D01*
X49158Y-27969D01*
X49565Y-27969D01*
X49591Y-27943D01*
X49591Y-27814D01*
X49576Y-27775D01*
X49547Y-27746D01*
X49516Y-27734D01*
X49547Y-27721D01*
X49561Y-27707D01*
X49561Y-27722D01*
X49597Y-27810D01*
X49664Y-27877D01*
X49752Y-27913D01*
X49847Y-27913D01*
X49935Y-27877D01*
X50002Y-27810D01*
X50038Y-27722D01*
X50038Y-27703D01*
X50408Y-27334D01*
X50408Y-27355D01*
X50408Y-27654D01*
X50423Y-27692D01*
X50452Y-27721D01*
X50483Y-27734D01*
X50453Y-27746D01*
X50423Y-27775D01*
X50408Y-27813D01*
X50408Y-27855D01*
X50408Y-28154D01*
X50423Y-28192D01*
X50452Y-28221D01*
X50483Y-28234D01*
X50453Y-28246D01*
X50423Y-28275D01*
X50408Y-28313D01*
X50408Y-28330D01*
X50190Y-28330D01*
X50131Y-28342D01*
X50082Y-28375D01*
X49816Y-28641D01*
X49782Y-28691D01*
X49771Y-28750D01*
X49771Y-29361D01*
X48711Y-30421D01*
X47925Y-30421D01*
X47878Y-30430D01*
X47878Y-30279D01*
X47878Y-30115D01*
X47852Y-30089D01*
X47664Y-30089D01*
X47664Y-30377D01*
X47690Y-30403D01*
X47795Y-30403D01*
X47833Y-30387D01*
X47862Y-30358D01*
X47878Y-30320D01*
X47878Y-30279D01*
X47878Y-30430D01*
X47866Y-30432D01*
X47816Y-30466D01*
X47635Y-30646D01*
X47635Y-30377D01*
X47635Y-30089D01*
X47447Y-30089D01*
X47421Y-30115D01*
X47421Y-30279D01*
X47421Y-30320D01*
X47437Y-30358D01*
X47466Y-30387D01*
X47504Y-30403D01*
X47609Y-30403D01*
X47635Y-30377D01*
X47635Y-30646D01*
X47189Y-31093D01*
X47089Y-31051D01*
X46911Y-31051D01*
X46746Y-31119D01*
X46620Y-31245D01*
X46603Y-31285D01*
X46603Y-30779D01*
X46603Y-30370D01*
X46603Y-30329D01*
X46587Y-30291D01*
X46558Y-30262D01*
X46520Y-30246D01*
X46415Y-30246D01*
X46389Y-30272D01*
X46389Y-30560D01*
X46577Y-30560D01*
X46603Y-30534D01*
X46603Y-30370D01*
X46603Y-30779D01*
X46603Y-30615D01*
X46577Y-30589D01*
X46389Y-30589D01*
X46389Y-30877D01*
X46415Y-30903D01*
X46520Y-30903D01*
X46558Y-30887D01*
X46587Y-30858D01*
X46603Y-30820D01*
X46603Y-30779D01*
X46603Y-31285D01*
X46551Y-31410D01*
X46551Y-31588D01*
X46619Y-31753D01*
X46745Y-31879D01*
X46910Y-31948D01*
X47088Y-31948D01*
X47253Y-31880D01*
X47379Y-31754D01*
X47448Y-31589D01*
X47448Y-31411D01*
X47406Y-31310D01*
X47988Y-30728D01*
X48775Y-30728D01*
X48833Y-30717D01*
X48883Y-30683D01*
X50033Y-29533D01*
X50033Y-29533D01*
X50047Y-29513D01*
X50067Y-29483D01*
X50067Y-29483D01*
X50078Y-29425D01*
X50078Y-29425D01*
X50078Y-28813D01*
X50254Y-28637D01*
X50408Y-28637D01*
X50408Y-28654D01*
X50423Y-28692D01*
X50452Y-28721D01*
X50483Y-28734D01*
X50453Y-28746D01*
X50423Y-28775D01*
X50408Y-28813D01*
X50408Y-28855D01*
X50408Y-29154D01*
X50423Y-29192D01*
X50452Y-29221D01*
X50491Y-29237D01*
X50532Y-29237D01*
X50702Y-29237D01*
X50702Y-30580D01*
X50189Y-31093D01*
X50089Y-31051D01*
X49911Y-31051D01*
X49746Y-31119D01*
X49620Y-31245D01*
X49551Y-31410D01*
X49551Y-31588D01*
X49619Y-31753D01*
X49745Y-31879D01*
X49910Y-31948D01*
X50088Y-31948D01*
X50253Y-31880D01*
X50379Y-31754D01*
X50448Y-31589D01*
X50448Y-31411D01*
X50406Y-31310D01*
X50965Y-30752D01*
X50965Y-30752D01*
X50998Y-30702D01*
X51010Y-30643D01*
X51010Y-30643D01*
X51010Y-29237D01*
X51221Y-29237D01*
X51259Y-29221D01*
X51288Y-29192D01*
X51304Y-29154D01*
X51304Y-29113D01*
X51304Y-31170D01*
X51254Y-31120D01*
X51089Y-31051D01*
X50911Y-31051D01*
X50746Y-31119D01*
X50620Y-31245D01*
X50551Y-31410D01*
X50551Y-31588D01*
X50619Y-31753D01*
X50745Y-31879D01*
X50910Y-31948D01*
X51088Y-31948D01*
X51253Y-31880D01*
X51379Y-31754D01*
X51448Y-31589D01*
X51448Y-31411D01*
X51448Y-31966D01*
X49448Y-31966D01*
X49448Y-31411D01*
X49380Y-31246D01*
X49254Y-31120D01*
X49089Y-31051D01*
X48911Y-31051D01*
X48746Y-31119D01*
X48620Y-31245D01*
X48551Y-31410D01*
X48551Y-31588D01*
X48619Y-31753D01*
X48745Y-31879D01*
X48910Y-31948D01*
X49088Y-31948D01*
X49253Y-31880D01*
X49379Y-31754D01*
X49448Y-31589D01*
X49448Y-31411D01*
X49448Y-31966D01*
X48448Y-31966D01*
X48448Y-31411D01*
X48380Y-31246D01*
X48254Y-31120D01*
X48089Y-31051D01*
X47911Y-31051D01*
X47746Y-31119D01*
X47620Y-31245D01*
X47551Y-31410D01*
X47551Y-31588D01*
X47619Y-31753D01*
X47745Y-31879D01*
X47910Y-31948D01*
X48088Y-31948D01*
X48253Y-31880D01*
X48379Y-31754D01*
X48448Y-31589D01*
X48448Y-31411D01*
X48448Y-31966D01*
X46448Y-31966D01*
X46448Y-31411D01*
X46380Y-31246D01*
X46360Y-31226D01*
X46360Y-30877D01*
X46360Y-30589D01*
X46360Y-30560D01*
X46360Y-30272D01*
X46334Y-30246D01*
X46229Y-30246D01*
X46191Y-30262D01*
X46162Y-30291D01*
X46146Y-30329D01*
X46146Y-30370D01*
X46146Y-30534D01*
X46172Y-30560D01*
X46360Y-30560D01*
X46360Y-30589D01*
X46172Y-30589D01*
X46146Y-30615D01*
X46146Y-30779D01*
X46146Y-30820D01*
X46162Y-30858D01*
X46191Y-30887D01*
X46229Y-30903D01*
X46334Y-30903D01*
X46360Y-30877D01*
X46360Y-31226D01*
X46254Y-31120D01*
X46089Y-31051D01*
X45911Y-31051D01*
X45746Y-31119D01*
X45620Y-31245D01*
X45551Y-31410D01*
X45551Y-31588D01*
X45619Y-31753D01*
X45745Y-31879D01*
X45910Y-31948D01*
X46088Y-31948D01*
X46253Y-31880D01*
X46379Y-31754D01*
X46448Y-31589D01*
X46448Y-31411D01*
X46448Y-31966D01*
X45448Y-31966D01*
X45448Y-31411D01*
X45380Y-31246D01*
X45254Y-31120D01*
X45089Y-31051D01*
X44911Y-31051D01*
X44746Y-31119D01*
X44620Y-31245D01*
X44551Y-31410D01*
X44551Y-31588D01*
X44619Y-31753D01*
X44745Y-31879D01*
X44910Y-31948D01*
X45088Y-31948D01*
X45253Y-31880D01*
X45379Y-31754D01*
X45448Y-31589D01*
X45448Y-31411D01*
X45448Y-31966D01*
X44012Y-31966D01*
X43919Y-31948D01*
X44088Y-31948D01*
X44253Y-31880D01*
X44379Y-31754D01*
X44448Y-31589D01*
X44448Y-31411D01*
X44406Y-31310D01*
X44783Y-30933D01*
X44817Y-30883D01*
X44828Y-30825D01*
X44828Y-30528D01*
X45125Y-30528D01*
X45150Y-30528D01*
X45511Y-30528D01*
X45546Y-30563D01*
X45546Y-30820D01*
X45562Y-30858D01*
X45591Y-30887D01*
X45629Y-30903D01*
X45670Y-30903D01*
X45920Y-30903D01*
X45958Y-30887D01*
X45987Y-30858D01*
X46003Y-30820D01*
X46003Y-30779D01*
X46003Y-30329D01*
X45987Y-30291D01*
X45958Y-30262D01*
X45920Y-30246D01*
X45879Y-30246D01*
X45653Y-30246D01*
X45633Y-30232D01*
X45628Y-30231D01*
X45663Y-30147D01*
X45663Y-30052D01*
X45627Y-29964D01*
X45591Y-29928D01*
X45770Y-29928D01*
X45808Y-29912D01*
X45837Y-29883D01*
X45853Y-29845D01*
X45853Y-29804D01*
X45853Y-29588D01*
X45908Y-29533D01*
X45908Y-29533D01*
X45922Y-29513D01*
X45942Y-29483D01*
X45942Y-29483D01*
X45953Y-29425D01*
X45953Y-29425D01*
X45953Y-29333D01*
X45997Y-29351D01*
X45996Y-29354D01*
X45996Y-29395D01*
X45996Y-29845D01*
X46012Y-29883D01*
X46041Y-29912D01*
X46079Y-29928D01*
X46120Y-29928D01*
X46370Y-29928D01*
X46408Y-29912D01*
X46437Y-29883D01*
X46453Y-29845D01*
X46453Y-29804D01*
X46453Y-29458D01*
X46527Y-29488D01*
X46596Y-29488D01*
X46686Y-29578D01*
X46686Y-29647D01*
X46722Y-29735D01*
X46789Y-29802D01*
X46877Y-29838D01*
X46972Y-29838D01*
X47060Y-29802D01*
X47108Y-29753D01*
X47486Y-29753D01*
X47466Y-29762D01*
X47437Y-29791D01*
X47421Y-29829D01*
X47421Y-29870D01*
X47421Y-30034D01*
X47447Y-30060D01*
X47635Y-30060D01*
X47635Y-30052D01*
X47664Y-30052D01*
X47664Y-30060D01*
X47852Y-30060D01*
X47878Y-30034D01*
X47878Y-29870D01*
X47878Y-29829D01*
X47862Y-29791D01*
X47833Y-29762D01*
X47813Y-29753D01*
X48086Y-29753D01*
X48066Y-29762D01*
X48037Y-29791D01*
X48021Y-29829D01*
X48021Y-29870D01*
X48021Y-30320D01*
X48037Y-30358D01*
X48066Y-30387D01*
X48104Y-30403D01*
X48145Y-30403D01*
X48395Y-30403D01*
X48433Y-30387D01*
X48462Y-30358D01*
X48478Y-30320D01*
X48478Y-30279D01*
X48478Y-29829D01*
X48462Y-29791D01*
X48433Y-29762D01*
X48428Y-29759D01*
X48428Y-29753D01*
X49125Y-29753D01*
X49183Y-29742D01*
X49233Y-29708D01*
X49353Y-29588D01*
X49422Y-29588D01*
X49510Y-29552D01*
X49577Y-29485D01*
X49613Y-29397D01*
X49613Y-29302D01*
X49577Y-29214D01*
X49526Y-29163D01*
X49526Y-29163D01*
X49581Y-29081D01*
X49600Y-28984D01*
X49581Y-28887D01*
X49526Y-28805D01*
X49444Y-28750D01*
X49381Y-28737D01*
X49467Y-28737D01*
X49508Y-28737D01*
X49547Y-28721D01*
X49576Y-28692D01*
X49591Y-28654D01*
X49591Y-28314D01*
X49576Y-28275D01*
X49547Y-28246D01*
X49516Y-28234D01*
X49547Y-28221D01*
X49576Y-28192D01*
X49591Y-28154D01*
X49591Y-28024D01*
X49565Y-27998D01*
X49158Y-27998D01*
X49158Y-28211D01*
X49180Y-28234D01*
X49158Y-28256D01*
X49158Y-28469D01*
X49565Y-28469D01*
X49591Y-28443D01*
X49591Y-28314D01*
X49591Y-28654D01*
X49591Y-28524D01*
X49565Y-28498D01*
X49158Y-28498D01*
X49158Y-28506D01*
X49129Y-28506D01*
X49129Y-28498D01*
X49129Y-28469D01*
X49129Y-28256D01*
X49106Y-28234D01*
X49129Y-28211D01*
X49129Y-27998D01*
X49129Y-27969D01*
X49129Y-27756D01*
X49106Y-27734D01*
X49129Y-27711D01*
X49129Y-27498D01*
X49129Y-27469D01*
X49129Y-27256D01*
X49106Y-27234D01*
X49129Y-27211D01*
X49129Y-26998D01*
X49129Y-26969D01*
X49129Y-26756D01*
X49103Y-26730D01*
X48819Y-26730D01*
X48778Y-26730D01*
X48740Y-26746D01*
X48711Y-26775D01*
X48695Y-26814D01*
X48695Y-26943D01*
X48721Y-26969D01*
X49129Y-26969D01*
X49129Y-26998D01*
X48721Y-26998D01*
X48695Y-27024D01*
X48695Y-27154D01*
X48711Y-27192D01*
X48740Y-27221D01*
X48770Y-27234D01*
X48740Y-27246D01*
X48711Y-27275D01*
X48695Y-27314D01*
X48695Y-27443D01*
X48721Y-27469D01*
X49129Y-27469D01*
X49129Y-27498D01*
X48721Y-27498D01*
X48695Y-27524D01*
X48695Y-27654D01*
X48711Y-27692D01*
X48740Y-27721D01*
X48770Y-27734D01*
X48740Y-27746D01*
X48711Y-27775D01*
X48695Y-27814D01*
X48695Y-27943D01*
X48721Y-27969D01*
X49129Y-27969D01*
X49129Y-27998D01*
X48721Y-27998D01*
X48695Y-28024D01*
X48695Y-28154D01*
X48711Y-28192D01*
X48740Y-28221D01*
X48770Y-28234D01*
X48740Y-28246D01*
X48711Y-28275D01*
X48695Y-28314D01*
X48695Y-28443D01*
X48721Y-28469D01*
X49129Y-28469D01*
X49129Y-28498D01*
X48721Y-28498D01*
X48695Y-28524D01*
X48695Y-28654D01*
X48711Y-28692D01*
X48740Y-28721D01*
X48778Y-28737D01*
X48819Y-28737D01*
X48906Y-28737D01*
X48843Y-28750D01*
X48760Y-28805D01*
X48705Y-28887D01*
X48686Y-28984D01*
X48705Y-29081D01*
X48760Y-29163D01*
X48843Y-29218D01*
X48940Y-29237D01*
X49045Y-29237D01*
X49136Y-29328D01*
X49136Y-29371D01*
X49061Y-29446D01*
X48275Y-29446D01*
X48228Y-29446D01*
X48228Y-26054D01*
X48228Y-25604D01*
X48212Y-25566D01*
X48183Y-25537D01*
X48145Y-25521D01*
X48104Y-25521D01*
X47854Y-25521D01*
X47816Y-25537D01*
X47787Y-25566D01*
X47771Y-25604D01*
X47771Y-25645D01*
X47771Y-25696D01*
X47478Y-25696D01*
X47478Y-25604D01*
X47462Y-25566D01*
X47448Y-25551D01*
X47448Y-24411D01*
X47380Y-24246D01*
X47254Y-24120D01*
X47089Y-24051D01*
X46911Y-24051D01*
X46746Y-24119D01*
X46620Y-24245D01*
X46551Y-24410D01*
X46551Y-24588D01*
X46619Y-24753D01*
X46745Y-24879D01*
X46910Y-24948D01*
X47088Y-24948D01*
X47253Y-24880D01*
X47379Y-24754D01*
X47448Y-24589D01*
X47448Y-24411D01*
X47448Y-25551D01*
X47433Y-25537D01*
X47395Y-25521D01*
X47354Y-25521D01*
X47104Y-25521D01*
X47066Y-25537D01*
X47037Y-25566D01*
X47021Y-25604D01*
X47021Y-25645D01*
X47021Y-26095D01*
X47037Y-26133D01*
X47066Y-26162D01*
X47104Y-26178D01*
X47145Y-26178D01*
X47395Y-26178D01*
X47433Y-26162D01*
X47462Y-26133D01*
X47478Y-26095D01*
X47478Y-26054D01*
X47478Y-26003D01*
X47771Y-26003D01*
X47771Y-26095D01*
X47787Y-26133D01*
X47816Y-26162D01*
X47854Y-26178D01*
X47895Y-26178D01*
X48145Y-26178D01*
X48183Y-26162D01*
X48212Y-26133D01*
X48228Y-26095D01*
X48228Y-26054D01*
X48228Y-29446D01*
X48195Y-29446D01*
X48195Y-27881D01*
X48105Y-27662D01*
X47937Y-27495D01*
X47719Y-27404D01*
X47481Y-27404D01*
X47262Y-27494D01*
X47095Y-27662D01*
X47004Y-27880D01*
X47004Y-28118D01*
X47094Y-28337D01*
X47262Y-28504D01*
X47480Y-28595D01*
X47718Y-28595D01*
X47937Y-28505D01*
X48104Y-28337D01*
X48195Y-28119D01*
X48195Y-27881D01*
X48195Y-29446D01*
X47108Y-29446D01*
X47060Y-29397D01*
X46972Y-29361D01*
X46903Y-29361D01*
X46878Y-29336D01*
X46878Y-26054D01*
X46878Y-25645D01*
X46878Y-25604D01*
X46862Y-25566D01*
X46833Y-25537D01*
X46795Y-25521D01*
X46690Y-25521D01*
X46664Y-25547D01*
X46664Y-25835D01*
X46852Y-25835D01*
X46878Y-25809D01*
X46878Y-25645D01*
X46878Y-26054D01*
X46878Y-25890D01*
X46852Y-25864D01*
X46664Y-25864D01*
X46664Y-26152D01*
X46690Y-26178D01*
X46795Y-26178D01*
X46833Y-26162D01*
X46862Y-26133D01*
X46878Y-26095D01*
X46878Y-26054D01*
X46878Y-29336D01*
X46813Y-29271D01*
X46813Y-29202D01*
X46777Y-29114D01*
X46710Y-29047D01*
X46622Y-29011D01*
X46527Y-29011D01*
X46439Y-29047D01*
X46372Y-29114D01*
X46344Y-29182D01*
X46333Y-29166D01*
X46313Y-29146D01*
X46313Y-29077D01*
X46290Y-29020D01*
X46335Y-29002D01*
X46402Y-28935D01*
X46438Y-28847D01*
X46438Y-28752D01*
X46402Y-28664D01*
X46353Y-28616D01*
X46353Y-27063D01*
X46450Y-26966D01*
X46479Y-26978D01*
X46520Y-26978D01*
X46770Y-26978D01*
X46808Y-26962D01*
X46837Y-26933D01*
X46853Y-26895D01*
X46853Y-26854D01*
X46853Y-26404D01*
X46837Y-26366D01*
X46808Y-26337D01*
X46770Y-26321D01*
X46729Y-26321D01*
X46635Y-26321D01*
X46635Y-26152D01*
X46635Y-25864D01*
X46635Y-25835D01*
X46635Y-25547D01*
X46609Y-25521D01*
X46504Y-25521D01*
X46466Y-25537D01*
X46448Y-25554D01*
X46448Y-24411D01*
X46380Y-24246D01*
X46254Y-24120D01*
X46089Y-24051D01*
X45911Y-24051D01*
X45746Y-24119D01*
X45620Y-24245D01*
X45551Y-24410D01*
X45551Y-24588D01*
X45619Y-24753D01*
X45745Y-24879D01*
X45910Y-24948D01*
X46088Y-24948D01*
X46253Y-24880D01*
X46379Y-24754D01*
X46448Y-24589D01*
X46448Y-24411D01*
X46448Y-25554D01*
X46437Y-25566D01*
X46421Y-25604D01*
X46421Y-25645D01*
X46421Y-25809D01*
X46447Y-25835D01*
X46635Y-25835D01*
X46635Y-25864D01*
X46447Y-25864D01*
X46421Y-25890D01*
X46421Y-26054D01*
X46421Y-26095D01*
X46437Y-26133D01*
X46466Y-26162D01*
X46504Y-26178D01*
X46609Y-26178D01*
X46635Y-26152D01*
X46635Y-26321D01*
X46479Y-26321D01*
X46441Y-26337D01*
X46412Y-26366D01*
X46396Y-26404D01*
X46396Y-26445D01*
X46396Y-26586D01*
X46253Y-26728D01*
X46253Y-26404D01*
X46237Y-26366D01*
X46208Y-26337D01*
X46170Y-26321D01*
X46129Y-26321D01*
X45879Y-26321D01*
X45841Y-26337D01*
X45812Y-26366D01*
X45803Y-26386D01*
X45803Y-26100D01*
X45803Y-26099D01*
X45799Y-26078D01*
X46045Y-26078D01*
X46083Y-26062D01*
X46112Y-26033D01*
X46128Y-25995D01*
X46128Y-25954D01*
X46128Y-25504D01*
X46112Y-25466D01*
X46083Y-25437D01*
X46053Y-25424D01*
X46053Y-25400D01*
X46042Y-25341D01*
X46008Y-25291D01*
X45406Y-24689D01*
X45448Y-24589D01*
X45448Y-24411D01*
X45380Y-24246D01*
X45254Y-24120D01*
X45089Y-24051D01*
X44911Y-24051D01*
X44746Y-24119D01*
X44620Y-24245D01*
X44551Y-24410D01*
X44551Y-24588D01*
X44619Y-24753D01*
X44745Y-24879D01*
X44910Y-24948D01*
X45088Y-24948D01*
X45189Y-24906D01*
X45718Y-25436D01*
X45716Y-25437D01*
X45687Y-25466D01*
X45671Y-25504D01*
X45671Y-25545D01*
X45671Y-25903D01*
X45528Y-25761D01*
X45528Y-25504D01*
X45512Y-25466D01*
X45483Y-25437D01*
X45445Y-25421D01*
X45404Y-25421D01*
X45154Y-25421D01*
X45116Y-25437D01*
X45087Y-25466D01*
X45071Y-25504D01*
X45071Y-25545D01*
X45071Y-25995D01*
X45087Y-26033D01*
X45116Y-26062D01*
X45154Y-26078D01*
X45195Y-26078D01*
X45411Y-26078D01*
X45496Y-26163D01*
X45496Y-27175D01*
X45507Y-27233D01*
X45541Y-27283D01*
X45563Y-27305D01*
X45529Y-27305D01*
X45397Y-27305D01*
X45397Y-27213D01*
X45397Y-26345D01*
X45381Y-26307D01*
X45352Y-26278D01*
X45314Y-26262D01*
X45273Y-26262D01*
X45019Y-26262D01*
X44993Y-26288D01*
X44993Y-26765D01*
X45371Y-26765D01*
X45397Y-26739D01*
X45397Y-26345D01*
X45397Y-27213D01*
X45397Y-26819D01*
X45371Y-26793D01*
X44993Y-26793D01*
X44993Y-27270D01*
X45019Y-27296D01*
X45273Y-27296D01*
X45314Y-27296D01*
X45352Y-27280D01*
X45381Y-27251D01*
X45397Y-27213D01*
X45397Y-27305D01*
X45196Y-27305D01*
X45170Y-27331D01*
X45170Y-27473D01*
X45178Y-27473D01*
X45178Y-27502D01*
X45170Y-27502D01*
X45170Y-27510D01*
X45141Y-27510D01*
X45141Y-27502D01*
X45141Y-27473D01*
X45141Y-27331D01*
X45115Y-27305D01*
X44964Y-27305D01*
X44964Y-27270D01*
X44964Y-26793D01*
X44964Y-26765D01*
X44964Y-26288D01*
X44938Y-26262D01*
X44684Y-26262D01*
X44643Y-26262D01*
X44605Y-26278D01*
X44575Y-26307D01*
X44560Y-26345D01*
X44560Y-26739D01*
X44586Y-26765D01*
X44964Y-26765D01*
X44964Y-26793D01*
X44586Y-26793D01*
X44560Y-26819D01*
X44560Y-27213D01*
X44575Y-27251D01*
X44605Y-27280D01*
X44643Y-27296D01*
X44684Y-27296D01*
X44938Y-27296D01*
X44964Y-27270D01*
X44964Y-27305D01*
X44782Y-27305D01*
X44741Y-27305D01*
X44703Y-27321D01*
X44674Y-27350D01*
X44658Y-27388D01*
X44658Y-27447D01*
X44684Y-27473D01*
X45141Y-27473D01*
X45141Y-27502D01*
X44684Y-27502D01*
X44658Y-27528D01*
X44658Y-27587D01*
X44670Y-27616D01*
X44658Y-27644D01*
X44658Y-27685D01*
X44658Y-27843D01*
X44670Y-27872D01*
X44658Y-27900D01*
X44658Y-27941D01*
X44658Y-28099D01*
X44670Y-28127D01*
X44658Y-28156D01*
X44658Y-28197D01*
X44658Y-28355D01*
X44670Y-28383D01*
X44658Y-28412D01*
X44658Y-28453D01*
X44658Y-28611D01*
X44674Y-28649D01*
X44703Y-28678D01*
X44741Y-28694D01*
X44782Y-28694D01*
X45343Y-28694D01*
X45328Y-28709D01*
X45314Y-28703D01*
X45273Y-28703D01*
X45019Y-28703D01*
X44993Y-28729D01*
X44993Y-29206D01*
X45371Y-29206D01*
X45397Y-29180D01*
X45397Y-29055D01*
X45477Y-29088D01*
X45572Y-29088D01*
X45646Y-29058D01*
X45646Y-29271D01*
X45479Y-29271D01*
X45441Y-29287D01*
X45412Y-29316D01*
X45397Y-29350D01*
X45397Y-29260D01*
X45371Y-29234D01*
X44993Y-29234D01*
X44993Y-29711D01*
X45019Y-29737D01*
X45273Y-29737D01*
X45314Y-29737D01*
X45352Y-29721D01*
X45381Y-29692D01*
X45396Y-29657D01*
X45396Y-29845D01*
X45402Y-29861D01*
X45377Y-29861D01*
X45289Y-29897D01*
X45222Y-29964D01*
X45186Y-30052D01*
X45186Y-30121D01*
X45086Y-30221D01*
X44964Y-30221D01*
X44964Y-29711D01*
X44964Y-29234D01*
X44964Y-29206D01*
X44964Y-28729D01*
X44938Y-28703D01*
X44684Y-28703D01*
X44643Y-28703D01*
X44605Y-28719D01*
X44575Y-28748D01*
X44560Y-28786D01*
X44560Y-29180D01*
X44586Y-29206D01*
X44964Y-29206D01*
X44964Y-29234D01*
X44586Y-29234D01*
X44560Y-29260D01*
X44560Y-29654D01*
X44575Y-29692D01*
X44605Y-29721D01*
X44643Y-29737D01*
X44684Y-29737D01*
X44938Y-29737D01*
X44964Y-29711D01*
X44964Y-30221D01*
X44675Y-30221D01*
X44616Y-30232D01*
X44566Y-30266D01*
X44532Y-30316D01*
X44521Y-30375D01*
X44521Y-30761D01*
X44452Y-30829D01*
X44452Y-29870D01*
X44452Y-29121D01*
X44452Y-28867D01*
X44452Y-28077D01*
X44437Y-28039D01*
X44407Y-28010D01*
X44382Y-28000D01*
X44407Y-27989D01*
X44437Y-27960D01*
X44452Y-27922D01*
X44452Y-27132D01*
X44452Y-26878D01*
X44452Y-26129D01*
X44448Y-26119D01*
X44448Y-24414D01*
X44381Y-24249D01*
X44377Y-24243D01*
X44314Y-24205D01*
X44020Y-24500D01*
X44314Y-24794D01*
X44377Y-24756D01*
X44447Y-24592D01*
X44448Y-24414D01*
X44448Y-26119D01*
X44437Y-26090D01*
X44407Y-26061D01*
X44369Y-26045D01*
X44328Y-26045D01*
X44294Y-26045D01*
X44294Y-24814D01*
X44000Y-24520D01*
X43705Y-24814D01*
X43743Y-24877D01*
X43907Y-24947D01*
X44085Y-24948D01*
X44250Y-24881D01*
X44256Y-24877D01*
X44294Y-24814D01*
X44294Y-26045D01*
X44015Y-26045D01*
X43989Y-26071D01*
X43989Y-26489D01*
X44426Y-26489D01*
X44452Y-26463D01*
X44452Y-26129D01*
X44452Y-26878D01*
X44452Y-26544D01*
X44426Y-26518D01*
X43989Y-26518D01*
X43989Y-26936D01*
X44015Y-26962D01*
X44328Y-26962D01*
X44369Y-26961D01*
X44407Y-26946D01*
X44437Y-26916D01*
X44452Y-26878D01*
X44452Y-27132D01*
X44437Y-27094D01*
X44407Y-27065D01*
X44369Y-27049D01*
X44328Y-27049D01*
X44015Y-27049D01*
X43989Y-27075D01*
X43989Y-27513D01*
X44426Y-27513D01*
X44452Y-27487D01*
X44452Y-27132D01*
X44452Y-27922D01*
X44452Y-27567D01*
X44426Y-27541D01*
X43989Y-27541D01*
X43989Y-27979D01*
X44009Y-28000D01*
X43989Y-28020D01*
X43989Y-28458D01*
X44426Y-28458D01*
X44452Y-28432D01*
X44452Y-28077D01*
X44452Y-28867D01*
X44452Y-28512D01*
X44426Y-28486D01*
X43989Y-28486D01*
X43989Y-28924D01*
X44015Y-28950D01*
X44328Y-28950D01*
X44369Y-28950D01*
X44407Y-28934D01*
X44437Y-28905D01*
X44452Y-28867D01*
X44452Y-29121D01*
X44437Y-29083D01*
X44407Y-29053D01*
X44369Y-29038D01*
X44328Y-29037D01*
X44015Y-29037D01*
X43989Y-29063D01*
X43989Y-29481D01*
X44426Y-29481D01*
X44452Y-29455D01*
X44452Y-29121D01*
X44452Y-29870D01*
X44452Y-29536D01*
X44426Y-29510D01*
X43989Y-29510D01*
X43989Y-29928D01*
X44015Y-29954D01*
X44328Y-29954D01*
X44369Y-29954D01*
X44407Y-29938D01*
X44437Y-29909D01*
X44452Y-29870D01*
X44452Y-30829D01*
X44189Y-31093D01*
X44089Y-31051D01*
X43911Y-31051D01*
X43746Y-31119D01*
X43620Y-31245D01*
X43551Y-31410D01*
X43551Y-31579D01*
X43533Y-31486D01*
X43533Y-29929D01*
X43542Y-29938D01*
X43580Y-29954D01*
X43621Y-29954D01*
X43934Y-29954D01*
X43960Y-29928D01*
X43960Y-29510D01*
X43952Y-29510D01*
X43952Y-29481D01*
X43960Y-29481D01*
X43960Y-29063D01*
X43934Y-29037D01*
X43621Y-29037D01*
X43580Y-29038D01*
X43542Y-29053D01*
X43533Y-29062D01*
X43533Y-28925D01*
X43542Y-28934D01*
X43580Y-28950D01*
X43621Y-28950D01*
X43934Y-28950D01*
X43960Y-28924D01*
X43960Y-28486D01*
X43952Y-28486D01*
X43952Y-28458D01*
X43960Y-28458D01*
X43960Y-28020D01*
X43940Y-28000D01*
X43960Y-27979D01*
X43960Y-27541D01*
X43952Y-27541D01*
X43952Y-27513D01*
X43960Y-27513D01*
X43960Y-27075D01*
X43934Y-27049D01*
X43621Y-27049D01*
X43580Y-27049D01*
X43542Y-27065D01*
X43533Y-27074D01*
X43533Y-26937D01*
X43542Y-26946D01*
X43580Y-26961D01*
X43621Y-26962D01*
X43934Y-26962D01*
X43960Y-26936D01*
X43960Y-26518D01*
X43952Y-26518D01*
X43952Y-26489D01*
X43960Y-26489D01*
X43960Y-26071D01*
X43934Y-26045D01*
X43621Y-26045D01*
X43580Y-26045D01*
X43542Y-26061D01*
X43533Y-26070D01*
X43533Y-24513D01*
X43552Y-24417D01*
X43551Y-24585D01*
X43618Y-24750D01*
X43622Y-24756D01*
X43685Y-24794D01*
X43979Y-24500D01*
X43685Y-24205D01*
X43625Y-24241D01*
X43671Y-24172D01*
X43740Y-24125D01*
X43705Y-24185D01*
X44000Y-24479D01*
X44294Y-24185D01*
X44256Y-24122D01*
X44092Y-24052D01*
X43922Y-24051D01*
X44012Y-24033D01*
X51986Y-24033D01*
X52079Y-24051D01*
X51911Y-24051D01*
X51746Y-24119D01*
X51620Y-24245D01*
X51551Y-24410D01*
X51551Y-24588D01*
X51619Y-24753D01*
X51745Y-24879D01*
X51910Y-24948D01*
X52088Y-24948D01*
X52253Y-24880D01*
X52379Y-24754D01*
X52448Y-24589D01*
X52448Y-24419D01*
X52466Y-24512D01*
X52466Y-31487D01*
M02*
