G04 (created by PCBNEW (2013-07-07 BZR 4022)-stable) date 1/21/2014 13:57:26*
%MOIN*%
G04 Gerber Fmt 3.4, Leading zero omitted, Abs format*
%FSLAX34Y34*%
G01*
G70*
G90*
G04 APERTURE LIST*
%ADD10C,0.00590551*%
%ADD11C,0.005*%
%ADD12C,0.00492126*%
%ADD13C,0.0045*%
G04 APERTURE END LIST*
G54D10*
G54D11*
X45875Y-26900D02*
X46775Y-26900D01*
X46775Y-26900D02*
X46775Y-26400D01*
X46775Y-26400D02*
X45875Y-26400D01*
X45875Y-26400D02*
X45875Y-26900D01*
X45475Y-29850D02*
X46375Y-29850D01*
X46375Y-29850D02*
X46375Y-29350D01*
X46375Y-29350D02*
X45475Y-29350D01*
X45475Y-29350D02*
X45475Y-29850D01*
X45150Y-26000D02*
X46050Y-26000D01*
X46050Y-26000D02*
X46050Y-25500D01*
X46050Y-25500D02*
X45150Y-25500D01*
X45150Y-25500D02*
X45150Y-26000D01*
X47400Y-25600D02*
X46500Y-25600D01*
X46500Y-25600D02*
X46500Y-26100D01*
X46500Y-26100D02*
X47400Y-26100D01*
X47400Y-26100D02*
X47400Y-25600D01*
X48750Y-25600D02*
X47850Y-25600D01*
X47850Y-25600D02*
X47850Y-26100D01*
X47850Y-26100D02*
X48750Y-26100D01*
X48750Y-26100D02*
X48750Y-25600D01*
X45625Y-30825D02*
X46525Y-30825D01*
X46525Y-30825D02*
X46525Y-30325D01*
X46525Y-30325D02*
X45625Y-30325D01*
X45625Y-30325D02*
X45625Y-30825D01*
X48400Y-29825D02*
X47500Y-29825D01*
X47500Y-29825D02*
X47500Y-30325D01*
X47500Y-30325D02*
X48400Y-30325D01*
X48400Y-30325D02*
X48400Y-29825D01*
G54D12*
X50314Y-25307D02*
X50314Y-25448D01*
X50323Y-25476D01*
X50342Y-25495D01*
X50370Y-25504D01*
X50389Y-25504D01*
X50220Y-25504D02*
X50220Y-25307D01*
X50145Y-25307D01*
X50126Y-25317D01*
X50117Y-25326D01*
X50107Y-25345D01*
X50107Y-25373D01*
X50117Y-25392D01*
X50126Y-25401D01*
X50145Y-25410D01*
X50220Y-25410D01*
X49920Y-25504D02*
X50032Y-25504D01*
X49976Y-25504D02*
X49976Y-25307D01*
X49995Y-25335D01*
X50014Y-25354D01*
X50032Y-25364D01*
G54D13*
X45955Y-27230D02*
X46015Y-27135D01*
X46057Y-27230D02*
X46057Y-27030D01*
X45989Y-27030D01*
X45972Y-27040D01*
X45963Y-27050D01*
X45955Y-27069D01*
X45955Y-27097D01*
X45963Y-27116D01*
X45972Y-27126D01*
X45989Y-27135D01*
X46057Y-27135D01*
X45783Y-27230D02*
X45886Y-27230D01*
X45835Y-27230D02*
X45835Y-27030D01*
X45852Y-27059D01*
X45869Y-27078D01*
X45886Y-27088D01*
X45955Y-30130D02*
X46015Y-30035D01*
X46057Y-30130D02*
X46057Y-29930D01*
X45989Y-29930D01*
X45972Y-29940D01*
X45963Y-29950D01*
X45955Y-29969D01*
X45955Y-29997D01*
X45963Y-30016D01*
X45972Y-30026D01*
X45989Y-30035D01*
X46057Y-30035D01*
X45886Y-29950D02*
X45877Y-29940D01*
X45860Y-29930D01*
X45817Y-29930D01*
X45800Y-29940D01*
X45792Y-29950D01*
X45783Y-29969D01*
X45783Y-29988D01*
X45792Y-30016D01*
X45895Y-30130D01*
X45783Y-30130D01*
X44930Y-25755D02*
X44990Y-25660D01*
X45032Y-25755D02*
X45032Y-25555D01*
X44964Y-25555D01*
X44947Y-25565D01*
X44938Y-25575D01*
X44930Y-25594D01*
X44930Y-25622D01*
X44938Y-25641D01*
X44947Y-25651D01*
X44964Y-25660D01*
X45032Y-25660D01*
X44870Y-25555D02*
X44758Y-25555D01*
X44818Y-25632D01*
X44792Y-25632D01*
X44775Y-25641D01*
X44767Y-25651D01*
X44758Y-25670D01*
X44758Y-25717D01*
X44767Y-25736D01*
X44775Y-25746D01*
X44792Y-25755D01*
X44844Y-25755D01*
X44861Y-25746D01*
X44870Y-25736D01*
X47380Y-25530D02*
X47440Y-25435D01*
X47482Y-25530D02*
X47482Y-25330D01*
X47414Y-25330D01*
X47397Y-25340D01*
X47388Y-25350D01*
X47380Y-25369D01*
X47380Y-25397D01*
X47388Y-25416D01*
X47397Y-25426D01*
X47414Y-25435D01*
X47482Y-25435D01*
X47225Y-25397D02*
X47225Y-25530D01*
X47268Y-25321D02*
X47311Y-25464D01*
X47200Y-25464D01*
X48832Y-25505D02*
X48832Y-25305D01*
X48790Y-25305D01*
X48764Y-25315D01*
X48747Y-25334D01*
X48738Y-25353D01*
X48730Y-25391D01*
X48730Y-25420D01*
X48738Y-25458D01*
X48747Y-25477D01*
X48764Y-25496D01*
X48790Y-25505D01*
X48832Y-25505D01*
X48558Y-25505D02*
X48661Y-25505D01*
X48610Y-25505D02*
X48610Y-25305D01*
X48627Y-25334D01*
X48644Y-25353D01*
X48661Y-25363D01*
G54D10*
X50106Y-29165D02*
X50106Y-29446D01*
X50124Y-29503D01*
X50162Y-29540D01*
X50218Y-29559D01*
X50256Y-29559D01*
X49937Y-29203D02*
X49918Y-29184D01*
X49881Y-29165D01*
X49787Y-29165D01*
X49750Y-29184D01*
X49731Y-29203D01*
X49712Y-29240D01*
X49712Y-29278D01*
X49731Y-29334D01*
X49956Y-29559D01*
X49712Y-29559D01*
G54D13*
X46805Y-30411D02*
X46813Y-30421D01*
X46839Y-30430D01*
X46856Y-30430D01*
X46882Y-30421D01*
X46899Y-30402D01*
X46907Y-30383D01*
X46916Y-30345D01*
X46916Y-30316D01*
X46907Y-30278D01*
X46899Y-30259D01*
X46882Y-30240D01*
X46856Y-30230D01*
X46839Y-30230D01*
X46813Y-30240D01*
X46805Y-30250D01*
X46633Y-30430D02*
X46736Y-30430D01*
X46685Y-30430D02*
X46685Y-30230D01*
X46702Y-30259D01*
X46719Y-30278D01*
X46736Y-30288D01*
X48680Y-30136D02*
X48688Y-30146D01*
X48714Y-30155D01*
X48731Y-30155D01*
X48757Y-30146D01*
X48774Y-30127D01*
X48782Y-30108D01*
X48791Y-30070D01*
X48791Y-30041D01*
X48782Y-30003D01*
X48774Y-29984D01*
X48757Y-29965D01*
X48731Y-29955D01*
X48714Y-29955D01*
X48688Y-29965D01*
X48680Y-29975D01*
X48611Y-29975D02*
X48602Y-29965D01*
X48585Y-29955D01*
X48542Y-29955D01*
X48525Y-29965D01*
X48517Y-29975D01*
X48508Y-29994D01*
X48508Y-30013D01*
X48517Y-30041D01*
X48620Y-30155D01*
X48508Y-30155D01*
M02*
