G04 (created by PCBNEW (2013-07-07 BZR 4022)-stable) date 10/25/2013 1:54:40 PM*
%MOIN*%
G04 Gerber Fmt 3.4, Leading zero omitted, Abs format*
%FSLAX34Y34*%
G01*
G70*
G90*
G04 APERTURE LIST*
%ADD10C,0.00590551*%
%ADD11C,0.0688976*%
%ADD12R,0.0944882X0.0669291*%
%ADD13R,0.0748031X0.0905512*%
%ADD14R,0.0748031X0.0698819*%
%ADD15R,0.0551181X0.015748*%
%ADD16R,0.025X0.045*%
%ADD17R,0.0314X0.0314*%
%ADD18R,0.0787402X0.0393701*%
%ADD19R,0.045X0.025*%
G04 APERTURE END LIST*
G54D10*
G54D11*
X54000Y-24500D03*
X53000Y-31500D03*
X54000Y-31500D03*
X55000Y-31500D03*
X56000Y-31500D03*
X57000Y-31500D03*
X57000Y-30500D03*
X57000Y-29500D03*
X57000Y-28500D03*
X57000Y-27500D03*
X57000Y-26500D03*
X57000Y-25500D03*
X57000Y-24500D03*
X56000Y-24500D03*
X55000Y-24500D03*
X52000Y-31500D03*
X53000Y-24500D03*
X52000Y-24500D03*
X51000Y-24500D03*
X50000Y-24500D03*
X49000Y-24500D03*
X48000Y-24500D03*
X47000Y-24500D03*
X46000Y-24500D03*
X45000Y-24500D03*
X44000Y-31500D03*
X44000Y-24500D03*
X51000Y-31500D03*
X50000Y-31500D03*
X49000Y-31500D03*
X48000Y-31500D03*
X47000Y-31500D03*
G54D12*
X53200Y-27271D03*
X53200Y-28728D03*
G54D13*
X44200Y-29476D03*
X44200Y-26523D03*
G54D14*
X44200Y-28403D03*
X44200Y-27596D03*
G54D15*
X45322Y-28511D03*
X45322Y-28255D03*
X45322Y-28000D03*
X45322Y-27744D03*
X45322Y-27488D03*
G54D16*
X53000Y-29600D03*
X52400Y-29600D03*
X53000Y-26400D03*
X52400Y-26400D03*
G54D17*
X50695Y-25900D03*
X50105Y-25900D03*
G54D10*
G36*
X51352Y-26646D02*
X51253Y-26253D01*
X51746Y-26253D01*
X51647Y-26646D01*
X51352Y-26646D01*
X51352Y-26646D01*
G37*
G36*
X51253Y-26146D02*
X51352Y-25753D01*
X51647Y-25753D01*
X51746Y-26146D01*
X51253Y-26146D01*
X51253Y-26146D01*
G37*
G54D11*
X45000Y-31500D03*
X46000Y-31500D03*
G54D16*
X46650Y-27000D03*
X47250Y-27000D03*
X47050Y-27800D03*
X47650Y-27800D03*
X46250Y-26200D03*
X46850Y-26200D03*
X49400Y-25900D03*
X48800Y-25900D03*
G54D18*
X55800Y-29600D03*
X55800Y-28000D03*
X55800Y-26400D03*
X55800Y-27200D03*
X55800Y-28800D03*
G54D16*
X54700Y-25500D03*
X55300Y-25500D03*
X45750Y-30000D03*
X46350Y-30000D03*
G54D19*
X54200Y-30050D03*
X54200Y-30650D03*
X54200Y-28000D03*
X54200Y-27400D03*
G54D10*
G36*
X51000Y-28946D02*
X50053Y-28000D01*
X51000Y-27053D01*
X51946Y-28000D01*
X51000Y-28946D01*
X51000Y-28946D01*
G37*
M02*
