G04 (created by PCBNEW (2013-07-07 BZR 4022)-stable) date 1/21/2014 13:57:26*
%MOIN*%
G04 Gerber Fmt 3.4, Leading zero omitted, Abs format*
%FSLAX34Y34*%
G01*
G70*
G90*
G04 APERTURE LIST*
%ADD10C,0.00590551*%
%ADD11C,0.0688976*%
%ADD12R,0.025X0.045*%
%ADD13O,0.0688976X0.0299213*%
%ADD14R,0.0688976X0.0299213*%
%ADD15R,0.0748031X0.0748031*%
%ADD16R,0.0748031X0.0708661*%
%ADD17R,0.0629921X0.0826772*%
%ADD18R,0.0787402X0.015748*%
G04 APERTURE END LIST*
G54D10*
G54D11*
X52000Y-26500D03*
X46000Y-31500D03*
X47000Y-31500D03*
X48000Y-31500D03*
X49000Y-31500D03*
X50000Y-31500D03*
X51000Y-31500D03*
X52000Y-31500D03*
X52000Y-30500D03*
X52000Y-29500D03*
X52000Y-28500D03*
X52000Y-27500D03*
X52000Y-25500D03*
X52000Y-24500D03*
X51000Y-24500D03*
X50000Y-24500D03*
X49000Y-24500D03*
X48000Y-24500D03*
X47000Y-24500D03*
X46000Y-24500D03*
X45000Y-24500D03*
X44000Y-31500D03*
X44000Y-24500D03*
G54D10*
G36*
X50096Y-25997D02*
X49703Y-26096D01*
X49703Y-25603D01*
X50096Y-25702D01*
X50096Y-25997D01*
X50096Y-25997D01*
G37*
G36*
X49596Y-26096D02*
X49203Y-25997D01*
X49203Y-25702D01*
X49596Y-25603D01*
X49596Y-26096D01*
X49596Y-26096D01*
G37*
G54D11*
X45000Y-31500D03*
G54D12*
X46025Y-26650D03*
X46625Y-26650D03*
X45625Y-29600D03*
X46225Y-29600D03*
X45300Y-25750D03*
X45900Y-25750D03*
X47250Y-25850D03*
X46650Y-25850D03*
X48600Y-25850D03*
X48000Y-25850D03*
G54D13*
X49143Y-28984D03*
G54D14*
X50856Y-28984D03*
X49143Y-28484D03*
X50856Y-28484D03*
X49143Y-27984D03*
X50856Y-27984D03*
X49143Y-27484D03*
X50856Y-27484D03*
X49143Y-26984D03*
X50856Y-26984D03*
G54D15*
X43975Y-27527D03*
X43975Y-28472D03*
G54D16*
X43975Y-26503D03*
X43975Y-29496D03*
G54D17*
X44978Y-29220D03*
X44978Y-26779D03*
G54D18*
X45156Y-28255D03*
X45156Y-28000D03*
X45156Y-27744D03*
X45156Y-27488D03*
X45156Y-28511D03*
G54D12*
X45775Y-30575D03*
X46375Y-30575D03*
X48250Y-30075D03*
X47650Y-30075D03*
M02*
