G04 (created by PCBNEW (2013-07-07 BZR 4022)-stable) date 10/25/2013 1:54:40 PM*
%MOIN*%
G04 Gerber Fmt 3.4, Leading zero omitted, Abs format*
%FSLAX34Y34*%
G01*
G70*
G90*
G04 APERTURE LIST*
%ADD10C,0.00590551*%
%ADD11C,0.00984252*%
%ADD12C,0.00787402*%
G04 APERTURE END LIST*
G54D10*
G54D11*
X44275Y-26859D02*
X44275Y-26465D01*
X44406Y-26746D01*
X44537Y-26465D01*
X44537Y-26859D01*
X44725Y-26859D02*
X44725Y-26465D01*
X44950Y-26859D02*
X44781Y-26634D01*
X44950Y-26465D02*
X44725Y-26690D01*
X45306Y-26859D02*
X45118Y-26859D01*
X45118Y-26465D01*
X45418Y-26503D02*
X45437Y-26484D01*
X45475Y-26465D01*
X45568Y-26465D01*
X45606Y-26484D01*
X45625Y-26503D01*
X45643Y-26540D01*
X45643Y-26578D01*
X45625Y-26634D01*
X45400Y-26859D01*
X45643Y-26859D01*
X45981Y-26596D02*
X45981Y-26859D01*
X45887Y-26446D02*
X45793Y-26728D01*
X46037Y-26728D01*
X46150Y-26465D02*
X46412Y-26465D01*
X46150Y-26859D01*
X46412Y-26859D01*
X46731Y-26465D02*
X46656Y-26465D01*
X46618Y-26484D01*
X46599Y-26503D01*
X46562Y-26559D01*
X46543Y-26634D01*
X46543Y-26784D01*
X46562Y-26821D01*
X46581Y-26840D01*
X46618Y-26859D01*
X46693Y-26859D01*
X46731Y-26840D01*
X46749Y-26821D01*
X46768Y-26784D01*
X46768Y-26690D01*
X46749Y-26653D01*
X46731Y-26634D01*
X46693Y-26615D01*
X46618Y-26615D01*
X46581Y-26634D01*
X46562Y-26653D01*
X46543Y-26690D01*
X47106Y-26596D02*
X47106Y-26859D01*
X47012Y-26446D02*
X46918Y-26728D01*
X47162Y-26728D01*
X47256Y-26465D02*
X47387Y-26859D01*
X47518Y-26465D01*
X47781Y-26653D02*
X47649Y-26653D01*
X47649Y-26859D02*
X47649Y-26465D01*
X47837Y-26465D01*
X47987Y-26859D02*
X47987Y-26465D01*
X48118Y-26746D01*
X48249Y-26465D01*
X48249Y-26859D01*
X48605Y-26596D02*
X48605Y-26859D01*
X48512Y-26446D02*
X48418Y-26728D01*
X48662Y-26728D01*
X45381Y-27302D02*
X45437Y-27321D01*
X45456Y-27340D01*
X45475Y-27377D01*
X45475Y-27433D01*
X45456Y-27471D01*
X45437Y-27490D01*
X45400Y-27508D01*
X45250Y-27508D01*
X45250Y-27115D01*
X45381Y-27115D01*
X45418Y-27134D01*
X45437Y-27152D01*
X45456Y-27190D01*
X45456Y-27227D01*
X45437Y-27265D01*
X45418Y-27283D01*
X45381Y-27302D01*
X45250Y-27302D01*
X45643Y-27508D02*
X45643Y-27246D01*
X45643Y-27321D02*
X45662Y-27283D01*
X45681Y-27265D01*
X45718Y-27246D01*
X45756Y-27246D01*
X46037Y-27490D02*
X46000Y-27508D01*
X45925Y-27508D01*
X45887Y-27490D01*
X45868Y-27452D01*
X45868Y-27302D01*
X45887Y-27265D01*
X45925Y-27246D01*
X46000Y-27246D01*
X46037Y-27265D01*
X46056Y-27302D01*
X46056Y-27340D01*
X45868Y-27377D01*
X46393Y-27508D02*
X46393Y-27302D01*
X46375Y-27265D01*
X46337Y-27246D01*
X46262Y-27246D01*
X46225Y-27265D01*
X46393Y-27490D02*
X46356Y-27508D01*
X46262Y-27508D01*
X46225Y-27490D01*
X46206Y-27452D01*
X46206Y-27415D01*
X46225Y-27377D01*
X46262Y-27358D01*
X46356Y-27358D01*
X46393Y-27340D01*
X46581Y-27508D02*
X46581Y-27115D01*
X46618Y-27358D02*
X46731Y-27508D01*
X46731Y-27246D02*
X46581Y-27396D01*
X46956Y-27508D02*
X46918Y-27490D01*
X46899Y-27471D01*
X46881Y-27433D01*
X46881Y-27321D01*
X46899Y-27283D01*
X46918Y-27265D01*
X46956Y-27246D01*
X47012Y-27246D01*
X47049Y-27265D01*
X47068Y-27283D01*
X47087Y-27321D01*
X47087Y-27433D01*
X47068Y-27471D01*
X47049Y-27490D01*
X47012Y-27508D01*
X46956Y-27508D01*
X47424Y-27246D02*
X47424Y-27508D01*
X47256Y-27246D02*
X47256Y-27452D01*
X47274Y-27490D01*
X47312Y-27508D01*
X47368Y-27508D01*
X47406Y-27490D01*
X47424Y-27471D01*
X47556Y-27246D02*
X47706Y-27246D01*
X47612Y-27115D02*
X47612Y-27452D01*
X47631Y-27490D01*
X47668Y-27508D01*
X47706Y-27508D01*
X45887Y-27896D02*
X45981Y-28158D01*
X46075Y-27896D01*
X46300Y-27764D02*
X46337Y-27764D01*
X46375Y-27783D01*
X46393Y-27802D01*
X46412Y-27839D01*
X46431Y-27914D01*
X46431Y-28008D01*
X46412Y-28083D01*
X46393Y-28121D01*
X46375Y-28139D01*
X46337Y-28158D01*
X46300Y-28158D01*
X46262Y-28139D01*
X46243Y-28121D01*
X46225Y-28083D01*
X46206Y-28008D01*
X46206Y-27914D01*
X46225Y-27839D01*
X46243Y-27802D01*
X46262Y-27783D01*
X46300Y-27764D01*
X46599Y-28121D02*
X46618Y-28139D01*
X46599Y-28158D01*
X46581Y-28139D01*
X46599Y-28121D01*
X46599Y-28158D01*
X46768Y-27802D02*
X46787Y-27783D01*
X46824Y-27764D01*
X46918Y-27764D01*
X46956Y-27783D01*
X46974Y-27802D01*
X46993Y-27839D01*
X46993Y-27877D01*
X46974Y-27933D01*
X46749Y-28158D01*
X46993Y-28158D01*
X44622Y-28545D02*
X44622Y-28864D01*
X44603Y-28901D01*
X44584Y-28920D01*
X44547Y-28939D01*
X44490Y-28939D01*
X44453Y-28920D01*
X44622Y-28789D02*
X44584Y-28808D01*
X44509Y-28808D01*
X44472Y-28789D01*
X44453Y-28770D01*
X44434Y-28733D01*
X44434Y-28620D01*
X44453Y-28583D01*
X44472Y-28564D01*
X44509Y-28545D01*
X44584Y-28545D01*
X44622Y-28564D01*
X44809Y-28808D02*
X44809Y-28545D01*
X44809Y-28414D02*
X44790Y-28433D01*
X44809Y-28451D01*
X44828Y-28433D01*
X44809Y-28414D01*
X44809Y-28451D01*
X44940Y-28545D02*
X45090Y-28545D01*
X44997Y-28414D02*
X44997Y-28751D01*
X45015Y-28789D01*
X45053Y-28808D01*
X45090Y-28808D01*
X45222Y-28770D02*
X45240Y-28789D01*
X45222Y-28808D01*
X45203Y-28789D01*
X45222Y-28770D01*
X45222Y-28808D01*
X45409Y-28808D02*
X45409Y-28545D01*
X45409Y-28414D02*
X45390Y-28433D01*
X45409Y-28451D01*
X45428Y-28433D01*
X45409Y-28414D01*
X45409Y-28451D01*
X45653Y-28808D02*
X45615Y-28789D01*
X45596Y-28770D01*
X45578Y-28733D01*
X45578Y-28620D01*
X45596Y-28583D01*
X45615Y-28564D01*
X45653Y-28545D01*
X45709Y-28545D01*
X45746Y-28564D01*
X45765Y-28583D01*
X45784Y-28620D01*
X45784Y-28733D01*
X45765Y-28770D01*
X45746Y-28789D01*
X45709Y-28808D01*
X45653Y-28808D01*
X46234Y-28395D02*
X45896Y-28901D01*
X46328Y-28414D02*
X46590Y-28414D01*
X46421Y-28808D01*
X46703Y-28414D02*
X46965Y-28808D01*
X46965Y-28414D02*
X46703Y-28808D01*
X47115Y-28808D02*
X47115Y-28414D01*
X47284Y-28808D02*
X47284Y-28601D01*
X47265Y-28564D01*
X47228Y-28545D01*
X47171Y-28545D01*
X47134Y-28564D01*
X47115Y-28583D01*
X47640Y-28414D02*
X47565Y-28414D01*
X47527Y-28433D01*
X47509Y-28451D01*
X47471Y-28508D01*
X47452Y-28583D01*
X47452Y-28733D01*
X47471Y-28770D01*
X47490Y-28789D01*
X47527Y-28808D01*
X47602Y-28808D01*
X47640Y-28789D01*
X47659Y-28770D01*
X47677Y-28733D01*
X47677Y-28639D01*
X47659Y-28601D01*
X47640Y-28583D01*
X47602Y-28564D01*
X47527Y-28564D01*
X47490Y-28583D01*
X47471Y-28601D01*
X47452Y-28639D01*
X48015Y-28414D02*
X47940Y-28414D01*
X47902Y-28433D01*
X47884Y-28451D01*
X47846Y-28508D01*
X47827Y-28583D01*
X47827Y-28733D01*
X47846Y-28770D01*
X47865Y-28789D01*
X47902Y-28808D01*
X47977Y-28808D01*
X48015Y-28789D01*
X48034Y-28770D01*
X48052Y-28733D01*
X48052Y-28639D01*
X48034Y-28601D01*
X48015Y-28583D01*
X47977Y-28564D01*
X47902Y-28564D01*
X47865Y-28583D01*
X47846Y-28601D01*
X47827Y-28639D01*
X48184Y-28545D02*
X48259Y-28808D01*
X48334Y-28620D01*
X48409Y-28808D01*
X48484Y-28545D01*
X45147Y-29457D02*
X45109Y-29439D01*
X45090Y-29420D01*
X45072Y-29382D01*
X45072Y-29270D01*
X45090Y-29232D01*
X45109Y-29214D01*
X45147Y-29195D01*
X45203Y-29195D01*
X45240Y-29214D01*
X45259Y-29232D01*
X45278Y-29270D01*
X45278Y-29382D01*
X45259Y-29420D01*
X45240Y-29439D01*
X45203Y-29457D01*
X45147Y-29457D01*
X45615Y-29439D02*
X45578Y-29457D01*
X45503Y-29457D01*
X45465Y-29439D01*
X45447Y-29420D01*
X45428Y-29382D01*
X45428Y-29270D01*
X45447Y-29232D01*
X45465Y-29214D01*
X45503Y-29195D01*
X45578Y-29195D01*
X45615Y-29214D01*
X45728Y-29195D02*
X45878Y-29195D01*
X45784Y-29064D02*
X45784Y-29401D01*
X45803Y-29439D01*
X45840Y-29457D01*
X45878Y-29457D01*
X46009Y-29307D02*
X46309Y-29307D01*
X46478Y-29101D02*
X46496Y-29082D01*
X46534Y-29064D01*
X46628Y-29064D01*
X46665Y-29082D01*
X46684Y-29101D01*
X46703Y-29139D01*
X46703Y-29176D01*
X46684Y-29232D01*
X46459Y-29457D01*
X46703Y-29457D01*
X46946Y-29064D02*
X46984Y-29064D01*
X47021Y-29082D01*
X47040Y-29101D01*
X47059Y-29139D01*
X47078Y-29214D01*
X47078Y-29307D01*
X47059Y-29382D01*
X47040Y-29420D01*
X47021Y-29439D01*
X46984Y-29457D01*
X46946Y-29457D01*
X46909Y-29439D01*
X46890Y-29420D01*
X46871Y-29382D01*
X46853Y-29307D01*
X46853Y-29214D01*
X46871Y-29139D01*
X46890Y-29101D01*
X46909Y-29082D01*
X46946Y-29064D01*
X47453Y-29457D02*
X47228Y-29457D01*
X47340Y-29457D02*
X47340Y-29064D01*
X47303Y-29120D01*
X47265Y-29157D01*
X47228Y-29176D01*
X47584Y-29064D02*
X47827Y-29064D01*
X47696Y-29214D01*
X47752Y-29214D01*
X47790Y-29232D01*
X47809Y-29251D01*
X47827Y-29289D01*
X47827Y-29382D01*
X47809Y-29420D01*
X47790Y-29439D01*
X47752Y-29457D01*
X47640Y-29457D01*
X47602Y-29439D01*
X47584Y-29420D01*
G54D12*
X49492Y-28350D02*
G75*
G03X49492Y-28350I-57J0D01*
G74*
G01*
G54D10*
X53665Y-25411D02*
X53665Y-25135D01*
X53770Y-25135D01*
X53796Y-25149D01*
X53809Y-25162D01*
X53822Y-25188D01*
X53822Y-25227D01*
X53809Y-25254D01*
X53796Y-25267D01*
X53770Y-25280D01*
X53665Y-25280D01*
X53927Y-25162D02*
X53940Y-25149D01*
X53967Y-25135D01*
X54032Y-25135D01*
X54059Y-25149D01*
X54072Y-25162D01*
X54085Y-25188D01*
X54085Y-25214D01*
X54072Y-25254D01*
X53914Y-25411D01*
X54085Y-25411D01*
X54177Y-25135D02*
X54347Y-25135D01*
X54255Y-25240D01*
X54295Y-25240D01*
X54321Y-25254D01*
X54334Y-25267D01*
X54347Y-25293D01*
X54347Y-25359D01*
X54334Y-25385D01*
X54321Y-25398D01*
X54295Y-25411D01*
X54216Y-25411D01*
X54190Y-25398D01*
X54177Y-25385D01*
X52796Y-30811D02*
X52796Y-30535D01*
X52901Y-30535D01*
X52927Y-30549D01*
X52940Y-30562D01*
X52954Y-30588D01*
X52954Y-30627D01*
X52940Y-30654D01*
X52927Y-30667D01*
X52901Y-30680D01*
X52796Y-30680D01*
X53085Y-30811D02*
X53137Y-30811D01*
X53164Y-30798D01*
X53177Y-30785D01*
X53203Y-30745D01*
X53216Y-30693D01*
X53216Y-30588D01*
X53203Y-30562D01*
X53190Y-30549D01*
X53164Y-30535D01*
X53111Y-30535D01*
X53085Y-30549D01*
X53072Y-30562D01*
X53059Y-30588D01*
X53059Y-30654D01*
X53072Y-30680D01*
X53085Y-30693D01*
X53111Y-30706D01*
X53164Y-30706D01*
X53190Y-30693D01*
X53203Y-30680D01*
X53216Y-30654D01*
X53665Y-30811D02*
X53665Y-30535D01*
X53770Y-30535D01*
X53796Y-30549D01*
X53809Y-30562D01*
X53822Y-30588D01*
X53822Y-30627D01*
X53809Y-30654D01*
X53796Y-30667D01*
X53770Y-30680D01*
X53665Y-30680D01*
X54085Y-30811D02*
X53927Y-30811D01*
X54006Y-30811D02*
X54006Y-30535D01*
X53980Y-30575D01*
X53954Y-30601D01*
X53927Y-30614D01*
X54255Y-30535D02*
X54282Y-30535D01*
X54308Y-30549D01*
X54321Y-30562D01*
X54334Y-30588D01*
X54347Y-30640D01*
X54347Y-30706D01*
X54334Y-30759D01*
X54321Y-30785D01*
X54308Y-30798D01*
X54282Y-30811D01*
X54255Y-30811D01*
X54229Y-30798D01*
X54216Y-30785D01*
X54203Y-30759D01*
X54190Y-30706D01*
X54190Y-30640D01*
X54203Y-30588D01*
X54216Y-30562D01*
X54229Y-30549D01*
X54255Y-30535D01*
X54665Y-30811D02*
X54665Y-30535D01*
X54770Y-30535D01*
X54796Y-30549D01*
X54809Y-30562D01*
X54822Y-30588D01*
X54822Y-30627D01*
X54809Y-30654D01*
X54796Y-30667D01*
X54770Y-30680D01*
X54665Y-30680D01*
X55085Y-30811D02*
X54927Y-30811D01*
X55006Y-30811D02*
X55006Y-30535D01*
X54980Y-30575D01*
X54954Y-30601D01*
X54927Y-30614D01*
X55347Y-30811D02*
X55190Y-30811D01*
X55269Y-30811D02*
X55269Y-30535D01*
X55242Y-30575D01*
X55216Y-30601D01*
X55190Y-30614D01*
X55665Y-30811D02*
X55665Y-30535D01*
X55770Y-30535D01*
X55796Y-30549D01*
X55809Y-30562D01*
X55822Y-30588D01*
X55822Y-30627D01*
X55809Y-30654D01*
X55796Y-30667D01*
X55770Y-30680D01*
X55665Y-30680D01*
X56085Y-30811D02*
X55927Y-30811D01*
X56006Y-30811D02*
X56006Y-30535D01*
X55980Y-30575D01*
X55954Y-30601D01*
X55927Y-30614D01*
X56190Y-30562D02*
X56203Y-30549D01*
X56229Y-30535D01*
X56295Y-30535D01*
X56321Y-30549D01*
X56334Y-30562D01*
X56347Y-30588D01*
X56347Y-30614D01*
X56334Y-30654D01*
X56177Y-30811D01*
X56347Y-30811D01*
X55665Y-30311D02*
X55665Y-30035D01*
X55770Y-30035D01*
X55796Y-30049D01*
X55809Y-30062D01*
X55822Y-30088D01*
X55822Y-30127D01*
X55809Y-30154D01*
X55796Y-30167D01*
X55770Y-30180D01*
X55665Y-30180D01*
X56085Y-30311D02*
X55927Y-30311D01*
X56006Y-30311D02*
X56006Y-30035D01*
X55980Y-30075D01*
X55954Y-30101D01*
X55927Y-30114D01*
X56177Y-30035D02*
X56347Y-30035D01*
X56255Y-30140D01*
X56295Y-30140D01*
X56321Y-30154D01*
X56334Y-30167D01*
X56347Y-30193D01*
X56347Y-30259D01*
X56334Y-30285D01*
X56321Y-30298D01*
X56295Y-30311D01*
X56216Y-30311D01*
X56190Y-30298D01*
X56177Y-30285D01*
X55665Y-29911D02*
X55665Y-29635D01*
X55770Y-29635D01*
X55796Y-29649D01*
X55809Y-29662D01*
X55822Y-29688D01*
X55822Y-29727D01*
X55809Y-29754D01*
X55796Y-29767D01*
X55770Y-29780D01*
X55665Y-29780D01*
X56085Y-29911D02*
X55927Y-29911D01*
X56006Y-29911D02*
X56006Y-29635D01*
X55980Y-29675D01*
X55954Y-29701D01*
X55927Y-29714D01*
X56321Y-29727D02*
X56321Y-29911D01*
X56255Y-29622D02*
X56190Y-29819D01*
X56360Y-29819D01*
X55665Y-29511D02*
X55665Y-29235D01*
X55770Y-29235D01*
X55796Y-29249D01*
X55809Y-29262D01*
X55822Y-29288D01*
X55822Y-29327D01*
X55809Y-29354D01*
X55796Y-29367D01*
X55770Y-29380D01*
X55665Y-29380D01*
X56085Y-29511D02*
X55927Y-29511D01*
X56006Y-29511D02*
X56006Y-29235D01*
X55980Y-29275D01*
X55954Y-29301D01*
X55927Y-29314D01*
X56334Y-29235D02*
X56203Y-29235D01*
X56190Y-29367D01*
X56203Y-29354D01*
X56229Y-29340D01*
X56295Y-29340D01*
X56321Y-29354D01*
X56334Y-29367D01*
X56347Y-29393D01*
X56347Y-29459D01*
X56334Y-29485D01*
X56321Y-29498D01*
X56295Y-29511D01*
X56229Y-29511D01*
X56203Y-29498D01*
X56190Y-29485D01*
X55665Y-28611D02*
X55665Y-28335D01*
X55770Y-28335D01*
X55796Y-28349D01*
X55809Y-28362D01*
X55822Y-28388D01*
X55822Y-28427D01*
X55809Y-28454D01*
X55796Y-28467D01*
X55770Y-28480D01*
X55665Y-28480D01*
X56085Y-28611D02*
X55927Y-28611D01*
X56006Y-28611D02*
X56006Y-28335D01*
X55980Y-28375D01*
X55954Y-28401D01*
X55927Y-28414D01*
X56321Y-28335D02*
X56269Y-28335D01*
X56242Y-28349D01*
X56229Y-28362D01*
X56203Y-28401D01*
X56190Y-28454D01*
X56190Y-28559D01*
X56203Y-28585D01*
X56216Y-28598D01*
X56242Y-28611D01*
X56295Y-28611D01*
X56321Y-28598D01*
X56334Y-28585D01*
X56347Y-28559D01*
X56347Y-28493D01*
X56334Y-28467D01*
X56321Y-28454D01*
X56295Y-28440D01*
X56242Y-28440D01*
X56216Y-28454D01*
X56203Y-28467D01*
X56190Y-28493D01*
X55665Y-27611D02*
X55665Y-27335D01*
X55770Y-27335D01*
X55796Y-27349D01*
X55809Y-27362D01*
X55822Y-27388D01*
X55822Y-27427D01*
X55809Y-27454D01*
X55796Y-27467D01*
X55770Y-27480D01*
X55665Y-27480D01*
X56085Y-27611D02*
X55927Y-27611D01*
X56006Y-27611D02*
X56006Y-27335D01*
X55980Y-27375D01*
X55954Y-27401D01*
X55927Y-27414D01*
X56177Y-27335D02*
X56360Y-27335D01*
X56242Y-27611D01*
X55665Y-26611D02*
X55665Y-26335D01*
X55770Y-26335D01*
X55796Y-26349D01*
X55809Y-26362D01*
X55822Y-26388D01*
X55822Y-26427D01*
X55809Y-26454D01*
X55796Y-26467D01*
X55770Y-26480D01*
X55665Y-26480D01*
X56085Y-26611D02*
X55927Y-26611D01*
X56006Y-26611D02*
X56006Y-26335D01*
X55980Y-26375D01*
X55954Y-26401D01*
X55927Y-26414D01*
X56242Y-26454D02*
X56216Y-26440D01*
X56203Y-26427D01*
X56190Y-26401D01*
X56190Y-26388D01*
X56203Y-26362D01*
X56216Y-26349D01*
X56242Y-26335D01*
X56295Y-26335D01*
X56321Y-26349D01*
X56334Y-26362D01*
X56347Y-26388D01*
X56347Y-26401D01*
X56334Y-26427D01*
X56321Y-26440D01*
X56295Y-26454D01*
X56242Y-26454D01*
X56216Y-26467D01*
X56203Y-26480D01*
X56190Y-26506D01*
X56190Y-26559D01*
X56203Y-26585D01*
X56216Y-26598D01*
X56242Y-26611D01*
X56295Y-26611D01*
X56321Y-26598D01*
X56334Y-26585D01*
X56347Y-26559D01*
X56347Y-26506D01*
X56334Y-26480D01*
X56321Y-26467D01*
X56295Y-26454D01*
X55665Y-26211D02*
X55665Y-25935D01*
X55770Y-25935D01*
X55796Y-25949D01*
X55809Y-25962D01*
X55822Y-25988D01*
X55822Y-26027D01*
X55809Y-26054D01*
X55796Y-26067D01*
X55770Y-26080D01*
X55665Y-26080D01*
X56085Y-26211D02*
X55927Y-26211D01*
X56006Y-26211D02*
X56006Y-25935D01*
X55980Y-25975D01*
X55954Y-26001D01*
X55927Y-26014D01*
X56216Y-26211D02*
X56269Y-26211D01*
X56295Y-26198D01*
X56308Y-26185D01*
X56334Y-26145D01*
X56347Y-26093D01*
X56347Y-25988D01*
X56334Y-25962D01*
X56321Y-25949D01*
X56295Y-25935D01*
X56242Y-25935D01*
X56216Y-25949D01*
X56203Y-25962D01*
X56190Y-25988D01*
X56190Y-26054D01*
X56203Y-26080D01*
X56216Y-26093D01*
X56242Y-26106D01*
X56295Y-26106D01*
X56321Y-26093D01*
X56334Y-26080D01*
X56347Y-26054D01*
X55665Y-25811D02*
X55665Y-25535D01*
X55770Y-25535D01*
X55796Y-25549D01*
X55809Y-25562D01*
X55822Y-25588D01*
X55822Y-25627D01*
X55809Y-25654D01*
X55796Y-25667D01*
X55770Y-25680D01*
X55665Y-25680D01*
X55927Y-25562D02*
X55940Y-25549D01*
X55967Y-25535D01*
X56032Y-25535D01*
X56059Y-25549D01*
X56072Y-25562D01*
X56085Y-25588D01*
X56085Y-25614D01*
X56072Y-25654D01*
X55914Y-25811D01*
X56085Y-25811D01*
X56255Y-25535D02*
X56282Y-25535D01*
X56308Y-25549D01*
X56321Y-25562D01*
X56334Y-25588D01*
X56347Y-25640D01*
X56347Y-25706D01*
X56334Y-25759D01*
X56321Y-25785D01*
X56308Y-25798D01*
X56282Y-25811D01*
X56255Y-25811D01*
X56229Y-25798D01*
X56216Y-25785D01*
X56203Y-25759D01*
X56190Y-25706D01*
X56190Y-25640D01*
X56203Y-25588D01*
X56216Y-25562D01*
X56229Y-25549D01*
X56255Y-25535D01*
X55665Y-25411D02*
X55665Y-25135D01*
X55770Y-25135D01*
X55796Y-25149D01*
X55809Y-25162D01*
X55822Y-25188D01*
X55822Y-25227D01*
X55809Y-25254D01*
X55796Y-25267D01*
X55770Y-25280D01*
X55665Y-25280D01*
X55927Y-25162D02*
X55940Y-25149D01*
X55967Y-25135D01*
X56032Y-25135D01*
X56059Y-25149D01*
X56072Y-25162D01*
X56085Y-25188D01*
X56085Y-25214D01*
X56072Y-25254D01*
X55914Y-25411D01*
X56085Y-25411D01*
X56347Y-25411D02*
X56190Y-25411D01*
X56269Y-25411D02*
X56269Y-25135D01*
X56242Y-25175D01*
X56216Y-25201D01*
X56190Y-25214D01*
X54665Y-25411D02*
X54665Y-25135D01*
X54770Y-25135D01*
X54796Y-25149D01*
X54809Y-25162D01*
X54822Y-25188D01*
X54822Y-25227D01*
X54809Y-25254D01*
X54796Y-25267D01*
X54770Y-25280D01*
X54665Y-25280D01*
X54927Y-25162D02*
X54940Y-25149D01*
X54967Y-25135D01*
X55032Y-25135D01*
X55059Y-25149D01*
X55072Y-25162D01*
X55085Y-25188D01*
X55085Y-25214D01*
X55072Y-25254D01*
X54914Y-25411D01*
X55085Y-25411D01*
X55190Y-25162D02*
X55203Y-25149D01*
X55229Y-25135D01*
X55295Y-25135D01*
X55321Y-25149D01*
X55334Y-25162D01*
X55347Y-25188D01*
X55347Y-25214D01*
X55334Y-25254D01*
X55177Y-25411D01*
X55347Y-25411D01*
X51796Y-30811D02*
X51796Y-30535D01*
X51901Y-30535D01*
X51927Y-30549D01*
X51940Y-30562D01*
X51954Y-30588D01*
X51954Y-30627D01*
X51940Y-30654D01*
X51927Y-30667D01*
X51901Y-30680D01*
X51796Y-30680D01*
X52111Y-30654D02*
X52085Y-30640D01*
X52072Y-30627D01*
X52059Y-30601D01*
X52059Y-30588D01*
X52072Y-30562D01*
X52085Y-30549D01*
X52111Y-30535D01*
X52164Y-30535D01*
X52190Y-30549D01*
X52203Y-30562D01*
X52216Y-30588D01*
X52216Y-30601D01*
X52203Y-30627D01*
X52190Y-30640D01*
X52164Y-30654D01*
X52111Y-30654D01*
X52085Y-30667D01*
X52072Y-30680D01*
X52059Y-30706D01*
X52059Y-30759D01*
X52072Y-30785D01*
X52085Y-30798D01*
X52111Y-30811D01*
X52164Y-30811D01*
X52190Y-30798D01*
X52203Y-30785D01*
X52216Y-30759D01*
X52216Y-30706D01*
X52203Y-30680D01*
X52190Y-30667D01*
X52164Y-30654D01*
X52665Y-25411D02*
X52665Y-25135D01*
X52770Y-25135D01*
X52796Y-25149D01*
X52809Y-25162D01*
X52822Y-25188D01*
X52822Y-25227D01*
X52809Y-25254D01*
X52796Y-25267D01*
X52770Y-25280D01*
X52665Y-25280D01*
X52927Y-25162D02*
X52940Y-25149D01*
X52967Y-25135D01*
X53032Y-25135D01*
X53059Y-25149D01*
X53072Y-25162D01*
X53085Y-25188D01*
X53085Y-25214D01*
X53072Y-25254D01*
X52914Y-25411D01*
X53085Y-25411D01*
X53321Y-25227D02*
X53321Y-25411D01*
X53255Y-25122D02*
X53190Y-25319D01*
X53360Y-25319D01*
X51665Y-25411D02*
X51665Y-25135D01*
X51770Y-25135D01*
X51796Y-25149D01*
X51809Y-25162D01*
X51822Y-25188D01*
X51822Y-25227D01*
X51809Y-25254D01*
X51796Y-25267D01*
X51770Y-25280D01*
X51665Y-25280D01*
X51927Y-25162D02*
X51940Y-25149D01*
X51967Y-25135D01*
X52032Y-25135D01*
X52059Y-25149D01*
X52072Y-25162D01*
X52085Y-25188D01*
X52085Y-25214D01*
X52072Y-25254D01*
X51914Y-25411D01*
X52085Y-25411D01*
X52334Y-25135D02*
X52203Y-25135D01*
X52190Y-25267D01*
X52203Y-25254D01*
X52229Y-25240D01*
X52295Y-25240D01*
X52321Y-25254D01*
X52334Y-25267D01*
X52347Y-25293D01*
X52347Y-25359D01*
X52334Y-25385D01*
X52321Y-25398D01*
X52295Y-25411D01*
X52229Y-25411D01*
X52203Y-25398D01*
X52190Y-25385D01*
X50665Y-25411D02*
X50665Y-25135D01*
X50770Y-25135D01*
X50796Y-25149D01*
X50809Y-25162D01*
X50822Y-25188D01*
X50822Y-25227D01*
X50809Y-25254D01*
X50796Y-25267D01*
X50770Y-25280D01*
X50665Y-25280D01*
X50927Y-25162D02*
X50940Y-25149D01*
X50967Y-25135D01*
X51032Y-25135D01*
X51059Y-25149D01*
X51072Y-25162D01*
X51085Y-25188D01*
X51085Y-25214D01*
X51072Y-25254D01*
X50914Y-25411D01*
X51085Y-25411D01*
X51321Y-25135D02*
X51269Y-25135D01*
X51242Y-25149D01*
X51229Y-25162D01*
X51203Y-25201D01*
X51190Y-25254D01*
X51190Y-25359D01*
X51203Y-25385D01*
X51216Y-25398D01*
X51242Y-25411D01*
X51295Y-25411D01*
X51321Y-25398D01*
X51334Y-25385D01*
X51347Y-25359D01*
X51347Y-25293D01*
X51334Y-25267D01*
X51321Y-25254D01*
X51295Y-25240D01*
X51242Y-25240D01*
X51216Y-25254D01*
X51203Y-25267D01*
X51190Y-25293D01*
X49665Y-25411D02*
X49665Y-25135D01*
X49770Y-25135D01*
X49796Y-25149D01*
X49809Y-25162D01*
X49822Y-25188D01*
X49822Y-25227D01*
X49809Y-25254D01*
X49796Y-25267D01*
X49770Y-25280D01*
X49665Y-25280D01*
X49927Y-25162D02*
X49940Y-25149D01*
X49967Y-25135D01*
X50032Y-25135D01*
X50059Y-25149D01*
X50072Y-25162D01*
X50085Y-25188D01*
X50085Y-25214D01*
X50072Y-25254D01*
X49914Y-25411D01*
X50085Y-25411D01*
X50177Y-25135D02*
X50360Y-25135D01*
X50242Y-25411D01*
X48665Y-25411D02*
X48665Y-25135D01*
X48770Y-25135D01*
X48796Y-25149D01*
X48809Y-25162D01*
X48822Y-25188D01*
X48822Y-25227D01*
X48809Y-25254D01*
X48796Y-25267D01*
X48770Y-25280D01*
X48665Y-25280D01*
X48927Y-25162D02*
X48940Y-25149D01*
X48967Y-25135D01*
X49032Y-25135D01*
X49059Y-25149D01*
X49072Y-25162D01*
X49085Y-25188D01*
X49085Y-25214D01*
X49072Y-25254D01*
X48914Y-25411D01*
X49085Y-25411D01*
X49242Y-25254D02*
X49216Y-25240D01*
X49203Y-25227D01*
X49190Y-25201D01*
X49190Y-25188D01*
X49203Y-25162D01*
X49216Y-25149D01*
X49242Y-25135D01*
X49295Y-25135D01*
X49321Y-25149D01*
X49334Y-25162D01*
X49347Y-25188D01*
X49347Y-25201D01*
X49334Y-25227D01*
X49321Y-25240D01*
X49295Y-25254D01*
X49242Y-25254D01*
X49216Y-25267D01*
X49203Y-25280D01*
X49190Y-25306D01*
X49190Y-25359D01*
X49203Y-25385D01*
X49216Y-25398D01*
X49242Y-25411D01*
X49295Y-25411D01*
X49321Y-25398D01*
X49334Y-25385D01*
X49347Y-25359D01*
X49347Y-25306D01*
X49334Y-25280D01*
X49321Y-25267D01*
X49295Y-25254D01*
X47665Y-25411D02*
X47665Y-25135D01*
X47770Y-25135D01*
X47796Y-25149D01*
X47809Y-25162D01*
X47822Y-25188D01*
X47822Y-25227D01*
X47809Y-25254D01*
X47796Y-25267D01*
X47770Y-25280D01*
X47665Y-25280D01*
X47927Y-25162D02*
X47940Y-25149D01*
X47967Y-25135D01*
X48032Y-25135D01*
X48059Y-25149D01*
X48072Y-25162D01*
X48085Y-25188D01*
X48085Y-25214D01*
X48072Y-25254D01*
X47914Y-25411D01*
X48085Y-25411D01*
X48216Y-25411D02*
X48269Y-25411D01*
X48295Y-25398D01*
X48308Y-25385D01*
X48334Y-25345D01*
X48347Y-25293D01*
X48347Y-25188D01*
X48334Y-25162D01*
X48321Y-25149D01*
X48295Y-25135D01*
X48242Y-25135D01*
X48216Y-25149D01*
X48203Y-25162D01*
X48190Y-25188D01*
X48190Y-25254D01*
X48203Y-25280D01*
X48216Y-25293D01*
X48242Y-25306D01*
X48295Y-25306D01*
X48321Y-25293D01*
X48334Y-25280D01*
X48347Y-25254D01*
X46665Y-25411D02*
X46665Y-25135D01*
X46770Y-25135D01*
X46796Y-25149D01*
X46809Y-25162D01*
X46822Y-25188D01*
X46822Y-25227D01*
X46809Y-25254D01*
X46796Y-25267D01*
X46770Y-25280D01*
X46665Y-25280D01*
X46914Y-25135D02*
X47085Y-25135D01*
X46993Y-25240D01*
X47032Y-25240D01*
X47059Y-25254D01*
X47072Y-25267D01*
X47085Y-25293D01*
X47085Y-25359D01*
X47072Y-25385D01*
X47059Y-25398D01*
X47032Y-25411D01*
X46954Y-25411D01*
X46927Y-25398D01*
X46914Y-25385D01*
X47255Y-25135D02*
X47282Y-25135D01*
X47308Y-25149D01*
X47321Y-25162D01*
X47334Y-25188D01*
X47347Y-25240D01*
X47347Y-25306D01*
X47334Y-25359D01*
X47321Y-25385D01*
X47308Y-25398D01*
X47282Y-25411D01*
X47255Y-25411D01*
X47229Y-25398D01*
X47216Y-25385D01*
X47203Y-25359D01*
X47190Y-25306D01*
X47190Y-25240D01*
X47203Y-25188D01*
X47216Y-25162D01*
X47229Y-25149D01*
X47255Y-25135D01*
X45665Y-25411D02*
X45665Y-25135D01*
X45770Y-25135D01*
X45796Y-25149D01*
X45809Y-25162D01*
X45822Y-25188D01*
X45822Y-25227D01*
X45809Y-25254D01*
X45796Y-25267D01*
X45770Y-25280D01*
X45665Y-25280D01*
X45914Y-25135D02*
X46085Y-25135D01*
X45993Y-25240D01*
X46032Y-25240D01*
X46059Y-25254D01*
X46072Y-25267D01*
X46085Y-25293D01*
X46085Y-25359D01*
X46072Y-25385D01*
X46059Y-25398D01*
X46032Y-25411D01*
X45954Y-25411D01*
X45927Y-25398D01*
X45914Y-25385D01*
X46347Y-25411D02*
X46190Y-25411D01*
X46269Y-25411D02*
X46269Y-25135D01*
X46242Y-25175D01*
X46216Y-25201D01*
X46190Y-25214D01*
X44665Y-25411D02*
X44665Y-25135D01*
X44770Y-25135D01*
X44796Y-25149D01*
X44809Y-25162D01*
X44822Y-25188D01*
X44822Y-25227D01*
X44809Y-25254D01*
X44796Y-25267D01*
X44770Y-25280D01*
X44665Y-25280D01*
X44914Y-25135D02*
X45085Y-25135D01*
X44993Y-25240D01*
X45032Y-25240D01*
X45059Y-25254D01*
X45072Y-25267D01*
X45085Y-25293D01*
X45085Y-25359D01*
X45072Y-25385D01*
X45059Y-25398D01*
X45032Y-25411D01*
X44954Y-25411D01*
X44927Y-25398D01*
X44914Y-25385D01*
X45190Y-25162D02*
X45203Y-25149D01*
X45229Y-25135D01*
X45295Y-25135D01*
X45321Y-25149D01*
X45334Y-25162D01*
X45347Y-25188D01*
X45347Y-25214D01*
X45334Y-25254D01*
X45177Y-25411D01*
X45347Y-25411D01*
X43658Y-30706D02*
X43868Y-30706D01*
X43763Y-30811D02*
X43763Y-30601D01*
X44131Y-30535D02*
X44000Y-30535D01*
X43986Y-30667D01*
X44000Y-30654D01*
X44026Y-30640D01*
X44091Y-30640D01*
X44118Y-30654D01*
X44131Y-30667D01*
X44144Y-30693D01*
X44144Y-30759D01*
X44131Y-30785D01*
X44118Y-30798D01*
X44091Y-30811D01*
X44026Y-30811D01*
X44000Y-30798D01*
X43986Y-30785D01*
X44236Y-30627D02*
X44301Y-30811D01*
X44367Y-30627D01*
X43790Y-25149D02*
X43763Y-25135D01*
X43724Y-25135D01*
X43685Y-25149D01*
X43658Y-25175D01*
X43645Y-25201D01*
X43632Y-25254D01*
X43632Y-25293D01*
X43645Y-25345D01*
X43658Y-25372D01*
X43685Y-25398D01*
X43724Y-25411D01*
X43750Y-25411D01*
X43790Y-25398D01*
X43803Y-25385D01*
X43803Y-25293D01*
X43750Y-25293D01*
X43921Y-25411D02*
X43921Y-25135D01*
X44078Y-25411D01*
X44078Y-25135D01*
X44209Y-25411D02*
X44209Y-25135D01*
X44275Y-25135D01*
X44314Y-25149D01*
X44341Y-25175D01*
X44354Y-25201D01*
X44367Y-25254D01*
X44367Y-25293D01*
X44354Y-25345D01*
X44341Y-25372D01*
X44314Y-25398D01*
X44275Y-25411D01*
X44209Y-25411D01*
X50796Y-30811D02*
X50796Y-30535D01*
X50901Y-30535D01*
X50927Y-30549D01*
X50940Y-30562D01*
X50954Y-30588D01*
X50954Y-30627D01*
X50940Y-30654D01*
X50927Y-30667D01*
X50901Y-30680D01*
X50796Y-30680D01*
X51045Y-30535D02*
X51229Y-30535D01*
X51111Y-30811D01*
X49796Y-30784D02*
X49796Y-30509D01*
X49901Y-30509D01*
X49927Y-30522D01*
X49940Y-30535D01*
X49954Y-30561D01*
X49954Y-30601D01*
X49940Y-30627D01*
X49927Y-30640D01*
X49901Y-30653D01*
X49796Y-30653D01*
X50190Y-30509D02*
X50137Y-30509D01*
X50111Y-30522D01*
X50098Y-30535D01*
X50072Y-30574D01*
X50059Y-30627D01*
X50059Y-30732D01*
X50072Y-30758D01*
X50085Y-30771D01*
X50111Y-30784D01*
X50164Y-30784D01*
X50190Y-30771D01*
X50203Y-30758D01*
X50216Y-30732D01*
X50216Y-30666D01*
X50203Y-30640D01*
X50190Y-30627D01*
X50164Y-30614D01*
X50111Y-30614D01*
X50085Y-30627D01*
X50072Y-30640D01*
X50059Y-30666D01*
X48796Y-30811D02*
X48796Y-30535D01*
X48901Y-30535D01*
X48927Y-30549D01*
X48940Y-30562D01*
X48954Y-30588D01*
X48954Y-30627D01*
X48940Y-30654D01*
X48927Y-30667D01*
X48901Y-30680D01*
X48796Y-30680D01*
X49203Y-30535D02*
X49072Y-30535D01*
X49059Y-30667D01*
X49072Y-30654D01*
X49098Y-30640D01*
X49164Y-30640D01*
X49190Y-30654D01*
X49203Y-30667D01*
X49216Y-30693D01*
X49216Y-30759D01*
X49203Y-30785D01*
X49190Y-30798D01*
X49164Y-30811D01*
X49098Y-30811D01*
X49072Y-30798D01*
X49059Y-30785D01*
X47796Y-30811D02*
X47796Y-30535D01*
X47901Y-30535D01*
X47927Y-30549D01*
X47940Y-30562D01*
X47954Y-30588D01*
X47954Y-30627D01*
X47940Y-30654D01*
X47927Y-30667D01*
X47901Y-30680D01*
X47796Y-30680D01*
X48190Y-30627D02*
X48190Y-30811D01*
X48124Y-30522D02*
X48059Y-30719D01*
X48229Y-30719D01*
X46796Y-30811D02*
X46796Y-30535D01*
X46901Y-30535D01*
X46927Y-30549D01*
X46940Y-30562D01*
X46954Y-30588D01*
X46954Y-30627D01*
X46940Y-30654D01*
X46927Y-30667D01*
X46901Y-30680D01*
X46796Y-30680D01*
X47045Y-30535D02*
X47216Y-30535D01*
X47124Y-30640D01*
X47164Y-30640D01*
X47190Y-30654D01*
X47203Y-30667D01*
X47216Y-30693D01*
X47216Y-30759D01*
X47203Y-30785D01*
X47190Y-30798D01*
X47164Y-30811D01*
X47085Y-30811D01*
X47059Y-30798D01*
X47045Y-30785D01*
X44796Y-30811D02*
X44796Y-30535D01*
X44901Y-30535D01*
X44927Y-30549D01*
X44940Y-30562D01*
X44954Y-30588D01*
X44954Y-30627D01*
X44940Y-30654D01*
X44927Y-30667D01*
X44901Y-30680D01*
X44796Y-30680D01*
X45216Y-30811D02*
X45059Y-30811D01*
X45137Y-30811D02*
X45137Y-30535D01*
X45111Y-30575D01*
X45085Y-30601D01*
X45059Y-30614D01*
X45796Y-30811D02*
X45796Y-30535D01*
X45901Y-30535D01*
X45927Y-30549D01*
X45940Y-30562D01*
X45954Y-30588D01*
X45954Y-30627D01*
X45940Y-30654D01*
X45927Y-30667D01*
X45901Y-30680D01*
X45796Y-30680D01*
X46059Y-30562D02*
X46072Y-30549D01*
X46098Y-30535D01*
X46164Y-30535D01*
X46190Y-30549D01*
X46203Y-30562D01*
X46216Y-30588D01*
X46216Y-30614D01*
X46203Y-30654D01*
X46045Y-30811D01*
X46216Y-30811D01*
X49472Y-26896D02*
X49697Y-27121D01*
X49737Y-27135D01*
X49763Y-27135D01*
X49803Y-27121D01*
X49856Y-27068D01*
X49869Y-27028D01*
X49869Y-27002D01*
X49856Y-26962D01*
X49631Y-26737D01*
X50188Y-26737D02*
X50028Y-26896D01*
X50108Y-26816D02*
X49830Y-26538D01*
X49843Y-26604D01*
X49843Y-26657D01*
X49830Y-26697D01*
M02*
