M48
;DRILL file {Pcbnew (2013-07-07 BZR 4022)-stable} date 1/7/2014 10:08:53
;FORMAT={-:-/ absolute / inch / decimal}
FMAT,2
INCH,TZ
T1C0.013
T2C0.040
T3C0.079
%
G90
G05
M72
T1
X4.5075Y-2.9175
X4.5425Y-3.01
X4.5525Y-2.885
X4.6075Y-2.9125
X4.62Y-2.88
X4.6575Y-2.925
X4.6925Y-2.96
X4.9375Y-2.935
X4.98Y-2.7675
X5.Y-2.7125
T2
X4.4Y-2.45
X4.4Y-3.15
X4.5Y-2.45
X4.5Y-3.15
X4.6Y-2.45
X4.6Y-3.15
X4.7Y-2.45
X4.7Y-3.15
X4.8Y-2.45
X4.8Y-3.15
X4.9Y-2.45
X4.9Y-3.15
X5.Y-2.45
X5.Y-3.15
X5.1Y-2.45
X5.1Y-3.15
X5.2Y-2.45
X5.2Y-2.55
X5.2Y-2.65
X5.2Y-2.75
X5.2Y-2.85
X5.2Y-2.95
X5.2Y-3.05
X5.2Y-3.15
T3
X4.76Y-2.8
T0
M30
