G04 (created by PCBNEW (2013-07-07 BZR 4022)-stable) date 1/21/2014 13:57:26*
%MOIN*%
G04 Gerber Fmt 3.4, Leading zero omitted, Abs format*
%FSLAX34Y34*%
G01*
G70*
G90*
G04 APERTURE LIST*
%ADD10C,0.00590551*%
%ADD11C,0.00472441*%
%ADD12C,0.00984252*%
G04 APERTURE END LIST*
G54D10*
G54D11*
X46169Y-28099D02*
X46049Y-28219D01*
X46109Y-28159D02*
X45900Y-27950D01*
X45910Y-28000D01*
X45910Y-28040D01*
X45900Y-28070D01*
G54D12*
X44209Y-30024D02*
X43815Y-30024D01*
X44096Y-29893D01*
X43815Y-29762D01*
X44209Y-29762D01*
X44209Y-29574D02*
X43815Y-29574D01*
X44209Y-29349D02*
X43984Y-29518D01*
X43815Y-29349D02*
X44040Y-29574D01*
X44209Y-28993D02*
X44209Y-29181D01*
X43815Y-29181D01*
X43853Y-28881D02*
X43834Y-28862D01*
X43815Y-28824D01*
X43815Y-28731D01*
X43834Y-28693D01*
X43853Y-28674D01*
X43890Y-28656D01*
X43928Y-28656D01*
X43984Y-28674D01*
X44209Y-28899D01*
X44209Y-28656D01*
X43946Y-28318D02*
X44209Y-28318D01*
X43796Y-28412D02*
X44078Y-28506D01*
X44078Y-28262D01*
X43796Y-27831D02*
X44303Y-28168D01*
X43853Y-27718D02*
X43834Y-27700D01*
X43815Y-27662D01*
X43815Y-27568D01*
X43834Y-27531D01*
X43853Y-27512D01*
X43890Y-27493D01*
X43928Y-27493D01*
X43984Y-27512D01*
X44209Y-27737D01*
X44209Y-27493D01*
X43815Y-27137D02*
X43815Y-27325D01*
X44003Y-27343D01*
X43984Y-27325D01*
X43965Y-27287D01*
X43965Y-27193D01*
X43984Y-27156D01*
X44003Y-27137D01*
X44040Y-27118D01*
X44134Y-27118D01*
X44171Y-27137D01*
X44190Y-27156D01*
X44209Y-27193D01*
X44209Y-27287D01*
X44190Y-27325D01*
X44171Y-27343D01*
X43796Y-26668D02*
X44303Y-27006D01*
X43853Y-26556D02*
X43834Y-26537D01*
X43815Y-26500D01*
X43815Y-26406D01*
X43834Y-26368D01*
X43853Y-26350D01*
X43890Y-26331D01*
X43928Y-26331D01*
X43984Y-26350D01*
X44209Y-26575D01*
X44209Y-26331D01*
X43815Y-25994D02*
X43815Y-26068D01*
X43834Y-26106D01*
X43853Y-26125D01*
X43909Y-26162D01*
X43984Y-26181D01*
X44134Y-26181D01*
X44171Y-26162D01*
X44190Y-26143D01*
X44209Y-26106D01*
X44209Y-26031D01*
X44190Y-25994D01*
X44171Y-25975D01*
X44134Y-25956D01*
X44040Y-25956D01*
X44003Y-25975D01*
X43984Y-25994D01*
X43965Y-26031D01*
X43965Y-26106D01*
X43984Y-26143D01*
X44003Y-26162D01*
X44040Y-26181D01*
X44596Y-28562D02*
X44858Y-28468D01*
X44596Y-28374D01*
X44465Y-28149D02*
X44465Y-28112D01*
X44484Y-28074D01*
X44502Y-28056D01*
X44540Y-28037D01*
X44615Y-28018D01*
X44708Y-28018D01*
X44783Y-28037D01*
X44821Y-28056D01*
X44840Y-28074D01*
X44858Y-28112D01*
X44858Y-28149D01*
X44840Y-28187D01*
X44821Y-28206D01*
X44783Y-28224D01*
X44708Y-28243D01*
X44615Y-28243D01*
X44540Y-28224D01*
X44502Y-28206D01*
X44484Y-28187D01*
X44465Y-28149D01*
X44821Y-27850D02*
X44840Y-27831D01*
X44858Y-27850D01*
X44840Y-27868D01*
X44821Y-27850D01*
X44858Y-27850D01*
X44502Y-27681D02*
X44484Y-27662D01*
X44465Y-27625D01*
X44465Y-27531D01*
X44484Y-27493D01*
X44502Y-27475D01*
X44540Y-27456D01*
X44577Y-27456D01*
X44633Y-27475D01*
X44858Y-27700D01*
X44858Y-27456D01*
X45246Y-29827D02*
X45564Y-29827D01*
X45602Y-29846D01*
X45621Y-29865D01*
X45639Y-29902D01*
X45639Y-29959D01*
X45621Y-29996D01*
X45489Y-29827D02*
X45508Y-29865D01*
X45508Y-29940D01*
X45489Y-29977D01*
X45471Y-29996D01*
X45433Y-30015D01*
X45321Y-30015D01*
X45283Y-29996D01*
X45264Y-29977D01*
X45246Y-29940D01*
X45246Y-29865D01*
X45264Y-29827D01*
X45508Y-29640D02*
X45246Y-29640D01*
X45114Y-29640D02*
X45133Y-29659D01*
X45152Y-29640D01*
X45133Y-29621D01*
X45114Y-29640D01*
X45152Y-29640D01*
X45246Y-29509D02*
X45246Y-29359D01*
X45114Y-29452D02*
X45452Y-29452D01*
X45489Y-29434D01*
X45508Y-29396D01*
X45508Y-29359D01*
X45471Y-29227D02*
X45489Y-29209D01*
X45508Y-29227D01*
X45489Y-29246D01*
X45471Y-29227D01*
X45508Y-29227D01*
X45508Y-29040D02*
X45246Y-29040D01*
X45114Y-29040D02*
X45133Y-29059D01*
X45152Y-29040D01*
X45133Y-29021D01*
X45114Y-29040D01*
X45152Y-29040D01*
X45508Y-28796D02*
X45489Y-28834D01*
X45471Y-28853D01*
X45433Y-28871D01*
X45321Y-28871D01*
X45283Y-28853D01*
X45264Y-28834D01*
X45246Y-28796D01*
X45246Y-28740D01*
X45264Y-28703D01*
X45283Y-28684D01*
X45321Y-28665D01*
X45433Y-28665D01*
X45471Y-28684D01*
X45489Y-28703D01*
X45508Y-28740D01*
X45508Y-28796D01*
X45096Y-28215D02*
X45602Y-28553D01*
X45114Y-28121D02*
X45114Y-27859D01*
X45508Y-28028D01*
X45114Y-27746D02*
X45508Y-27484D01*
X45114Y-27484D02*
X45508Y-27746D01*
X45508Y-27334D02*
X45114Y-27334D01*
X45508Y-27165D02*
X45302Y-27165D01*
X45264Y-27184D01*
X45246Y-27221D01*
X45246Y-27278D01*
X45264Y-27315D01*
X45283Y-27334D01*
X45114Y-26809D02*
X45114Y-26884D01*
X45133Y-26922D01*
X45152Y-26940D01*
X45208Y-26978D01*
X45283Y-26997D01*
X45433Y-26997D01*
X45471Y-26978D01*
X45489Y-26959D01*
X45508Y-26922D01*
X45508Y-26847D01*
X45489Y-26809D01*
X45471Y-26790D01*
X45433Y-26772D01*
X45339Y-26772D01*
X45302Y-26790D01*
X45283Y-26809D01*
X45264Y-26847D01*
X45264Y-26922D01*
X45283Y-26959D01*
X45302Y-26978D01*
X45339Y-26997D01*
X45114Y-26434D02*
X45114Y-26509D01*
X45133Y-26547D01*
X45152Y-26565D01*
X45208Y-26603D01*
X45283Y-26622D01*
X45433Y-26622D01*
X45471Y-26603D01*
X45489Y-26584D01*
X45508Y-26547D01*
X45508Y-26472D01*
X45489Y-26434D01*
X45471Y-26415D01*
X45433Y-26397D01*
X45339Y-26397D01*
X45302Y-26415D01*
X45283Y-26434D01*
X45264Y-26472D01*
X45264Y-26547D01*
X45283Y-26584D01*
X45302Y-26603D01*
X45339Y-26622D01*
X45246Y-26265D02*
X45508Y-26190D01*
X45321Y-26115D01*
X45508Y-26040D01*
X45246Y-25965D01*
G54D10*
X46009Y-28388D02*
G75*
G03X46009Y-28388I-35J0D01*
G74*
G01*
X47272Y-26421D02*
X47497Y-26646D01*
X47537Y-26660D01*
X47563Y-26660D01*
X47603Y-26646D01*
X47656Y-26593D01*
X47669Y-26553D01*
X47669Y-26527D01*
X47656Y-26487D01*
X47431Y-26262D01*
X47988Y-26262D02*
X47828Y-26421D01*
X47908Y-26341D02*
X47630Y-26063D01*
X47643Y-26129D01*
X47643Y-26182D01*
X47630Y-26222D01*
X50865Y-26611D02*
X50865Y-26335D01*
X50970Y-26335D01*
X50996Y-26349D01*
X51009Y-26362D01*
X51022Y-26388D01*
X51022Y-26427D01*
X51009Y-26454D01*
X50996Y-26467D01*
X50970Y-26480D01*
X50865Y-26480D01*
X51127Y-26362D02*
X51140Y-26349D01*
X51167Y-26335D01*
X51232Y-26335D01*
X51259Y-26349D01*
X51272Y-26362D01*
X51285Y-26388D01*
X51285Y-26414D01*
X51272Y-26454D01*
X51114Y-26611D01*
X51285Y-26611D01*
X51377Y-26335D02*
X51547Y-26335D01*
X51455Y-26440D01*
X51495Y-26440D01*
X51521Y-26454D01*
X51534Y-26467D01*
X51547Y-26493D01*
X51547Y-26559D01*
X51534Y-26585D01*
X51521Y-26598D01*
X51495Y-26611D01*
X51416Y-26611D01*
X51390Y-26598D01*
X51377Y-26585D01*
X45796Y-31011D02*
X45796Y-30735D01*
X45901Y-30735D01*
X45927Y-30749D01*
X45940Y-30762D01*
X45954Y-30788D01*
X45954Y-30827D01*
X45940Y-30854D01*
X45927Y-30867D01*
X45901Y-30880D01*
X45796Y-30880D01*
X46085Y-31011D02*
X46137Y-31011D01*
X46164Y-30998D01*
X46177Y-30985D01*
X46203Y-30945D01*
X46216Y-30893D01*
X46216Y-30788D01*
X46203Y-30762D01*
X46190Y-30749D01*
X46164Y-30735D01*
X46111Y-30735D01*
X46085Y-30749D01*
X46072Y-30762D01*
X46059Y-30788D01*
X46059Y-30854D01*
X46072Y-30880D01*
X46085Y-30893D01*
X46111Y-30906D01*
X46164Y-30906D01*
X46190Y-30893D01*
X46203Y-30880D01*
X46216Y-30854D01*
X46665Y-31011D02*
X46665Y-30735D01*
X46770Y-30735D01*
X46796Y-30749D01*
X46809Y-30762D01*
X46822Y-30788D01*
X46822Y-30827D01*
X46809Y-30854D01*
X46796Y-30867D01*
X46770Y-30880D01*
X46665Y-30880D01*
X47085Y-31011D02*
X46927Y-31011D01*
X47006Y-31011D02*
X47006Y-30735D01*
X46980Y-30775D01*
X46954Y-30801D01*
X46927Y-30814D01*
X47255Y-30735D02*
X47282Y-30735D01*
X47308Y-30749D01*
X47321Y-30762D01*
X47334Y-30788D01*
X47347Y-30840D01*
X47347Y-30906D01*
X47334Y-30959D01*
X47321Y-30985D01*
X47308Y-30998D01*
X47282Y-31011D01*
X47255Y-31011D01*
X47229Y-30998D01*
X47216Y-30985D01*
X47203Y-30959D01*
X47190Y-30906D01*
X47190Y-30840D01*
X47203Y-30788D01*
X47216Y-30762D01*
X47229Y-30749D01*
X47255Y-30735D01*
X47665Y-31011D02*
X47665Y-30735D01*
X47770Y-30735D01*
X47796Y-30749D01*
X47809Y-30762D01*
X47822Y-30788D01*
X47822Y-30827D01*
X47809Y-30854D01*
X47796Y-30867D01*
X47770Y-30880D01*
X47665Y-30880D01*
X48085Y-31011D02*
X47927Y-31011D01*
X48006Y-31011D02*
X48006Y-30735D01*
X47980Y-30775D01*
X47954Y-30801D01*
X47927Y-30814D01*
X48347Y-31011D02*
X48190Y-31011D01*
X48269Y-31011D02*
X48269Y-30735D01*
X48242Y-30775D01*
X48216Y-30801D01*
X48190Y-30814D01*
X48665Y-31011D02*
X48665Y-30735D01*
X48770Y-30735D01*
X48796Y-30749D01*
X48809Y-30762D01*
X48822Y-30788D01*
X48822Y-30827D01*
X48809Y-30854D01*
X48796Y-30867D01*
X48770Y-30880D01*
X48665Y-30880D01*
X49085Y-31011D02*
X48927Y-31011D01*
X49006Y-31011D02*
X49006Y-30735D01*
X48980Y-30775D01*
X48954Y-30801D01*
X48927Y-30814D01*
X49190Y-30762D02*
X49203Y-30749D01*
X49229Y-30735D01*
X49295Y-30735D01*
X49321Y-30749D01*
X49334Y-30762D01*
X49347Y-30788D01*
X49347Y-30814D01*
X49334Y-30854D01*
X49177Y-31011D01*
X49347Y-31011D01*
X49665Y-31011D02*
X49665Y-30735D01*
X49770Y-30735D01*
X49796Y-30749D01*
X49809Y-30762D01*
X49822Y-30788D01*
X49822Y-30827D01*
X49809Y-30854D01*
X49796Y-30867D01*
X49770Y-30880D01*
X49665Y-30880D01*
X50085Y-31011D02*
X49927Y-31011D01*
X50006Y-31011D02*
X50006Y-30735D01*
X49980Y-30775D01*
X49954Y-30801D01*
X49927Y-30814D01*
X50177Y-30735D02*
X50347Y-30735D01*
X50255Y-30840D01*
X50295Y-30840D01*
X50321Y-30854D01*
X50334Y-30867D01*
X50347Y-30893D01*
X50347Y-30959D01*
X50334Y-30985D01*
X50321Y-30998D01*
X50295Y-31011D01*
X50216Y-31011D01*
X50190Y-30998D01*
X50177Y-30985D01*
X50665Y-31011D02*
X50665Y-30735D01*
X50770Y-30735D01*
X50796Y-30749D01*
X50809Y-30762D01*
X50822Y-30788D01*
X50822Y-30827D01*
X50809Y-30854D01*
X50796Y-30867D01*
X50770Y-30880D01*
X50665Y-30880D01*
X51085Y-31011D02*
X50927Y-31011D01*
X51006Y-31011D02*
X51006Y-30735D01*
X50980Y-30775D01*
X50954Y-30801D01*
X50927Y-30814D01*
X51321Y-30827D02*
X51321Y-31011D01*
X51255Y-30722D02*
X51190Y-30919D01*
X51360Y-30919D01*
X50865Y-30411D02*
X50865Y-30135D01*
X50970Y-30135D01*
X50996Y-30149D01*
X51009Y-30162D01*
X51022Y-30188D01*
X51022Y-30227D01*
X51009Y-30254D01*
X50996Y-30267D01*
X50970Y-30280D01*
X50865Y-30280D01*
X51285Y-30411D02*
X51127Y-30411D01*
X51206Y-30411D02*
X51206Y-30135D01*
X51180Y-30175D01*
X51154Y-30201D01*
X51127Y-30214D01*
X51377Y-30135D02*
X51560Y-30135D01*
X51442Y-30411D01*
X50865Y-30011D02*
X50865Y-29735D01*
X50970Y-29735D01*
X50996Y-29749D01*
X51009Y-29762D01*
X51022Y-29788D01*
X51022Y-29827D01*
X51009Y-29854D01*
X50996Y-29867D01*
X50970Y-29880D01*
X50865Y-29880D01*
X51285Y-30011D02*
X51127Y-30011D01*
X51206Y-30011D02*
X51206Y-29735D01*
X51180Y-29775D01*
X51154Y-29801D01*
X51127Y-29814D01*
X51442Y-29854D02*
X51416Y-29840D01*
X51403Y-29827D01*
X51390Y-29801D01*
X51390Y-29788D01*
X51403Y-29762D01*
X51416Y-29749D01*
X51442Y-29735D01*
X51495Y-29735D01*
X51521Y-29749D01*
X51534Y-29762D01*
X51547Y-29788D01*
X51547Y-29801D01*
X51534Y-29827D01*
X51521Y-29840D01*
X51495Y-29854D01*
X51442Y-29854D01*
X51416Y-29867D01*
X51403Y-29880D01*
X51390Y-29906D01*
X51390Y-29959D01*
X51403Y-29985D01*
X51416Y-29998D01*
X51442Y-30011D01*
X51495Y-30011D01*
X51521Y-29998D01*
X51534Y-29985D01*
X51547Y-29959D01*
X51547Y-29906D01*
X51534Y-29880D01*
X51521Y-29867D01*
X51495Y-29854D01*
X50865Y-29611D02*
X50865Y-29335D01*
X50970Y-29335D01*
X50996Y-29349D01*
X51009Y-29362D01*
X51022Y-29388D01*
X51022Y-29427D01*
X51009Y-29454D01*
X50996Y-29467D01*
X50970Y-29480D01*
X50865Y-29480D01*
X51127Y-29362D02*
X51140Y-29349D01*
X51167Y-29335D01*
X51232Y-29335D01*
X51259Y-29349D01*
X51272Y-29362D01*
X51285Y-29388D01*
X51285Y-29414D01*
X51272Y-29454D01*
X51114Y-29611D01*
X51285Y-29611D01*
X51455Y-29335D02*
X51482Y-29335D01*
X51508Y-29349D01*
X51521Y-29362D01*
X51534Y-29388D01*
X51547Y-29440D01*
X51547Y-29506D01*
X51534Y-29559D01*
X51521Y-29585D01*
X51508Y-29598D01*
X51482Y-29611D01*
X51455Y-29611D01*
X51429Y-29598D01*
X51416Y-29585D01*
X51403Y-29559D01*
X51390Y-29506D01*
X51390Y-29440D01*
X51403Y-29388D01*
X51416Y-29362D01*
X51429Y-29349D01*
X51455Y-29335D01*
X50865Y-28611D02*
X50865Y-28335D01*
X50970Y-28335D01*
X50996Y-28349D01*
X51009Y-28362D01*
X51022Y-28388D01*
X51022Y-28427D01*
X51009Y-28454D01*
X50996Y-28467D01*
X50970Y-28480D01*
X50865Y-28480D01*
X51127Y-28362D02*
X51140Y-28349D01*
X51167Y-28335D01*
X51232Y-28335D01*
X51259Y-28349D01*
X51272Y-28362D01*
X51285Y-28388D01*
X51285Y-28414D01*
X51272Y-28454D01*
X51114Y-28611D01*
X51285Y-28611D01*
X51547Y-28611D02*
X51390Y-28611D01*
X51469Y-28611D02*
X51469Y-28335D01*
X51442Y-28375D01*
X51416Y-28401D01*
X51390Y-28414D01*
X50865Y-27611D02*
X50865Y-27335D01*
X50970Y-27335D01*
X50996Y-27349D01*
X51009Y-27362D01*
X51022Y-27388D01*
X51022Y-27427D01*
X51009Y-27454D01*
X50996Y-27467D01*
X50970Y-27480D01*
X50865Y-27480D01*
X51127Y-27362D02*
X51140Y-27349D01*
X51167Y-27335D01*
X51232Y-27335D01*
X51259Y-27349D01*
X51272Y-27362D01*
X51285Y-27388D01*
X51285Y-27414D01*
X51272Y-27454D01*
X51114Y-27611D01*
X51285Y-27611D01*
X51390Y-27362D02*
X51403Y-27349D01*
X51429Y-27335D01*
X51495Y-27335D01*
X51521Y-27349D01*
X51534Y-27362D01*
X51547Y-27388D01*
X51547Y-27414D01*
X51534Y-27454D01*
X51377Y-27611D01*
X51547Y-27611D01*
X50865Y-26211D02*
X50865Y-25935D01*
X50970Y-25935D01*
X50996Y-25949D01*
X51009Y-25962D01*
X51022Y-25988D01*
X51022Y-26027D01*
X51009Y-26054D01*
X50996Y-26067D01*
X50970Y-26080D01*
X50865Y-26080D01*
X51127Y-25962D02*
X51140Y-25949D01*
X51167Y-25935D01*
X51232Y-25935D01*
X51259Y-25949D01*
X51272Y-25962D01*
X51285Y-25988D01*
X51285Y-26014D01*
X51272Y-26054D01*
X51114Y-26211D01*
X51285Y-26211D01*
X51521Y-26027D02*
X51521Y-26211D01*
X51455Y-25922D02*
X51390Y-26119D01*
X51560Y-26119D01*
X50865Y-25811D02*
X50865Y-25535D01*
X50970Y-25535D01*
X50996Y-25549D01*
X51009Y-25562D01*
X51022Y-25588D01*
X51022Y-25627D01*
X51009Y-25654D01*
X50996Y-25667D01*
X50970Y-25680D01*
X50865Y-25680D01*
X51127Y-25562D02*
X51140Y-25549D01*
X51167Y-25535D01*
X51232Y-25535D01*
X51259Y-25549D01*
X51272Y-25562D01*
X51285Y-25588D01*
X51285Y-25614D01*
X51272Y-25654D01*
X51114Y-25811D01*
X51285Y-25811D01*
X51534Y-25535D02*
X51403Y-25535D01*
X51390Y-25667D01*
X51403Y-25654D01*
X51429Y-25640D01*
X51495Y-25640D01*
X51521Y-25654D01*
X51534Y-25667D01*
X51547Y-25693D01*
X51547Y-25759D01*
X51534Y-25785D01*
X51521Y-25798D01*
X51495Y-25811D01*
X51429Y-25811D01*
X51403Y-25798D01*
X51390Y-25785D01*
X50665Y-25211D02*
X50665Y-24935D01*
X50770Y-24935D01*
X50796Y-24949D01*
X50809Y-24962D01*
X50822Y-24988D01*
X50822Y-25027D01*
X50809Y-25054D01*
X50796Y-25067D01*
X50770Y-25080D01*
X50665Y-25080D01*
X50927Y-24962D02*
X50940Y-24949D01*
X50967Y-24935D01*
X51032Y-24935D01*
X51059Y-24949D01*
X51072Y-24962D01*
X51085Y-24988D01*
X51085Y-25014D01*
X51072Y-25054D01*
X50914Y-25211D01*
X51085Y-25211D01*
X51321Y-24935D02*
X51269Y-24935D01*
X51242Y-24949D01*
X51229Y-24962D01*
X51203Y-25001D01*
X51190Y-25054D01*
X51190Y-25159D01*
X51203Y-25185D01*
X51216Y-25198D01*
X51242Y-25211D01*
X51295Y-25211D01*
X51321Y-25198D01*
X51334Y-25185D01*
X51347Y-25159D01*
X51347Y-25093D01*
X51334Y-25067D01*
X51321Y-25054D01*
X51295Y-25040D01*
X51242Y-25040D01*
X51216Y-25054D01*
X51203Y-25067D01*
X51190Y-25093D01*
X49665Y-25211D02*
X49665Y-24935D01*
X49770Y-24935D01*
X49796Y-24949D01*
X49809Y-24962D01*
X49822Y-24988D01*
X49822Y-25027D01*
X49809Y-25054D01*
X49796Y-25067D01*
X49770Y-25080D01*
X49665Y-25080D01*
X49927Y-24962D02*
X49940Y-24949D01*
X49967Y-24935D01*
X50032Y-24935D01*
X50059Y-24949D01*
X50072Y-24962D01*
X50085Y-24988D01*
X50085Y-25014D01*
X50072Y-25054D01*
X49914Y-25211D01*
X50085Y-25211D01*
X50177Y-24935D02*
X50360Y-24935D01*
X50242Y-25211D01*
X48665Y-25211D02*
X48665Y-24935D01*
X48770Y-24935D01*
X48796Y-24949D01*
X48809Y-24962D01*
X48822Y-24988D01*
X48822Y-25027D01*
X48809Y-25054D01*
X48796Y-25067D01*
X48770Y-25080D01*
X48665Y-25080D01*
X48927Y-24962D02*
X48940Y-24949D01*
X48967Y-24935D01*
X49032Y-24935D01*
X49059Y-24949D01*
X49072Y-24962D01*
X49085Y-24988D01*
X49085Y-25014D01*
X49072Y-25054D01*
X48914Y-25211D01*
X49085Y-25211D01*
X49242Y-25054D02*
X49216Y-25040D01*
X49203Y-25027D01*
X49190Y-25001D01*
X49190Y-24988D01*
X49203Y-24962D01*
X49216Y-24949D01*
X49242Y-24935D01*
X49295Y-24935D01*
X49321Y-24949D01*
X49334Y-24962D01*
X49347Y-24988D01*
X49347Y-25001D01*
X49334Y-25027D01*
X49321Y-25040D01*
X49295Y-25054D01*
X49242Y-25054D01*
X49216Y-25067D01*
X49203Y-25080D01*
X49190Y-25106D01*
X49190Y-25159D01*
X49203Y-25185D01*
X49216Y-25198D01*
X49242Y-25211D01*
X49295Y-25211D01*
X49321Y-25198D01*
X49334Y-25185D01*
X49347Y-25159D01*
X49347Y-25106D01*
X49334Y-25080D01*
X49321Y-25067D01*
X49295Y-25054D01*
X47665Y-25211D02*
X47665Y-24935D01*
X47770Y-24935D01*
X47796Y-24949D01*
X47809Y-24962D01*
X47822Y-24988D01*
X47822Y-25027D01*
X47809Y-25054D01*
X47796Y-25067D01*
X47770Y-25080D01*
X47665Y-25080D01*
X47927Y-24962D02*
X47940Y-24949D01*
X47967Y-24935D01*
X48032Y-24935D01*
X48059Y-24949D01*
X48072Y-24962D01*
X48085Y-24988D01*
X48085Y-25014D01*
X48072Y-25054D01*
X47914Y-25211D01*
X48085Y-25211D01*
X48216Y-25211D02*
X48269Y-25211D01*
X48295Y-25198D01*
X48308Y-25185D01*
X48334Y-25145D01*
X48347Y-25093D01*
X48347Y-24988D01*
X48334Y-24962D01*
X48321Y-24949D01*
X48295Y-24935D01*
X48242Y-24935D01*
X48216Y-24949D01*
X48203Y-24962D01*
X48190Y-24988D01*
X48190Y-25054D01*
X48203Y-25080D01*
X48216Y-25093D01*
X48242Y-25106D01*
X48295Y-25106D01*
X48321Y-25093D01*
X48334Y-25080D01*
X48347Y-25054D01*
X46665Y-25211D02*
X46665Y-24935D01*
X46770Y-24935D01*
X46796Y-24949D01*
X46809Y-24962D01*
X46822Y-24988D01*
X46822Y-25027D01*
X46809Y-25054D01*
X46796Y-25067D01*
X46770Y-25080D01*
X46665Y-25080D01*
X46914Y-24935D02*
X47085Y-24935D01*
X46993Y-25040D01*
X47032Y-25040D01*
X47059Y-25054D01*
X47072Y-25067D01*
X47085Y-25093D01*
X47085Y-25159D01*
X47072Y-25185D01*
X47059Y-25198D01*
X47032Y-25211D01*
X46954Y-25211D01*
X46927Y-25198D01*
X46914Y-25185D01*
X47255Y-24935D02*
X47282Y-24935D01*
X47308Y-24949D01*
X47321Y-24962D01*
X47334Y-24988D01*
X47347Y-25040D01*
X47347Y-25106D01*
X47334Y-25159D01*
X47321Y-25185D01*
X47308Y-25198D01*
X47282Y-25211D01*
X47255Y-25211D01*
X47229Y-25198D01*
X47216Y-25185D01*
X47203Y-25159D01*
X47190Y-25106D01*
X47190Y-25040D01*
X47203Y-24988D01*
X47216Y-24962D01*
X47229Y-24949D01*
X47255Y-24935D01*
X45665Y-25211D02*
X45665Y-24935D01*
X45770Y-24935D01*
X45796Y-24949D01*
X45809Y-24962D01*
X45822Y-24988D01*
X45822Y-25027D01*
X45809Y-25054D01*
X45796Y-25067D01*
X45770Y-25080D01*
X45665Y-25080D01*
X45914Y-24935D02*
X46085Y-24935D01*
X45993Y-25040D01*
X46032Y-25040D01*
X46059Y-25054D01*
X46072Y-25067D01*
X46085Y-25093D01*
X46085Y-25159D01*
X46072Y-25185D01*
X46059Y-25198D01*
X46032Y-25211D01*
X45954Y-25211D01*
X45927Y-25198D01*
X45914Y-25185D01*
X46347Y-25211D02*
X46190Y-25211D01*
X46269Y-25211D02*
X46269Y-24935D01*
X46242Y-24975D01*
X46216Y-25001D01*
X46190Y-25014D01*
X44665Y-25211D02*
X44665Y-24935D01*
X44770Y-24935D01*
X44796Y-24949D01*
X44809Y-24962D01*
X44822Y-24988D01*
X44822Y-25027D01*
X44809Y-25054D01*
X44796Y-25067D01*
X44770Y-25080D01*
X44665Y-25080D01*
X44914Y-24935D02*
X45085Y-24935D01*
X44993Y-25040D01*
X45032Y-25040D01*
X45059Y-25054D01*
X45072Y-25067D01*
X45085Y-25093D01*
X45085Y-25159D01*
X45072Y-25185D01*
X45059Y-25198D01*
X45032Y-25211D01*
X44954Y-25211D01*
X44927Y-25198D01*
X44914Y-25185D01*
X45190Y-24962D02*
X45203Y-24949D01*
X45229Y-24935D01*
X45295Y-24935D01*
X45321Y-24949D01*
X45334Y-24962D01*
X45347Y-24988D01*
X45347Y-25014D01*
X45334Y-25054D01*
X45177Y-25211D01*
X45347Y-25211D01*
X43947Y-30735D02*
X43816Y-30735D01*
X43803Y-30867D01*
X43816Y-30854D01*
X43842Y-30840D01*
X43908Y-30840D01*
X43934Y-30854D01*
X43947Y-30867D01*
X43960Y-30893D01*
X43960Y-30959D01*
X43947Y-30985D01*
X43934Y-30998D01*
X43908Y-31011D01*
X43842Y-31011D01*
X43816Y-30998D01*
X43803Y-30985D01*
X44039Y-30735D02*
X44131Y-31011D01*
X44223Y-30735D01*
X43790Y-24949D02*
X43763Y-24935D01*
X43724Y-24935D01*
X43685Y-24949D01*
X43658Y-24975D01*
X43645Y-25001D01*
X43632Y-25054D01*
X43632Y-25093D01*
X43645Y-25145D01*
X43658Y-25172D01*
X43685Y-25198D01*
X43724Y-25211D01*
X43750Y-25211D01*
X43790Y-25198D01*
X43803Y-25185D01*
X43803Y-25093D01*
X43750Y-25093D01*
X43921Y-25211D02*
X43921Y-24935D01*
X44078Y-25211D01*
X44078Y-24935D01*
X44209Y-25211D02*
X44209Y-24935D01*
X44275Y-24935D01*
X44314Y-24949D01*
X44341Y-24975D01*
X44354Y-25001D01*
X44367Y-25054D01*
X44367Y-25093D01*
X44354Y-25145D01*
X44341Y-25172D01*
X44314Y-25198D01*
X44275Y-25211D01*
X44209Y-25211D01*
X44796Y-31011D02*
X44796Y-30735D01*
X44901Y-30735D01*
X44927Y-30749D01*
X44940Y-30762D01*
X44954Y-30788D01*
X44954Y-30827D01*
X44940Y-30854D01*
X44927Y-30867D01*
X44901Y-30880D01*
X44796Y-30880D01*
X45216Y-31011D02*
X45059Y-31011D01*
X45137Y-31011D02*
X45137Y-30735D01*
X45111Y-30775D01*
X45085Y-30801D01*
X45059Y-30814D01*
M02*
