M48
;DRILL file {Pcbnew (2013-07-07 BZR 4022)-stable} date 10/25/2013 1:54:42 PM
;FORMAT={-:-/ absolute / inch / decimal}
FMAT,2
INCH,TZ
T1C0.013
T2C0.040
T3C0.079
%
G90
G05
M72
T1
X4.915Y-2.95
X4.95Y-2.89
X4.955Y-3.015
X5.09Y-3.015
X5.245Y-2.735
X5.25Y-2.805
X5.365Y-2.95
X5.42Y-2.7
X5.475Y-2.675
X5.51Y-2.73
T2
X4.4Y-2.45
X4.4Y-3.15
X4.5Y-2.45
X4.5Y-3.15
X4.6Y-2.45
X4.6Y-3.15
X4.7Y-2.45
X4.7Y-3.15
X4.8Y-2.45
X4.8Y-3.15
X4.9Y-2.45
X4.9Y-3.15
X5.Y-2.45
X5.Y-3.15
X5.1Y-2.45
X5.1Y-3.15
X5.2Y-2.45
X5.2Y-3.15
X5.3Y-2.45
X5.3Y-3.15
X5.4Y-2.45
X5.4Y-3.15
X5.5Y-2.45
X5.5Y-3.15
X5.6Y-2.45
X5.6Y-3.15
X5.7Y-2.45
X5.7Y-2.55
X5.7Y-2.65
X5.7Y-2.75
X5.7Y-2.85
X5.7Y-2.95
X5.7Y-3.05
X5.7Y-3.15
T3
X5.1Y-2.8
T0
M30
