G04 (created by PCBNEW (2013-03-04 BZR 3984)-stable) date 10/15/2013 1:32:41 PM*
%MOIN*%
G04 Gerber Fmt 3.4, Leading zero omitted, Abs format*
%FSLAX34Y34*%
G01*
G70*
G90*
G04 APERTURE LIST*
%ADD10C,0*%
%ADD11C,0.0688976*%
%ADD12C,0.027*%
%ADD13C,0.01*%
%ADD14C,0.005*%
G04 APERTURE END LIST*
G54D10*
G54D11*
X54000Y-24500D03*
X53000Y-31500D03*
X54000Y-31500D03*
X55000Y-31500D03*
X56000Y-31500D03*
X57000Y-31500D03*
X57000Y-30500D03*
X57000Y-29500D03*
X57000Y-28500D03*
X57000Y-27500D03*
X57000Y-26500D03*
X57000Y-25500D03*
X57000Y-24500D03*
X56000Y-24500D03*
X55000Y-24500D03*
X52000Y-31500D03*
X53000Y-24500D03*
X52000Y-24500D03*
X51000Y-24500D03*
X50000Y-24500D03*
X49000Y-24500D03*
X48000Y-24500D03*
X47000Y-24500D03*
X46000Y-24500D03*
X45000Y-24500D03*
X44000Y-31500D03*
X44000Y-24500D03*
X51000Y-31500D03*
X50000Y-31500D03*
X49000Y-31500D03*
X48000Y-31500D03*
X47000Y-31500D03*
G54D10*
G36*
X49747Y-28361D02*
X49663Y-28278D01*
X49900Y-28041D01*
X49983Y-28125D01*
X49747Y-28361D01*
X49747Y-28361D01*
G37*
G36*
X49886Y-28501D02*
X49802Y-28417D01*
X50039Y-28180D01*
X50123Y-28264D01*
X49886Y-28501D01*
X49886Y-28501D01*
G37*
G36*
X50025Y-28640D02*
X49942Y-28556D01*
X50178Y-28320D01*
X50262Y-28403D01*
X50025Y-28640D01*
X50025Y-28640D01*
G37*
G36*
X50164Y-28779D02*
X50081Y-28695D01*
X50317Y-28459D01*
X50401Y-28542D01*
X50164Y-28779D01*
X50164Y-28779D01*
G37*
G36*
X50304Y-28918D02*
X50220Y-28835D01*
X50457Y-28598D01*
X50540Y-28682D01*
X50304Y-28918D01*
X50304Y-28918D01*
G37*
G36*
X50443Y-29057D02*
X50359Y-28974D01*
X50596Y-28737D01*
X50679Y-28821D01*
X50443Y-29057D01*
X50443Y-29057D01*
G37*
G36*
X50582Y-29197D02*
X50498Y-29113D01*
X50735Y-28876D01*
X50819Y-28960D01*
X50582Y-29197D01*
X50582Y-29197D01*
G37*
G36*
X50721Y-29336D02*
X50638Y-29252D01*
X50874Y-29016D01*
X50958Y-29099D01*
X50721Y-29336D01*
X50721Y-29336D01*
G37*
G36*
X52099Y-27958D02*
X52016Y-27874D01*
X52252Y-27638D01*
X52336Y-27721D01*
X52099Y-27958D01*
X52099Y-27958D01*
G37*
G36*
X51960Y-27819D02*
X51876Y-27735D01*
X52113Y-27498D01*
X52197Y-27582D01*
X51960Y-27819D01*
X51960Y-27819D01*
G37*
G36*
X51821Y-27679D02*
X51737Y-27596D01*
X51974Y-27359D01*
X52057Y-27443D01*
X51821Y-27679D01*
X51821Y-27679D01*
G37*
G36*
X51682Y-27540D02*
X51598Y-27457D01*
X51835Y-27220D01*
X51918Y-27304D01*
X51682Y-27540D01*
X51682Y-27540D01*
G37*
G36*
X51542Y-27401D02*
X51459Y-27317D01*
X51695Y-27081D01*
X51779Y-27164D01*
X51542Y-27401D01*
X51542Y-27401D01*
G37*
G36*
X51403Y-27262D02*
X51320Y-27178D01*
X51556Y-26942D01*
X51640Y-27025D01*
X51403Y-27262D01*
X51403Y-27262D01*
G37*
G36*
X51264Y-27123D02*
X51180Y-27039D01*
X51417Y-26802D01*
X51501Y-26886D01*
X51264Y-27123D01*
X51264Y-27123D01*
G37*
G36*
X51125Y-26983D02*
X51041Y-26900D01*
X51278Y-26663D01*
X51361Y-26747D01*
X51125Y-26983D01*
X51125Y-26983D01*
G37*
G36*
X51278Y-29336D02*
X51041Y-29099D01*
X51125Y-29016D01*
X51361Y-29252D01*
X51278Y-29336D01*
X51278Y-29336D01*
G37*
G36*
X51417Y-29197D02*
X51180Y-28960D01*
X51264Y-28876D01*
X51501Y-29113D01*
X51417Y-29197D01*
X51417Y-29197D01*
G37*
G36*
X51556Y-29057D02*
X51320Y-28821D01*
X51403Y-28737D01*
X51640Y-28974D01*
X51556Y-29057D01*
X51556Y-29057D01*
G37*
G36*
X51695Y-28918D02*
X51459Y-28682D01*
X51542Y-28598D01*
X51779Y-28835D01*
X51695Y-28918D01*
X51695Y-28918D01*
G37*
G36*
X51835Y-28779D02*
X51598Y-28542D01*
X51682Y-28459D01*
X51918Y-28695D01*
X51835Y-28779D01*
X51835Y-28779D01*
G37*
G36*
X51974Y-28640D02*
X51737Y-28403D01*
X51821Y-28320D01*
X52057Y-28556D01*
X51974Y-28640D01*
X51974Y-28640D01*
G37*
G36*
X52113Y-28501D02*
X51876Y-28264D01*
X51960Y-28180D01*
X52197Y-28417D01*
X52113Y-28501D01*
X52113Y-28501D01*
G37*
G36*
X52252Y-28361D02*
X52016Y-28125D01*
X52099Y-28041D01*
X52336Y-28278D01*
X52252Y-28361D01*
X52252Y-28361D01*
G37*
G36*
X50874Y-26983D02*
X50638Y-26747D01*
X50721Y-26663D01*
X50958Y-26900D01*
X50874Y-26983D01*
X50874Y-26983D01*
G37*
G36*
X50735Y-27123D02*
X50498Y-26886D01*
X50582Y-26802D01*
X50819Y-27039D01*
X50735Y-27123D01*
X50735Y-27123D01*
G37*
G36*
X50596Y-27262D02*
X50359Y-27025D01*
X50443Y-26942D01*
X50679Y-27178D01*
X50596Y-27262D01*
X50596Y-27262D01*
G37*
G36*
X50457Y-27401D02*
X50220Y-27164D01*
X50304Y-27081D01*
X50540Y-27317D01*
X50457Y-27401D01*
X50457Y-27401D01*
G37*
G36*
X50317Y-27540D02*
X50081Y-27304D01*
X50164Y-27220D01*
X50401Y-27457D01*
X50317Y-27540D01*
X50317Y-27540D01*
G37*
G36*
X50178Y-27679D02*
X49942Y-27443D01*
X50025Y-27359D01*
X50262Y-27596D01*
X50178Y-27679D01*
X50178Y-27679D01*
G37*
G36*
X50039Y-27819D02*
X49802Y-27582D01*
X49886Y-27498D01*
X50123Y-27735D01*
X50039Y-27819D01*
X50039Y-27819D01*
G37*
G36*
X49900Y-27958D02*
X49663Y-27721D01*
X49747Y-27638D01*
X49983Y-27874D01*
X49900Y-27958D01*
X49900Y-27958D01*
G37*
G36*
X51000Y-28946D02*
X50053Y-28000D01*
X51000Y-27053D01*
X51946Y-28000D01*
X51000Y-28946D01*
X51000Y-28946D01*
G37*
G54D11*
X45000Y-31500D03*
X46000Y-31500D03*
G54D12*
X49550Y-30150D03*
X53650Y-29500D03*
X50900Y-30150D03*
X52500Y-28050D03*
X52450Y-27350D03*
X55100Y-27300D03*
X54750Y-26750D03*
X49500Y-28900D03*
X49150Y-29500D03*
G54D13*
X45000Y-31500D02*
X45650Y-30850D01*
X46350Y-30850D02*
X45650Y-30850D01*
X49625Y-28400D02*
X49823Y-28201D01*
X49625Y-28400D02*
X48800Y-28400D01*
X48800Y-28400D02*
X46350Y-30850D01*
X51341Y-29036D02*
X53804Y-31500D01*
X53804Y-31500D02*
X54000Y-31500D01*
X51480Y-28897D02*
X53332Y-30750D01*
X54250Y-30750D02*
X55000Y-31500D01*
X53332Y-30750D02*
X54250Y-30750D01*
X53400Y-30550D02*
X51619Y-28769D01*
X55050Y-30550D02*
X53400Y-30550D01*
X56000Y-31500D02*
X55050Y-30550D01*
X51619Y-28769D02*
X51619Y-28758D01*
X57000Y-31500D02*
X55850Y-30350D01*
X55850Y-30350D02*
X55150Y-30350D01*
X53489Y-30350D02*
X51758Y-28619D01*
X53489Y-30350D02*
X55150Y-30350D01*
X57000Y-30500D02*
X56650Y-30150D01*
X53567Y-30150D02*
X56650Y-30150D01*
X53567Y-30150D02*
X51897Y-28480D01*
X49539Y-30139D02*
X49000Y-30139D01*
X49550Y-30150D02*
X49539Y-30139D01*
X50400Y-30150D02*
X50900Y-30150D01*
X52036Y-28341D02*
X53195Y-29500D01*
X53195Y-29500D02*
X53650Y-29500D01*
X53650Y-29500D02*
X57000Y-29500D01*
X51000Y-31500D02*
X50400Y-30900D01*
X50400Y-29295D02*
X50400Y-30150D01*
X50400Y-30150D02*
X50400Y-30900D01*
X50400Y-29295D02*
X50658Y-29036D01*
X50380Y-28758D02*
X49000Y-30139D01*
X49000Y-30139D02*
X49000Y-31500D01*
X48400Y-29100D02*
X48900Y-28600D01*
X48900Y-28600D02*
X49450Y-28600D01*
X49704Y-28600D02*
X49450Y-28600D01*
X49963Y-28341D02*
X49704Y-28600D01*
X48400Y-29100D02*
X46000Y-31500D01*
X52176Y-28201D02*
X52474Y-28500D01*
X52474Y-28500D02*
X57000Y-28500D01*
X50798Y-29176D02*
X52000Y-30378D01*
X52000Y-30378D02*
X52000Y-31500D01*
X52500Y-28050D02*
X56450Y-28050D01*
X56450Y-28050D02*
X57000Y-27500D01*
X52500Y-28050D02*
X52500Y-27700D01*
X52176Y-27798D02*
X52274Y-27700D01*
X56800Y-27700D02*
X57000Y-27500D01*
X52274Y-27700D02*
X52500Y-27700D01*
X56250Y-27250D02*
X55900Y-27600D01*
X57000Y-26500D02*
X56250Y-27250D01*
X52750Y-27250D02*
X52450Y-27250D01*
X53100Y-27600D02*
X52750Y-27250D01*
X55900Y-27600D02*
X53100Y-27600D01*
X52450Y-27250D02*
X52450Y-27350D01*
X52450Y-27250D02*
X52041Y-27658D01*
X52041Y-27658D02*
X52036Y-27658D01*
X55100Y-27300D02*
X55100Y-27000D01*
X55150Y-27250D02*
X55100Y-27300D01*
X51897Y-27519D02*
X52417Y-27000D01*
X55200Y-27000D02*
X52500Y-27000D01*
X55150Y-27000D02*
X55200Y-27000D01*
X55100Y-27000D02*
X55150Y-27000D01*
X52417Y-27000D02*
X52500Y-27000D01*
X57000Y-25500D02*
X55500Y-27000D01*
X55500Y-27000D02*
X55100Y-27000D01*
X51758Y-27380D02*
X52389Y-26750D01*
X54750Y-26750D02*
X52400Y-26750D01*
X54750Y-26750D02*
X57000Y-24500D01*
X52389Y-26750D02*
X52400Y-26750D01*
X51619Y-27241D02*
X52360Y-26500D01*
X52360Y-26500D02*
X52500Y-26500D01*
X56000Y-24500D02*
X54000Y-26500D01*
X54000Y-26500D02*
X52500Y-26500D01*
X52500Y-26500D02*
X52400Y-26500D01*
X53250Y-26250D02*
X52332Y-26250D01*
X55000Y-24500D02*
X53250Y-26250D01*
X52332Y-26250D02*
X51480Y-27102D01*
X51341Y-26963D02*
X52304Y-26000D01*
X52304Y-26000D02*
X52300Y-26000D01*
X54000Y-24500D02*
X52500Y-26000D01*
X52500Y-26000D02*
X52300Y-26000D01*
X53000Y-24500D02*
X53000Y-25025D01*
X53000Y-25025D02*
X51201Y-26823D01*
X52000Y-24500D02*
X52000Y-25621D01*
X52000Y-25621D02*
X50798Y-26823D01*
X50658Y-26963D02*
X50400Y-26704D01*
X50400Y-25100D02*
X50400Y-26700D01*
X50400Y-25100D02*
X51000Y-24500D01*
X50400Y-26704D02*
X50400Y-26700D01*
X50000Y-24500D02*
X50000Y-26582D01*
X50000Y-26582D02*
X50519Y-27102D01*
X49000Y-24500D02*
X49000Y-25860D01*
X49000Y-25860D02*
X50380Y-27241D01*
X48000Y-24500D02*
X48000Y-25139D01*
X48000Y-25139D02*
X50241Y-27380D01*
X49500Y-28900D02*
X49150Y-28900D01*
X47000Y-31050D02*
X47000Y-31500D01*
X49150Y-28900D02*
X47000Y-31050D01*
X49741Y-28841D02*
X49682Y-28900D01*
X49682Y-28900D02*
X49500Y-28900D01*
X47000Y-31500D02*
X47082Y-31500D01*
X49741Y-28841D02*
X50102Y-28480D01*
X47000Y-24500D02*
X47082Y-24500D01*
X47082Y-24500D02*
X50102Y-27519D01*
X46000Y-24500D02*
X46600Y-25100D01*
X47404Y-25100D02*
X46750Y-25100D01*
X47404Y-25100D02*
X49963Y-27658D01*
X46600Y-25100D02*
X46750Y-25100D01*
X45000Y-24500D02*
X45800Y-25300D01*
X49823Y-27798D02*
X47325Y-25300D01*
X47325Y-25300D02*
X45800Y-25300D01*
X49255Y-29605D02*
X49255Y-29605D01*
X49255Y-29605D02*
X49150Y-29500D01*
X50241Y-28619D02*
X49255Y-29605D01*
X49255Y-29605D02*
X48000Y-30860D01*
X48000Y-30860D02*
X48000Y-31500D01*
X50519Y-28897D02*
X50000Y-29417D01*
X50000Y-29417D02*
X50000Y-31500D01*
X51201Y-29176D02*
X53000Y-30974D01*
X53000Y-30974D02*
X53000Y-31500D01*
G54D10*
G36*
X57466Y-31787D02*
X57451Y-31862D01*
X57448Y-31867D01*
X57448Y-28414D01*
X57381Y-28249D01*
X57377Y-28243D01*
X57314Y-28205D01*
X57294Y-28225D01*
X57294Y-28185D01*
X57256Y-28122D01*
X57092Y-28052D01*
X56914Y-28051D01*
X56749Y-28118D01*
X56743Y-28122D01*
X56705Y-28185D01*
X57000Y-28479D01*
X57294Y-28185D01*
X57294Y-28225D01*
X57020Y-28500D01*
X57314Y-28794D01*
X57377Y-28756D01*
X57447Y-28592D01*
X57448Y-28414D01*
X57448Y-31867D01*
X57448Y-31867D01*
X57448Y-31411D01*
X57380Y-31246D01*
X57254Y-31120D01*
X57089Y-31051D01*
X56911Y-31051D01*
X56810Y-31093D01*
X56021Y-30303D01*
X56586Y-30303D01*
X56593Y-30310D01*
X56551Y-30410D01*
X56551Y-30588D01*
X56619Y-30753D01*
X56745Y-30879D01*
X56910Y-30948D01*
X57088Y-30948D01*
X57253Y-30880D01*
X57379Y-30754D01*
X57448Y-30589D01*
X57448Y-30411D01*
X57380Y-30246D01*
X57254Y-30120D01*
X57089Y-30051D01*
X56911Y-30051D01*
X56810Y-30093D01*
X56758Y-30041D01*
X56708Y-30007D01*
X56650Y-29996D01*
X53631Y-29996D01*
X53288Y-29653D01*
X53466Y-29653D01*
X53514Y-29702D01*
X53602Y-29738D01*
X53697Y-29738D01*
X53785Y-29702D01*
X53833Y-29653D01*
X56578Y-29653D01*
X56619Y-29753D01*
X56745Y-29879D01*
X56910Y-29948D01*
X57088Y-29948D01*
X57253Y-29880D01*
X57379Y-29754D01*
X57448Y-29589D01*
X57448Y-29411D01*
X57380Y-29246D01*
X57294Y-29160D01*
X57294Y-28814D01*
X57000Y-28520D01*
X56979Y-28540D01*
X56979Y-28500D01*
X56685Y-28205D01*
X56622Y-28243D01*
X56552Y-28407D01*
X56551Y-28585D01*
X56618Y-28750D01*
X56622Y-28756D01*
X56685Y-28794D01*
X56979Y-28500D01*
X56979Y-28540D01*
X56705Y-28814D01*
X56743Y-28877D01*
X56907Y-28947D01*
X57085Y-28948D01*
X57250Y-28881D01*
X57256Y-28877D01*
X57294Y-28814D01*
X57294Y-29160D01*
X57254Y-29120D01*
X57089Y-29051D01*
X56911Y-29051D01*
X56746Y-29119D01*
X56620Y-29245D01*
X56578Y-29346D01*
X53833Y-29346D01*
X53785Y-29297D01*
X53697Y-29261D01*
X53602Y-29261D01*
X53514Y-29297D01*
X53466Y-29346D01*
X53259Y-29346D01*
X52337Y-28423D01*
X52339Y-28422D01*
X52339Y-28385D01*
X52176Y-28222D01*
X52170Y-28227D01*
X52150Y-28207D01*
X52155Y-28201D01*
X52150Y-28196D01*
X52170Y-28175D01*
X52176Y-28181D01*
X52181Y-28175D01*
X52202Y-28196D01*
X52196Y-28201D01*
X52359Y-28365D01*
X52396Y-28365D01*
X52424Y-28337D01*
X52439Y-28299D01*
X52440Y-28283D01*
X52452Y-28288D01*
X52547Y-28288D01*
X52635Y-28252D01*
X52683Y-28203D01*
X56450Y-28203D01*
X56508Y-28192D01*
X56558Y-28158D01*
X56810Y-27906D01*
X56910Y-27948D01*
X57088Y-27948D01*
X57253Y-27880D01*
X57379Y-27754D01*
X57448Y-27589D01*
X57448Y-27411D01*
X57380Y-27246D01*
X57254Y-27120D01*
X57089Y-27051D01*
X56911Y-27051D01*
X56746Y-27119D01*
X56620Y-27245D01*
X56551Y-27410D01*
X56551Y-27588D01*
X56593Y-27689D01*
X56386Y-27896D01*
X52683Y-27896D01*
X52653Y-27866D01*
X52653Y-27700D01*
X52642Y-27641D01*
X52608Y-27591D01*
X52563Y-27561D01*
X52585Y-27552D01*
X52652Y-27485D01*
X52686Y-27403D01*
X52686Y-27403D01*
X52991Y-27708D01*
X52991Y-27708D01*
X53011Y-27722D01*
X53041Y-27742D01*
X53099Y-27753D01*
X53100Y-27753D01*
X55900Y-27753D01*
X55958Y-27742D01*
X56008Y-27708D01*
X56358Y-27358D01*
X56358Y-27358D01*
X56358Y-27358D01*
X56810Y-26906D01*
X56910Y-26948D01*
X57088Y-26948D01*
X57253Y-26880D01*
X57379Y-26754D01*
X57448Y-26589D01*
X57448Y-26411D01*
X57380Y-26246D01*
X57254Y-26120D01*
X57089Y-26051D01*
X56911Y-26051D01*
X56746Y-26119D01*
X56620Y-26245D01*
X56551Y-26410D01*
X56551Y-26588D01*
X56593Y-26689D01*
X56141Y-27141D01*
X56141Y-27141D01*
X55836Y-27446D01*
X55291Y-27446D01*
X55302Y-27435D01*
X55338Y-27347D01*
X55338Y-27252D01*
X55302Y-27164D01*
X55291Y-27153D01*
X55500Y-27153D01*
X55558Y-27142D01*
X55608Y-27108D01*
X56810Y-25906D01*
X56910Y-25948D01*
X57088Y-25948D01*
X57253Y-25880D01*
X57379Y-25754D01*
X57448Y-25589D01*
X57448Y-25411D01*
X57380Y-25246D01*
X57254Y-25120D01*
X57089Y-25051D01*
X56911Y-25051D01*
X56746Y-25119D01*
X56620Y-25245D01*
X56551Y-25410D01*
X56551Y-25588D01*
X56593Y-25689D01*
X55436Y-26846D01*
X55200Y-26846D01*
X55150Y-26846D01*
X55100Y-26846D01*
X54968Y-26846D01*
X54988Y-26797D01*
X54988Y-26728D01*
X56810Y-24906D01*
X56910Y-24948D01*
X57088Y-24948D01*
X57253Y-24880D01*
X57379Y-24754D01*
X57448Y-24589D01*
X57448Y-24411D01*
X57380Y-24246D01*
X57254Y-24120D01*
X57089Y-24051D01*
X56911Y-24051D01*
X56746Y-24119D01*
X56620Y-24245D01*
X56551Y-24410D01*
X56551Y-24588D01*
X56593Y-24689D01*
X54771Y-26511D01*
X54702Y-26511D01*
X54614Y-26547D01*
X54566Y-26596D01*
X54121Y-26596D01*
X55810Y-24906D01*
X55910Y-24948D01*
X56088Y-24948D01*
X56253Y-24880D01*
X56379Y-24754D01*
X56448Y-24589D01*
X56448Y-24411D01*
X56380Y-24246D01*
X56254Y-24120D01*
X56089Y-24051D01*
X55911Y-24051D01*
X55746Y-24119D01*
X55620Y-24245D01*
X55551Y-24410D01*
X55551Y-24588D01*
X55593Y-24689D01*
X53936Y-26346D01*
X53371Y-26346D01*
X54810Y-24906D01*
X54910Y-24948D01*
X55088Y-24948D01*
X55253Y-24880D01*
X55379Y-24754D01*
X55448Y-24589D01*
X55448Y-24411D01*
X55380Y-24246D01*
X55254Y-24120D01*
X55089Y-24051D01*
X54911Y-24051D01*
X54746Y-24119D01*
X54620Y-24245D01*
X54551Y-24410D01*
X54551Y-24588D01*
X54593Y-24689D01*
X53186Y-26096D01*
X52621Y-26096D01*
X53810Y-24906D01*
X53910Y-24948D01*
X54088Y-24948D01*
X54253Y-24880D01*
X54379Y-24754D01*
X54448Y-24589D01*
X54448Y-24411D01*
X54380Y-24246D01*
X54254Y-24120D01*
X54089Y-24051D01*
X53911Y-24051D01*
X53746Y-24119D01*
X53620Y-24245D01*
X53551Y-24410D01*
X53551Y-24588D01*
X53593Y-24689D01*
X52436Y-25846D01*
X52396Y-25846D01*
X53108Y-25134D01*
X53108Y-25134D01*
X53142Y-25084D01*
X53153Y-25025D01*
X53153Y-25025D01*
X53153Y-24921D01*
X53253Y-24880D01*
X53379Y-24754D01*
X53448Y-24589D01*
X53448Y-24411D01*
X53380Y-24246D01*
X53254Y-24120D01*
X53089Y-24051D01*
X52911Y-24051D01*
X52746Y-24119D01*
X52620Y-24245D01*
X52551Y-24410D01*
X52551Y-24588D01*
X52619Y-24753D01*
X52745Y-24879D01*
X52846Y-24921D01*
X52846Y-24961D01*
X52145Y-25662D01*
X52153Y-25621D01*
X52153Y-25621D01*
X52153Y-24921D01*
X52253Y-24880D01*
X52379Y-24754D01*
X52448Y-24589D01*
X52448Y-24411D01*
X52380Y-24246D01*
X52254Y-24120D01*
X52089Y-24051D01*
X51911Y-24051D01*
X51746Y-24119D01*
X51620Y-24245D01*
X51551Y-24410D01*
X51551Y-24588D01*
X51619Y-24753D01*
X51745Y-24879D01*
X51846Y-24921D01*
X51846Y-25558D01*
X50804Y-26599D01*
X50780Y-26575D01*
X50742Y-26560D01*
X50701Y-26559D01*
X50662Y-26575D01*
X50633Y-26604D01*
X50576Y-26662D01*
X50553Y-26640D01*
X50553Y-25163D01*
X50810Y-24906D01*
X50910Y-24948D01*
X51088Y-24948D01*
X51253Y-24880D01*
X51379Y-24754D01*
X51448Y-24589D01*
X51448Y-24411D01*
X51380Y-24246D01*
X51254Y-24120D01*
X51089Y-24051D01*
X50911Y-24051D01*
X50746Y-24119D01*
X50620Y-24245D01*
X50551Y-24410D01*
X50551Y-24588D01*
X50593Y-24689D01*
X50291Y-24991D01*
X50257Y-25041D01*
X50246Y-25100D01*
X50246Y-26611D01*
X50153Y-26518D01*
X50153Y-24921D01*
X50253Y-24880D01*
X50379Y-24754D01*
X50448Y-24589D01*
X50448Y-24411D01*
X50380Y-24246D01*
X50254Y-24120D01*
X50089Y-24051D01*
X49911Y-24051D01*
X49746Y-24119D01*
X49620Y-24245D01*
X49551Y-24410D01*
X49551Y-24588D01*
X49619Y-24753D01*
X49745Y-24879D01*
X49846Y-24921D01*
X49846Y-26489D01*
X49153Y-25797D01*
X49153Y-24921D01*
X49253Y-24880D01*
X49379Y-24754D01*
X49448Y-24589D01*
X49448Y-24411D01*
X49380Y-24246D01*
X49254Y-24120D01*
X49089Y-24051D01*
X48911Y-24051D01*
X48746Y-24119D01*
X48620Y-24245D01*
X48551Y-24410D01*
X48551Y-24588D01*
X48619Y-24753D01*
X48745Y-24879D01*
X48846Y-24921D01*
X48846Y-25768D01*
X48153Y-25075D01*
X48153Y-24921D01*
X48253Y-24880D01*
X48379Y-24754D01*
X48448Y-24589D01*
X48448Y-24411D01*
X48380Y-24246D01*
X48254Y-24120D01*
X48089Y-24051D01*
X47911Y-24051D01*
X47746Y-24119D01*
X47620Y-24245D01*
X47551Y-24410D01*
X47551Y-24588D01*
X47619Y-24753D01*
X47745Y-24879D01*
X47846Y-24921D01*
X47846Y-25046D01*
X47430Y-24631D01*
X47448Y-24589D01*
X47448Y-24411D01*
X47380Y-24246D01*
X47254Y-24120D01*
X47089Y-24051D01*
X46911Y-24051D01*
X46746Y-24119D01*
X46620Y-24245D01*
X46551Y-24410D01*
X46551Y-24588D01*
X46619Y-24753D01*
X46745Y-24879D01*
X46905Y-24946D01*
X46750Y-24946D01*
X46663Y-24946D01*
X46406Y-24689D01*
X46448Y-24589D01*
X46448Y-24411D01*
X46380Y-24246D01*
X46254Y-24120D01*
X46089Y-24051D01*
X45911Y-24051D01*
X45746Y-24119D01*
X45620Y-24245D01*
X45551Y-24410D01*
X45551Y-24588D01*
X45619Y-24753D01*
X45745Y-24879D01*
X45910Y-24948D01*
X46088Y-24948D01*
X46189Y-24906D01*
X46428Y-25146D01*
X45863Y-25146D01*
X45406Y-24689D01*
X45448Y-24589D01*
X45448Y-24411D01*
X45380Y-24246D01*
X45254Y-24120D01*
X45089Y-24051D01*
X44911Y-24051D01*
X44746Y-24119D01*
X44620Y-24245D01*
X44551Y-24410D01*
X44551Y-24588D01*
X44619Y-24753D01*
X44745Y-24879D01*
X44910Y-24948D01*
X45088Y-24948D01*
X45189Y-24906D01*
X45691Y-25408D01*
X45691Y-25408D01*
X45724Y-25430D01*
X45741Y-25442D01*
X45741Y-25442D01*
X45799Y-25453D01*
X45800Y-25453D01*
X47261Y-25453D01*
X49566Y-27758D01*
X49575Y-27780D01*
X49604Y-27809D01*
X49795Y-28000D01*
X49575Y-28219D01*
X49566Y-28241D01*
X49561Y-28246D01*
X48800Y-28246D01*
X48741Y-28257D01*
X48691Y-28291D01*
X48691Y-28291D01*
X48691Y-28291D01*
X46286Y-30696D01*
X45650Y-30696D01*
X45591Y-30707D01*
X45541Y-30741D01*
X45189Y-31093D01*
X45089Y-31051D01*
X44911Y-31051D01*
X44746Y-31119D01*
X44620Y-31245D01*
X44551Y-31410D01*
X44551Y-31588D01*
X44619Y-31753D01*
X44745Y-31879D01*
X44910Y-31948D01*
X45088Y-31948D01*
X45253Y-31880D01*
X45379Y-31754D01*
X45448Y-31589D01*
X45448Y-31411D01*
X45406Y-31310D01*
X45713Y-31003D01*
X46350Y-31003D01*
X46408Y-30992D01*
X46458Y-30958D01*
X48863Y-28553D01*
X49625Y-28553D01*
X49684Y-28542D01*
X49734Y-28508D01*
X49740Y-28502D01*
X49744Y-28505D01*
X49742Y-28504D01*
X49779Y-28504D01*
X49942Y-28341D01*
X49937Y-28335D01*
X49957Y-28315D01*
X49963Y-28320D01*
X49968Y-28315D01*
X49988Y-28335D01*
X49983Y-28341D01*
X49988Y-28346D01*
X49968Y-28366D01*
X49963Y-28361D01*
X49799Y-28524D01*
X49799Y-28561D01*
X49798Y-28559D01*
X49801Y-28563D01*
X49651Y-28713D01*
X49635Y-28697D01*
X49547Y-28661D01*
X49452Y-28661D01*
X49364Y-28697D01*
X49316Y-28746D01*
X49150Y-28746D01*
X49091Y-28757D01*
X49041Y-28791D01*
X46891Y-30941D01*
X46857Y-30991D01*
X46846Y-31050D01*
X46846Y-31078D01*
X46746Y-31119D01*
X46620Y-31245D01*
X46551Y-31410D01*
X46551Y-31588D01*
X46619Y-31753D01*
X46745Y-31879D01*
X46910Y-31948D01*
X47088Y-31948D01*
X47253Y-31880D01*
X47379Y-31754D01*
X47448Y-31589D01*
X47448Y-31411D01*
X47380Y-31246D01*
X47254Y-31120D01*
X47178Y-31088D01*
X49213Y-29053D01*
X49316Y-29053D01*
X49364Y-29102D01*
X49452Y-29138D01*
X49504Y-29138D01*
X49315Y-29327D01*
X49285Y-29297D01*
X49197Y-29261D01*
X49102Y-29261D01*
X49014Y-29297D01*
X48947Y-29364D01*
X48911Y-29452D01*
X48911Y-29547D01*
X48947Y-29635D01*
X48977Y-29665D01*
X47891Y-30752D01*
X47857Y-30801D01*
X47846Y-30860D01*
X47846Y-31078D01*
X47746Y-31119D01*
X47620Y-31245D01*
X47551Y-31410D01*
X47551Y-31588D01*
X47619Y-31753D01*
X47745Y-31879D01*
X47910Y-31948D01*
X48088Y-31948D01*
X48253Y-31880D01*
X48379Y-31754D01*
X48448Y-31589D01*
X48448Y-31411D01*
X48380Y-31246D01*
X48254Y-31120D01*
X48153Y-31078D01*
X48153Y-30924D01*
X48846Y-30231D01*
X48846Y-31078D01*
X48746Y-31119D01*
X48620Y-31245D01*
X48551Y-31410D01*
X48551Y-31588D01*
X48619Y-31753D01*
X48745Y-31879D01*
X48910Y-31948D01*
X49088Y-31948D01*
X49253Y-31880D01*
X49379Y-31754D01*
X49448Y-31589D01*
X49448Y-31411D01*
X49380Y-31246D01*
X49254Y-31120D01*
X49153Y-31078D01*
X49153Y-30292D01*
X49355Y-30292D01*
X49414Y-30352D01*
X49502Y-30388D01*
X49597Y-30388D01*
X49685Y-30352D01*
X49752Y-30285D01*
X49788Y-30197D01*
X49788Y-30102D01*
X49752Y-30014D01*
X49685Y-29947D01*
X49597Y-29911D01*
X49502Y-29911D01*
X49414Y-29947D01*
X49376Y-29985D01*
X49371Y-29985D01*
X49846Y-29510D01*
X49846Y-31078D01*
X49746Y-31119D01*
X49620Y-31245D01*
X49551Y-31410D01*
X49551Y-31588D01*
X49619Y-31753D01*
X49745Y-31879D01*
X49910Y-31948D01*
X50088Y-31948D01*
X50253Y-31880D01*
X50379Y-31754D01*
X50448Y-31589D01*
X50448Y-31411D01*
X50380Y-31246D01*
X50254Y-31120D01*
X50153Y-31078D01*
X50153Y-29481D01*
X50246Y-29388D01*
X50246Y-30150D01*
X50246Y-30900D01*
X50257Y-30958D01*
X50291Y-31008D01*
X50593Y-31310D01*
X50551Y-31410D01*
X50551Y-31588D01*
X50619Y-31753D01*
X50745Y-31879D01*
X50910Y-31948D01*
X51088Y-31948D01*
X51253Y-31880D01*
X51379Y-31754D01*
X51448Y-31589D01*
X51448Y-31411D01*
X51380Y-31246D01*
X51254Y-31120D01*
X51089Y-31051D01*
X50911Y-31051D01*
X50810Y-31093D01*
X50553Y-30836D01*
X50553Y-30303D01*
X50716Y-30303D01*
X50764Y-30352D01*
X50852Y-30388D01*
X50947Y-30388D01*
X51035Y-30352D01*
X51102Y-30285D01*
X51138Y-30197D01*
X51138Y-30102D01*
X51102Y-30014D01*
X51035Y-29947D01*
X50947Y-29911D01*
X50884Y-29911D01*
X50884Y-29319D01*
X50884Y-29283D01*
X50798Y-29196D01*
X50634Y-29359D01*
X50634Y-29396D01*
X50633Y-29395D01*
X50662Y-29424D01*
X50701Y-29440D01*
X50742Y-29439D01*
X50780Y-29424D01*
X50884Y-29319D01*
X50884Y-29911D01*
X50852Y-29911D01*
X50764Y-29947D01*
X50716Y-29996D01*
X50553Y-29996D01*
X50553Y-29359D01*
X50576Y-29337D01*
X50579Y-29340D01*
X50577Y-29339D01*
X50614Y-29339D01*
X50777Y-29176D01*
X50772Y-29170D01*
X50792Y-29150D01*
X50798Y-29155D01*
X50803Y-29150D01*
X50824Y-29170D01*
X50818Y-29176D01*
X50905Y-29262D01*
X50941Y-29262D01*
X50999Y-29204D01*
X51219Y-29424D01*
X51241Y-29433D01*
X52846Y-31038D01*
X52846Y-31078D01*
X52746Y-31119D01*
X52620Y-31245D01*
X52551Y-31410D01*
X52551Y-31588D01*
X52619Y-31753D01*
X52745Y-31879D01*
X52910Y-31948D01*
X53088Y-31948D01*
X53253Y-31880D01*
X53379Y-31754D01*
X53448Y-31589D01*
X53448Y-31411D01*
X53413Y-31326D01*
X53551Y-31465D01*
X53551Y-31588D01*
X53619Y-31753D01*
X53745Y-31879D01*
X53910Y-31948D01*
X54088Y-31948D01*
X54253Y-31880D01*
X54379Y-31754D01*
X54448Y-31589D01*
X54448Y-31411D01*
X54380Y-31246D01*
X54254Y-31120D01*
X54089Y-31051D01*
X53911Y-31051D01*
X53746Y-31119D01*
X53693Y-31172D01*
X53425Y-30903D01*
X54186Y-30903D01*
X54593Y-31310D01*
X54551Y-31410D01*
X54551Y-31588D01*
X54619Y-31753D01*
X54745Y-31879D01*
X54910Y-31948D01*
X55088Y-31948D01*
X55253Y-31880D01*
X55379Y-31754D01*
X55448Y-31589D01*
X55448Y-31411D01*
X55380Y-31246D01*
X55254Y-31120D01*
X55089Y-31051D01*
X54911Y-31051D01*
X54810Y-31093D01*
X54421Y-30703D01*
X54986Y-30703D01*
X55593Y-31310D01*
X55551Y-31410D01*
X55551Y-31588D01*
X55619Y-31753D01*
X55745Y-31879D01*
X55910Y-31948D01*
X56088Y-31948D01*
X56253Y-31880D01*
X56379Y-31754D01*
X56448Y-31589D01*
X56448Y-31411D01*
X56380Y-31246D01*
X56254Y-31120D01*
X56089Y-31051D01*
X55911Y-31051D01*
X55810Y-31093D01*
X55221Y-30503D01*
X55786Y-30503D01*
X56593Y-31310D01*
X56551Y-31410D01*
X56551Y-31588D01*
X56619Y-31753D01*
X56745Y-31879D01*
X56910Y-31948D01*
X57088Y-31948D01*
X57253Y-31880D01*
X57379Y-31754D01*
X57448Y-31589D01*
X57448Y-31411D01*
X57448Y-31867D01*
X57416Y-31915D01*
X57362Y-31951D01*
X57286Y-31966D01*
X52448Y-31966D01*
X52448Y-31414D01*
X52381Y-31249D01*
X52377Y-31243D01*
X52314Y-31205D01*
X52294Y-31225D01*
X52294Y-31185D01*
X52256Y-31122D01*
X52092Y-31052D01*
X51914Y-31051D01*
X51749Y-31118D01*
X51743Y-31122D01*
X51705Y-31185D01*
X52000Y-31479D01*
X52294Y-31185D01*
X52294Y-31225D01*
X52020Y-31500D01*
X52314Y-31794D01*
X52377Y-31756D01*
X52447Y-31592D01*
X52448Y-31414D01*
X52448Y-31966D01*
X52294Y-31966D01*
X52294Y-31814D01*
X52000Y-31520D01*
X51979Y-31540D01*
X51979Y-31500D01*
X51685Y-31205D01*
X51622Y-31243D01*
X51552Y-31407D01*
X51551Y-31585D01*
X51618Y-31750D01*
X51622Y-31756D01*
X51685Y-31794D01*
X51979Y-31500D01*
X51979Y-31540D01*
X51705Y-31814D01*
X51743Y-31877D01*
X51907Y-31947D01*
X52085Y-31948D01*
X52250Y-31881D01*
X52256Y-31877D01*
X52294Y-31814D01*
X52294Y-31966D01*
X46448Y-31966D01*
X46448Y-31414D01*
X46381Y-31249D01*
X46377Y-31243D01*
X46314Y-31205D01*
X46294Y-31225D01*
X46294Y-31185D01*
X46256Y-31122D01*
X46092Y-31052D01*
X45914Y-31051D01*
X45749Y-31118D01*
X45743Y-31122D01*
X45705Y-31185D01*
X46000Y-31479D01*
X46294Y-31185D01*
X46294Y-31225D01*
X46020Y-31500D01*
X46314Y-31794D01*
X46377Y-31756D01*
X46447Y-31592D01*
X46448Y-31414D01*
X46448Y-31966D01*
X46294Y-31966D01*
X46294Y-31814D01*
X46000Y-31520D01*
X45979Y-31540D01*
X45979Y-31500D01*
X45685Y-31205D01*
X45622Y-31243D01*
X45552Y-31407D01*
X45551Y-31585D01*
X45618Y-31750D01*
X45622Y-31756D01*
X45685Y-31794D01*
X45979Y-31500D01*
X45979Y-31540D01*
X45705Y-31814D01*
X45743Y-31877D01*
X45907Y-31947D01*
X46085Y-31948D01*
X46250Y-31881D01*
X46256Y-31877D01*
X46294Y-31814D01*
X46294Y-31966D01*
X44448Y-31966D01*
X44448Y-24414D01*
X44381Y-24249D01*
X44377Y-24243D01*
X44314Y-24205D01*
X44294Y-24225D01*
X44294Y-24185D01*
X44256Y-24122D01*
X44092Y-24052D01*
X43914Y-24051D01*
X43749Y-24118D01*
X43743Y-24122D01*
X43705Y-24185D01*
X44000Y-24479D01*
X44294Y-24185D01*
X44294Y-24225D01*
X44020Y-24500D01*
X44314Y-24794D01*
X44377Y-24756D01*
X44447Y-24592D01*
X44448Y-24414D01*
X44448Y-31966D01*
X44448Y-31966D01*
X44448Y-31411D01*
X44380Y-31246D01*
X44294Y-31160D01*
X44294Y-24814D01*
X44000Y-24520D01*
X43979Y-24540D01*
X43979Y-24500D01*
X43685Y-24205D01*
X43622Y-24243D01*
X43552Y-24407D01*
X43551Y-24585D01*
X43618Y-24750D01*
X43622Y-24756D01*
X43685Y-24794D01*
X43979Y-24500D01*
X43979Y-24540D01*
X43705Y-24814D01*
X43743Y-24877D01*
X43907Y-24947D01*
X44085Y-24948D01*
X44250Y-24881D01*
X44256Y-24877D01*
X44294Y-24814D01*
X44294Y-31160D01*
X44254Y-31120D01*
X44089Y-31051D01*
X43911Y-31051D01*
X43746Y-31119D01*
X43620Y-31245D01*
X43551Y-31410D01*
X43551Y-31588D01*
X43619Y-31753D01*
X43745Y-31879D01*
X43910Y-31948D01*
X44088Y-31948D01*
X44253Y-31880D01*
X44379Y-31754D01*
X44448Y-31589D01*
X44448Y-31411D01*
X44448Y-31966D01*
X43712Y-31966D01*
X43637Y-31951D01*
X43584Y-31916D01*
X43548Y-31862D01*
X43533Y-31786D01*
X43533Y-24213D01*
X43548Y-24137D01*
X43584Y-24083D01*
X43637Y-24048D01*
X43712Y-24033D01*
X57286Y-24033D01*
X57362Y-24048D01*
X57416Y-24084D01*
X57451Y-24137D01*
X57466Y-24212D01*
X57466Y-31787D01*
X57466Y-31787D01*
G37*
G54D14*
X57466Y-31787D02*
X57451Y-31862D01*
X57448Y-31867D01*
X57448Y-28414D01*
X57381Y-28249D01*
X57377Y-28243D01*
X57314Y-28205D01*
X57294Y-28225D01*
X57294Y-28185D01*
X57256Y-28122D01*
X57092Y-28052D01*
X56914Y-28051D01*
X56749Y-28118D01*
X56743Y-28122D01*
X56705Y-28185D01*
X57000Y-28479D01*
X57294Y-28185D01*
X57294Y-28225D01*
X57020Y-28500D01*
X57314Y-28794D01*
X57377Y-28756D01*
X57447Y-28592D01*
X57448Y-28414D01*
X57448Y-31867D01*
X57448Y-31867D01*
X57448Y-31411D01*
X57380Y-31246D01*
X57254Y-31120D01*
X57089Y-31051D01*
X56911Y-31051D01*
X56810Y-31093D01*
X56021Y-30303D01*
X56586Y-30303D01*
X56593Y-30310D01*
X56551Y-30410D01*
X56551Y-30588D01*
X56619Y-30753D01*
X56745Y-30879D01*
X56910Y-30948D01*
X57088Y-30948D01*
X57253Y-30880D01*
X57379Y-30754D01*
X57448Y-30589D01*
X57448Y-30411D01*
X57380Y-30246D01*
X57254Y-30120D01*
X57089Y-30051D01*
X56911Y-30051D01*
X56810Y-30093D01*
X56758Y-30041D01*
X56708Y-30007D01*
X56650Y-29996D01*
X53631Y-29996D01*
X53288Y-29653D01*
X53466Y-29653D01*
X53514Y-29702D01*
X53602Y-29738D01*
X53697Y-29738D01*
X53785Y-29702D01*
X53833Y-29653D01*
X56578Y-29653D01*
X56619Y-29753D01*
X56745Y-29879D01*
X56910Y-29948D01*
X57088Y-29948D01*
X57253Y-29880D01*
X57379Y-29754D01*
X57448Y-29589D01*
X57448Y-29411D01*
X57380Y-29246D01*
X57294Y-29160D01*
X57294Y-28814D01*
X57000Y-28520D01*
X56979Y-28540D01*
X56979Y-28500D01*
X56685Y-28205D01*
X56622Y-28243D01*
X56552Y-28407D01*
X56551Y-28585D01*
X56618Y-28750D01*
X56622Y-28756D01*
X56685Y-28794D01*
X56979Y-28500D01*
X56979Y-28540D01*
X56705Y-28814D01*
X56743Y-28877D01*
X56907Y-28947D01*
X57085Y-28948D01*
X57250Y-28881D01*
X57256Y-28877D01*
X57294Y-28814D01*
X57294Y-29160D01*
X57254Y-29120D01*
X57089Y-29051D01*
X56911Y-29051D01*
X56746Y-29119D01*
X56620Y-29245D01*
X56578Y-29346D01*
X53833Y-29346D01*
X53785Y-29297D01*
X53697Y-29261D01*
X53602Y-29261D01*
X53514Y-29297D01*
X53466Y-29346D01*
X53259Y-29346D01*
X52337Y-28423D01*
X52339Y-28422D01*
X52339Y-28385D01*
X52176Y-28222D01*
X52170Y-28227D01*
X52150Y-28207D01*
X52155Y-28201D01*
X52150Y-28196D01*
X52170Y-28175D01*
X52176Y-28181D01*
X52181Y-28175D01*
X52202Y-28196D01*
X52196Y-28201D01*
X52359Y-28365D01*
X52396Y-28365D01*
X52424Y-28337D01*
X52439Y-28299D01*
X52440Y-28283D01*
X52452Y-28288D01*
X52547Y-28288D01*
X52635Y-28252D01*
X52683Y-28203D01*
X56450Y-28203D01*
X56508Y-28192D01*
X56558Y-28158D01*
X56810Y-27906D01*
X56910Y-27948D01*
X57088Y-27948D01*
X57253Y-27880D01*
X57379Y-27754D01*
X57448Y-27589D01*
X57448Y-27411D01*
X57380Y-27246D01*
X57254Y-27120D01*
X57089Y-27051D01*
X56911Y-27051D01*
X56746Y-27119D01*
X56620Y-27245D01*
X56551Y-27410D01*
X56551Y-27588D01*
X56593Y-27689D01*
X56386Y-27896D01*
X52683Y-27896D01*
X52653Y-27866D01*
X52653Y-27700D01*
X52642Y-27641D01*
X52608Y-27591D01*
X52563Y-27561D01*
X52585Y-27552D01*
X52652Y-27485D01*
X52686Y-27403D01*
X52686Y-27403D01*
X52991Y-27708D01*
X52991Y-27708D01*
X53011Y-27722D01*
X53041Y-27742D01*
X53099Y-27753D01*
X53100Y-27753D01*
X55900Y-27753D01*
X55958Y-27742D01*
X56008Y-27708D01*
X56358Y-27358D01*
X56358Y-27358D01*
X56358Y-27358D01*
X56810Y-26906D01*
X56910Y-26948D01*
X57088Y-26948D01*
X57253Y-26880D01*
X57379Y-26754D01*
X57448Y-26589D01*
X57448Y-26411D01*
X57380Y-26246D01*
X57254Y-26120D01*
X57089Y-26051D01*
X56911Y-26051D01*
X56746Y-26119D01*
X56620Y-26245D01*
X56551Y-26410D01*
X56551Y-26588D01*
X56593Y-26689D01*
X56141Y-27141D01*
X56141Y-27141D01*
X55836Y-27446D01*
X55291Y-27446D01*
X55302Y-27435D01*
X55338Y-27347D01*
X55338Y-27252D01*
X55302Y-27164D01*
X55291Y-27153D01*
X55500Y-27153D01*
X55558Y-27142D01*
X55608Y-27108D01*
X56810Y-25906D01*
X56910Y-25948D01*
X57088Y-25948D01*
X57253Y-25880D01*
X57379Y-25754D01*
X57448Y-25589D01*
X57448Y-25411D01*
X57380Y-25246D01*
X57254Y-25120D01*
X57089Y-25051D01*
X56911Y-25051D01*
X56746Y-25119D01*
X56620Y-25245D01*
X56551Y-25410D01*
X56551Y-25588D01*
X56593Y-25689D01*
X55436Y-26846D01*
X55200Y-26846D01*
X55150Y-26846D01*
X55100Y-26846D01*
X54968Y-26846D01*
X54988Y-26797D01*
X54988Y-26728D01*
X56810Y-24906D01*
X56910Y-24948D01*
X57088Y-24948D01*
X57253Y-24880D01*
X57379Y-24754D01*
X57448Y-24589D01*
X57448Y-24411D01*
X57380Y-24246D01*
X57254Y-24120D01*
X57089Y-24051D01*
X56911Y-24051D01*
X56746Y-24119D01*
X56620Y-24245D01*
X56551Y-24410D01*
X56551Y-24588D01*
X56593Y-24689D01*
X54771Y-26511D01*
X54702Y-26511D01*
X54614Y-26547D01*
X54566Y-26596D01*
X54121Y-26596D01*
X55810Y-24906D01*
X55910Y-24948D01*
X56088Y-24948D01*
X56253Y-24880D01*
X56379Y-24754D01*
X56448Y-24589D01*
X56448Y-24411D01*
X56380Y-24246D01*
X56254Y-24120D01*
X56089Y-24051D01*
X55911Y-24051D01*
X55746Y-24119D01*
X55620Y-24245D01*
X55551Y-24410D01*
X55551Y-24588D01*
X55593Y-24689D01*
X53936Y-26346D01*
X53371Y-26346D01*
X54810Y-24906D01*
X54910Y-24948D01*
X55088Y-24948D01*
X55253Y-24880D01*
X55379Y-24754D01*
X55448Y-24589D01*
X55448Y-24411D01*
X55380Y-24246D01*
X55254Y-24120D01*
X55089Y-24051D01*
X54911Y-24051D01*
X54746Y-24119D01*
X54620Y-24245D01*
X54551Y-24410D01*
X54551Y-24588D01*
X54593Y-24689D01*
X53186Y-26096D01*
X52621Y-26096D01*
X53810Y-24906D01*
X53910Y-24948D01*
X54088Y-24948D01*
X54253Y-24880D01*
X54379Y-24754D01*
X54448Y-24589D01*
X54448Y-24411D01*
X54380Y-24246D01*
X54254Y-24120D01*
X54089Y-24051D01*
X53911Y-24051D01*
X53746Y-24119D01*
X53620Y-24245D01*
X53551Y-24410D01*
X53551Y-24588D01*
X53593Y-24689D01*
X52436Y-25846D01*
X52396Y-25846D01*
X53108Y-25134D01*
X53108Y-25134D01*
X53142Y-25084D01*
X53153Y-25025D01*
X53153Y-25025D01*
X53153Y-24921D01*
X53253Y-24880D01*
X53379Y-24754D01*
X53448Y-24589D01*
X53448Y-24411D01*
X53380Y-24246D01*
X53254Y-24120D01*
X53089Y-24051D01*
X52911Y-24051D01*
X52746Y-24119D01*
X52620Y-24245D01*
X52551Y-24410D01*
X52551Y-24588D01*
X52619Y-24753D01*
X52745Y-24879D01*
X52846Y-24921D01*
X52846Y-24961D01*
X52145Y-25662D01*
X52153Y-25621D01*
X52153Y-25621D01*
X52153Y-24921D01*
X52253Y-24880D01*
X52379Y-24754D01*
X52448Y-24589D01*
X52448Y-24411D01*
X52380Y-24246D01*
X52254Y-24120D01*
X52089Y-24051D01*
X51911Y-24051D01*
X51746Y-24119D01*
X51620Y-24245D01*
X51551Y-24410D01*
X51551Y-24588D01*
X51619Y-24753D01*
X51745Y-24879D01*
X51846Y-24921D01*
X51846Y-25558D01*
X50804Y-26599D01*
X50780Y-26575D01*
X50742Y-26560D01*
X50701Y-26559D01*
X50662Y-26575D01*
X50633Y-26604D01*
X50576Y-26662D01*
X50553Y-26640D01*
X50553Y-25163D01*
X50810Y-24906D01*
X50910Y-24948D01*
X51088Y-24948D01*
X51253Y-24880D01*
X51379Y-24754D01*
X51448Y-24589D01*
X51448Y-24411D01*
X51380Y-24246D01*
X51254Y-24120D01*
X51089Y-24051D01*
X50911Y-24051D01*
X50746Y-24119D01*
X50620Y-24245D01*
X50551Y-24410D01*
X50551Y-24588D01*
X50593Y-24689D01*
X50291Y-24991D01*
X50257Y-25041D01*
X50246Y-25100D01*
X50246Y-26611D01*
X50153Y-26518D01*
X50153Y-24921D01*
X50253Y-24880D01*
X50379Y-24754D01*
X50448Y-24589D01*
X50448Y-24411D01*
X50380Y-24246D01*
X50254Y-24120D01*
X50089Y-24051D01*
X49911Y-24051D01*
X49746Y-24119D01*
X49620Y-24245D01*
X49551Y-24410D01*
X49551Y-24588D01*
X49619Y-24753D01*
X49745Y-24879D01*
X49846Y-24921D01*
X49846Y-26489D01*
X49153Y-25797D01*
X49153Y-24921D01*
X49253Y-24880D01*
X49379Y-24754D01*
X49448Y-24589D01*
X49448Y-24411D01*
X49380Y-24246D01*
X49254Y-24120D01*
X49089Y-24051D01*
X48911Y-24051D01*
X48746Y-24119D01*
X48620Y-24245D01*
X48551Y-24410D01*
X48551Y-24588D01*
X48619Y-24753D01*
X48745Y-24879D01*
X48846Y-24921D01*
X48846Y-25768D01*
X48153Y-25075D01*
X48153Y-24921D01*
X48253Y-24880D01*
X48379Y-24754D01*
X48448Y-24589D01*
X48448Y-24411D01*
X48380Y-24246D01*
X48254Y-24120D01*
X48089Y-24051D01*
X47911Y-24051D01*
X47746Y-24119D01*
X47620Y-24245D01*
X47551Y-24410D01*
X47551Y-24588D01*
X47619Y-24753D01*
X47745Y-24879D01*
X47846Y-24921D01*
X47846Y-25046D01*
X47430Y-24631D01*
X47448Y-24589D01*
X47448Y-24411D01*
X47380Y-24246D01*
X47254Y-24120D01*
X47089Y-24051D01*
X46911Y-24051D01*
X46746Y-24119D01*
X46620Y-24245D01*
X46551Y-24410D01*
X46551Y-24588D01*
X46619Y-24753D01*
X46745Y-24879D01*
X46905Y-24946D01*
X46750Y-24946D01*
X46663Y-24946D01*
X46406Y-24689D01*
X46448Y-24589D01*
X46448Y-24411D01*
X46380Y-24246D01*
X46254Y-24120D01*
X46089Y-24051D01*
X45911Y-24051D01*
X45746Y-24119D01*
X45620Y-24245D01*
X45551Y-24410D01*
X45551Y-24588D01*
X45619Y-24753D01*
X45745Y-24879D01*
X45910Y-24948D01*
X46088Y-24948D01*
X46189Y-24906D01*
X46428Y-25146D01*
X45863Y-25146D01*
X45406Y-24689D01*
X45448Y-24589D01*
X45448Y-24411D01*
X45380Y-24246D01*
X45254Y-24120D01*
X45089Y-24051D01*
X44911Y-24051D01*
X44746Y-24119D01*
X44620Y-24245D01*
X44551Y-24410D01*
X44551Y-24588D01*
X44619Y-24753D01*
X44745Y-24879D01*
X44910Y-24948D01*
X45088Y-24948D01*
X45189Y-24906D01*
X45691Y-25408D01*
X45691Y-25408D01*
X45724Y-25430D01*
X45741Y-25442D01*
X45741Y-25442D01*
X45799Y-25453D01*
X45800Y-25453D01*
X47261Y-25453D01*
X49566Y-27758D01*
X49575Y-27780D01*
X49604Y-27809D01*
X49795Y-28000D01*
X49575Y-28219D01*
X49566Y-28241D01*
X49561Y-28246D01*
X48800Y-28246D01*
X48741Y-28257D01*
X48691Y-28291D01*
X48691Y-28291D01*
X48691Y-28291D01*
X46286Y-30696D01*
X45650Y-30696D01*
X45591Y-30707D01*
X45541Y-30741D01*
X45189Y-31093D01*
X45089Y-31051D01*
X44911Y-31051D01*
X44746Y-31119D01*
X44620Y-31245D01*
X44551Y-31410D01*
X44551Y-31588D01*
X44619Y-31753D01*
X44745Y-31879D01*
X44910Y-31948D01*
X45088Y-31948D01*
X45253Y-31880D01*
X45379Y-31754D01*
X45448Y-31589D01*
X45448Y-31411D01*
X45406Y-31310D01*
X45713Y-31003D01*
X46350Y-31003D01*
X46408Y-30992D01*
X46458Y-30958D01*
X48863Y-28553D01*
X49625Y-28553D01*
X49684Y-28542D01*
X49734Y-28508D01*
X49740Y-28502D01*
X49744Y-28505D01*
X49742Y-28504D01*
X49779Y-28504D01*
X49942Y-28341D01*
X49937Y-28335D01*
X49957Y-28315D01*
X49963Y-28320D01*
X49968Y-28315D01*
X49988Y-28335D01*
X49983Y-28341D01*
X49988Y-28346D01*
X49968Y-28366D01*
X49963Y-28361D01*
X49799Y-28524D01*
X49799Y-28561D01*
X49798Y-28559D01*
X49801Y-28563D01*
X49651Y-28713D01*
X49635Y-28697D01*
X49547Y-28661D01*
X49452Y-28661D01*
X49364Y-28697D01*
X49316Y-28746D01*
X49150Y-28746D01*
X49091Y-28757D01*
X49041Y-28791D01*
X46891Y-30941D01*
X46857Y-30991D01*
X46846Y-31050D01*
X46846Y-31078D01*
X46746Y-31119D01*
X46620Y-31245D01*
X46551Y-31410D01*
X46551Y-31588D01*
X46619Y-31753D01*
X46745Y-31879D01*
X46910Y-31948D01*
X47088Y-31948D01*
X47253Y-31880D01*
X47379Y-31754D01*
X47448Y-31589D01*
X47448Y-31411D01*
X47380Y-31246D01*
X47254Y-31120D01*
X47178Y-31088D01*
X49213Y-29053D01*
X49316Y-29053D01*
X49364Y-29102D01*
X49452Y-29138D01*
X49504Y-29138D01*
X49315Y-29327D01*
X49285Y-29297D01*
X49197Y-29261D01*
X49102Y-29261D01*
X49014Y-29297D01*
X48947Y-29364D01*
X48911Y-29452D01*
X48911Y-29547D01*
X48947Y-29635D01*
X48977Y-29665D01*
X47891Y-30752D01*
X47857Y-30801D01*
X47846Y-30860D01*
X47846Y-31078D01*
X47746Y-31119D01*
X47620Y-31245D01*
X47551Y-31410D01*
X47551Y-31588D01*
X47619Y-31753D01*
X47745Y-31879D01*
X47910Y-31948D01*
X48088Y-31948D01*
X48253Y-31880D01*
X48379Y-31754D01*
X48448Y-31589D01*
X48448Y-31411D01*
X48380Y-31246D01*
X48254Y-31120D01*
X48153Y-31078D01*
X48153Y-30924D01*
X48846Y-30231D01*
X48846Y-31078D01*
X48746Y-31119D01*
X48620Y-31245D01*
X48551Y-31410D01*
X48551Y-31588D01*
X48619Y-31753D01*
X48745Y-31879D01*
X48910Y-31948D01*
X49088Y-31948D01*
X49253Y-31880D01*
X49379Y-31754D01*
X49448Y-31589D01*
X49448Y-31411D01*
X49380Y-31246D01*
X49254Y-31120D01*
X49153Y-31078D01*
X49153Y-30292D01*
X49355Y-30292D01*
X49414Y-30352D01*
X49502Y-30388D01*
X49597Y-30388D01*
X49685Y-30352D01*
X49752Y-30285D01*
X49788Y-30197D01*
X49788Y-30102D01*
X49752Y-30014D01*
X49685Y-29947D01*
X49597Y-29911D01*
X49502Y-29911D01*
X49414Y-29947D01*
X49376Y-29985D01*
X49371Y-29985D01*
X49846Y-29510D01*
X49846Y-31078D01*
X49746Y-31119D01*
X49620Y-31245D01*
X49551Y-31410D01*
X49551Y-31588D01*
X49619Y-31753D01*
X49745Y-31879D01*
X49910Y-31948D01*
X50088Y-31948D01*
X50253Y-31880D01*
X50379Y-31754D01*
X50448Y-31589D01*
X50448Y-31411D01*
X50380Y-31246D01*
X50254Y-31120D01*
X50153Y-31078D01*
X50153Y-29481D01*
X50246Y-29388D01*
X50246Y-30150D01*
X50246Y-30900D01*
X50257Y-30958D01*
X50291Y-31008D01*
X50593Y-31310D01*
X50551Y-31410D01*
X50551Y-31588D01*
X50619Y-31753D01*
X50745Y-31879D01*
X50910Y-31948D01*
X51088Y-31948D01*
X51253Y-31880D01*
X51379Y-31754D01*
X51448Y-31589D01*
X51448Y-31411D01*
X51380Y-31246D01*
X51254Y-31120D01*
X51089Y-31051D01*
X50911Y-31051D01*
X50810Y-31093D01*
X50553Y-30836D01*
X50553Y-30303D01*
X50716Y-30303D01*
X50764Y-30352D01*
X50852Y-30388D01*
X50947Y-30388D01*
X51035Y-30352D01*
X51102Y-30285D01*
X51138Y-30197D01*
X51138Y-30102D01*
X51102Y-30014D01*
X51035Y-29947D01*
X50947Y-29911D01*
X50884Y-29911D01*
X50884Y-29319D01*
X50884Y-29283D01*
X50798Y-29196D01*
X50634Y-29359D01*
X50634Y-29396D01*
X50633Y-29395D01*
X50662Y-29424D01*
X50701Y-29440D01*
X50742Y-29439D01*
X50780Y-29424D01*
X50884Y-29319D01*
X50884Y-29911D01*
X50852Y-29911D01*
X50764Y-29947D01*
X50716Y-29996D01*
X50553Y-29996D01*
X50553Y-29359D01*
X50576Y-29337D01*
X50579Y-29340D01*
X50577Y-29339D01*
X50614Y-29339D01*
X50777Y-29176D01*
X50772Y-29170D01*
X50792Y-29150D01*
X50798Y-29155D01*
X50803Y-29150D01*
X50824Y-29170D01*
X50818Y-29176D01*
X50905Y-29262D01*
X50941Y-29262D01*
X50999Y-29204D01*
X51219Y-29424D01*
X51241Y-29433D01*
X52846Y-31038D01*
X52846Y-31078D01*
X52746Y-31119D01*
X52620Y-31245D01*
X52551Y-31410D01*
X52551Y-31588D01*
X52619Y-31753D01*
X52745Y-31879D01*
X52910Y-31948D01*
X53088Y-31948D01*
X53253Y-31880D01*
X53379Y-31754D01*
X53448Y-31589D01*
X53448Y-31411D01*
X53413Y-31326D01*
X53551Y-31465D01*
X53551Y-31588D01*
X53619Y-31753D01*
X53745Y-31879D01*
X53910Y-31948D01*
X54088Y-31948D01*
X54253Y-31880D01*
X54379Y-31754D01*
X54448Y-31589D01*
X54448Y-31411D01*
X54380Y-31246D01*
X54254Y-31120D01*
X54089Y-31051D01*
X53911Y-31051D01*
X53746Y-31119D01*
X53693Y-31172D01*
X53425Y-30903D01*
X54186Y-30903D01*
X54593Y-31310D01*
X54551Y-31410D01*
X54551Y-31588D01*
X54619Y-31753D01*
X54745Y-31879D01*
X54910Y-31948D01*
X55088Y-31948D01*
X55253Y-31880D01*
X55379Y-31754D01*
X55448Y-31589D01*
X55448Y-31411D01*
X55380Y-31246D01*
X55254Y-31120D01*
X55089Y-31051D01*
X54911Y-31051D01*
X54810Y-31093D01*
X54421Y-30703D01*
X54986Y-30703D01*
X55593Y-31310D01*
X55551Y-31410D01*
X55551Y-31588D01*
X55619Y-31753D01*
X55745Y-31879D01*
X55910Y-31948D01*
X56088Y-31948D01*
X56253Y-31880D01*
X56379Y-31754D01*
X56448Y-31589D01*
X56448Y-31411D01*
X56380Y-31246D01*
X56254Y-31120D01*
X56089Y-31051D01*
X55911Y-31051D01*
X55810Y-31093D01*
X55221Y-30503D01*
X55786Y-30503D01*
X56593Y-31310D01*
X56551Y-31410D01*
X56551Y-31588D01*
X56619Y-31753D01*
X56745Y-31879D01*
X56910Y-31948D01*
X57088Y-31948D01*
X57253Y-31880D01*
X57379Y-31754D01*
X57448Y-31589D01*
X57448Y-31411D01*
X57448Y-31867D01*
X57416Y-31915D01*
X57362Y-31951D01*
X57286Y-31966D01*
X52448Y-31966D01*
X52448Y-31414D01*
X52381Y-31249D01*
X52377Y-31243D01*
X52314Y-31205D01*
X52294Y-31225D01*
X52294Y-31185D01*
X52256Y-31122D01*
X52092Y-31052D01*
X51914Y-31051D01*
X51749Y-31118D01*
X51743Y-31122D01*
X51705Y-31185D01*
X52000Y-31479D01*
X52294Y-31185D01*
X52294Y-31225D01*
X52020Y-31500D01*
X52314Y-31794D01*
X52377Y-31756D01*
X52447Y-31592D01*
X52448Y-31414D01*
X52448Y-31966D01*
X52294Y-31966D01*
X52294Y-31814D01*
X52000Y-31520D01*
X51979Y-31540D01*
X51979Y-31500D01*
X51685Y-31205D01*
X51622Y-31243D01*
X51552Y-31407D01*
X51551Y-31585D01*
X51618Y-31750D01*
X51622Y-31756D01*
X51685Y-31794D01*
X51979Y-31500D01*
X51979Y-31540D01*
X51705Y-31814D01*
X51743Y-31877D01*
X51907Y-31947D01*
X52085Y-31948D01*
X52250Y-31881D01*
X52256Y-31877D01*
X52294Y-31814D01*
X52294Y-31966D01*
X46448Y-31966D01*
X46448Y-31414D01*
X46381Y-31249D01*
X46377Y-31243D01*
X46314Y-31205D01*
X46294Y-31225D01*
X46294Y-31185D01*
X46256Y-31122D01*
X46092Y-31052D01*
X45914Y-31051D01*
X45749Y-31118D01*
X45743Y-31122D01*
X45705Y-31185D01*
X46000Y-31479D01*
X46294Y-31185D01*
X46294Y-31225D01*
X46020Y-31500D01*
X46314Y-31794D01*
X46377Y-31756D01*
X46447Y-31592D01*
X46448Y-31414D01*
X46448Y-31966D01*
X46294Y-31966D01*
X46294Y-31814D01*
X46000Y-31520D01*
X45979Y-31540D01*
X45979Y-31500D01*
X45685Y-31205D01*
X45622Y-31243D01*
X45552Y-31407D01*
X45551Y-31585D01*
X45618Y-31750D01*
X45622Y-31756D01*
X45685Y-31794D01*
X45979Y-31500D01*
X45979Y-31540D01*
X45705Y-31814D01*
X45743Y-31877D01*
X45907Y-31947D01*
X46085Y-31948D01*
X46250Y-31881D01*
X46256Y-31877D01*
X46294Y-31814D01*
X46294Y-31966D01*
X44448Y-31966D01*
X44448Y-24414D01*
X44381Y-24249D01*
X44377Y-24243D01*
X44314Y-24205D01*
X44294Y-24225D01*
X44294Y-24185D01*
X44256Y-24122D01*
X44092Y-24052D01*
X43914Y-24051D01*
X43749Y-24118D01*
X43743Y-24122D01*
X43705Y-24185D01*
X44000Y-24479D01*
X44294Y-24185D01*
X44294Y-24225D01*
X44020Y-24500D01*
X44314Y-24794D01*
X44377Y-24756D01*
X44447Y-24592D01*
X44448Y-24414D01*
X44448Y-31966D01*
X44448Y-31966D01*
X44448Y-31411D01*
X44380Y-31246D01*
X44294Y-31160D01*
X44294Y-24814D01*
X44000Y-24520D01*
X43979Y-24540D01*
X43979Y-24500D01*
X43685Y-24205D01*
X43622Y-24243D01*
X43552Y-24407D01*
X43551Y-24585D01*
X43618Y-24750D01*
X43622Y-24756D01*
X43685Y-24794D01*
X43979Y-24500D01*
X43979Y-24540D01*
X43705Y-24814D01*
X43743Y-24877D01*
X43907Y-24947D01*
X44085Y-24948D01*
X44250Y-24881D01*
X44256Y-24877D01*
X44294Y-24814D01*
X44294Y-31160D01*
X44254Y-31120D01*
X44089Y-31051D01*
X43911Y-31051D01*
X43746Y-31119D01*
X43620Y-31245D01*
X43551Y-31410D01*
X43551Y-31588D01*
X43619Y-31753D01*
X43745Y-31879D01*
X43910Y-31948D01*
X44088Y-31948D01*
X44253Y-31880D01*
X44379Y-31754D01*
X44448Y-31589D01*
X44448Y-31411D01*
X44448Y-31966D01*
X43712Y-31966D01*
X43637Y-31951D01*
X43584Y-31916D01*
X43548Y-31862D01*
X43533Y-31786D01*
X43533Y-24213D01*
X43548Y-24137D01*
X43584Y-24083D01*
X43637Y-24048D01*
X43712Y-24033D01*
X57286Y-24033D01*
X57362Y-24048D01*
X57416Y-24084D01*
X57451Y-24137D01*
X57466Y-24212D01*
X57466Y-31787D01*
M02*
