G04 (created by PCBNEW (2013-03-04 BZR 3984)-stable) date 10/15/2013 1:32:41 PM*
%MOIN*%
G04 Gerber Fmt 3.4, Leading zero omitted, Abs format*
%FSLAX34Y34*%
G01*
G70*
G90*
G04 APERTURE LIST*
%ADD10C,0*%
%ADD11C,0.005*%
%ADD12C,0.0026*%
%ADD13C,0.004*%
%ADD14C,0.00590551*%
%ADD15C,0.0045*%
G04 APERTURE END LIST*
G54D10*
G54D11*
X53150Y-29350D02*
X52250Y-29350D01*
X52250Y-29350D02*
X52250Y-29850D01*
X52250Y-29850D02*
X53150Y-29850D01*
X53150Y-29850D02*
X53150Y-29350D01*
X53150Y-26150D02*
X52250Y-26150D01*
X52250Y-26150D02*
X52250Y-26650D01*
X52250Y-26650D02*
X53150Y-26650D01*
X53150Y-26650D02*
X53150Y-26150D01*
G54D12*
X50223Y-25723D02*
X50223Y-26077D01*
X50223Y-26077D02*
X50066Y-26077D01*
X50066Y-25723D02*
X50066Y-26077D01*
X50223Y-25723D02*
X50066Y-25723D01*
X50734Y-25723D02*
X50734Y-26077D01*
X50734Y-26077D02*
X50577Y-26077D01*
X50577Y-25723D02*
X50577Y-26077D01*
X50734Y-25723D02*
X50577Y-25723D01*
X50400Y-25723D02*
X50400Y-25782D01*
X50400Y-25782D02*
X50282Y-25782D01*
X50282Y-25723D02*
X50282Y-25782D01*
X50400Y-25723D02*
X50282Y-25723D01*
X50400Y-26018D02*
X50400Y-26077D01*
X50400Y-26077D02*
X50282Y-26077D01*
X50282Y-26018D02*
X50282Y-26077D01*
X50400Y-26018D02*
X50282Y-26018D01*
X50400Y-25841D02*
X50400Y-25959D01*
X50400Y-25959D02*
X50282Y-25959D01*
X50282Y-25841D02*
X50282Y-25959D01*
X50400Y-25841D02*
X50282Y-25841D01*
G54D13*
X50223Y-25743D02*
X50577Y-25743D01*
X50223Y-26057D02*
X50577Y-26057D01*
G54D11*
X46500Y-27250D02*
X47400Y-27250D01*
X47400Y-27250D02*
X47400Y-26750D01*
X47400Y-26750D02*
X46500Y-26750D01*
X46500Y-26750D02*
X46500Y-27250D01*
X46900Y-28050D02*
X47800Y-28050D01*
X47800Y-28050D02*
X47800Y-27550D01*
X47800Y-27550D02*
X46900Y-27550D01*
X46900Y-27550D02*
X46900Y-28050D01*
X46100Y-26450D02*
X47000Y-26450D01*
X47000Y-26450D02*
X47000Y-25950D01*
X47000Y-25950D02*
X46100Y-25950D01*
X46100Y-25950D02*
X46100Y-26450D01*
X49550Y-25650D02*
X48650Y-25650D01*
X48650Y-25650D02*
X48650Y-26150D01*
X48650Y-26150D02*
X49550Y-26150D01*
X49550Y-26150D02*
X49550Y-25650D01*
X55450Y-25250D02*
X54550Y-25250D01*
X54550Y-25250D02*
X54550Y-25750D01*
X54550Y-25750D02*
X55450Y-25750D01*
X55450Y-25750D02*
X55450Y-25250D01*
X45600Y-30250D02*
X46500Y-30250D01*
X46500Y-30250D02*
X46500Y-29750D01*
X46500Y-29750D02*
X45600Y-29750D01*
X45600Y-29750D02*
X45600Y-30250D01*
X53950Y-29900D02*
X53950Y-30800D01*
X53950Y-30800D02*
X54450Y-30800D01*
X54450Y-30800D02*
X54450Y-29900D01*
X54450Y-29900D02*
X53950Y-29900D01*
G54D14*
X53118Y-26265D02*
X52856Y-26659D01*
X52856Y-26265D02*
X53118Y-26659D01*
X52500Y-26659D02*
X52725Y-26659D01*
X52612Y-26659D02*
X52612Y-26265D01*
X52650Y-26321D01*
X52687Y-26359D01*
X52725Y-26378D01*
X46131Y-28365D02*
X46131Y-28646D01*
X46149Y-28703D01*
X46187Y-28740D01*
X46243Y-28759D01*
X46281Y-28759D01*
X45737Y-28759D02*
X45962Y-28759D01*
X45850Y-28759D02*
X45850Y-28365D01*
X45887Y-28421D01*
X45925Y-28459D01*
X45962Y-28478D01*
G54D15*
X53130Y-29161D02*
X53138Y-29171D01*
X53164Y-29180D01*
X53181Y-29180D01*
X53207Y-29171D01*
X53224Y-29152D01*
X53232Y-29133D01*
X53241Y-29095D01*
X53241Y-29066D01*
X53232Y-29028D01*
X53224Y-29009D01*
X53207Y-28990D01*
X53181Y-28980D01*
X53164Y-28980D01*
X53138Y-28990D01*
X53130Y-29000D01*
X52958Y-29180D02*
X53061Y-29180D01*
X53010Y-29180D02*
X53010Y-28980D01*
X53027Y-29009D01*
X53044Y-29028D01*
X53061Y-29038D01*
X53130Y-26961D02*
X53138Y-26971D01*
X53164Y-26980D01*
X53181Y-26980D01*
X53207Y-26971D01*
X53224Y-26952D01*
X53232Y-26933D01*
X53241Y-26895D01*
X53241Y-26866D01*
X53232Y-26828D01*
X53224Y-26809D01*
X53207Y-26790D01*
X53181Y-26780D01*
X53164Y-26780D01*
X53138Y-26790D01*
X53130Y-26800D01*
X53061Y-26800D02*
X53052Y-26790D01*
X53035Y-26780D01*
X52992Y-26780D01*
X52975Y-26790D01*
X52967Y-26800D01*
X52958Y-26819D01*
X52958Y-26838D01*
X52967Y-26866D01*
X53070Y-26980D01*
X52958Y-26980D01*
G54D11*
X50947Y-25580D02*
X50947Y-25380D01*
X50900Y-25380D01*
X50871Y-25390D01*
X50852Y-25409D01*
X50842Y-25428D01*
X50833Y-25466D01*
X50833Y-25495D01*
X50842Y-25533D01*
X50852Y-25552D01*
X50871Y-25571D01*
X50900Y-25580D01*
X50947Y-25580D01*
X50642Y-25580D02*
X50757Y-25580D01*
X50700Y-25580D02*
X50700Y-25380D01*
X50719Y-25409D01*
X50738Y-25428D01*
X50757Y-25438D01*
G54D14*
X52529Y-25735D02*
X52529Y-25932D01*
X52542Y-25972D01*
X52569Y-25998D01*
X52608Y-26011D01*
X52634Y-26011D01*
X52398Y-26011D02*
X52398Y-25735D01*
X52293Y-25735D01*
X52267Y-25749D01*
X52254Y-25762D01*
X52240Y-25788D01*
X52240Y-25827D01*
X52254Y-25854D01*
X52267Y-25867D01*
X52293Y-25880D01*
X52398Y-25880D01*
X51978Y-26011D02*
X52135Y-26011D01*
X52057Y-26011D02*
X52057Y-25735D01*
X52083Y-25775D01*
X52109Y-25801D01*
X52135Y-25814D01*
G54D15*
X46580Y-27580D02*
X46640Y-27485D01*
X46682Y-27580D02*
X46682Y-27380D01*
X46614Y-27380D01*
X46597Y-27390D01*
X46588Y-27400D01*
X46580Y-27419D01*
X46580Y-27447D01*
X46588Y-27466D01*
X46597Y-27476D01*
X46614Y-27485D01*
X46682Y-27485D01*
X46408Y-27580D02*
X46511Y-27580D01*
X46460Y-27580D02*
X46460Y-27380D01*
X46477Y-27409D01*
X46494Y-27428D01*
X46511Y-27438D01*
X46980Y-28380D02*
X47040Y-28285D01*
X47082Y-28380D02*
X47082Y-28180D01*
X47014Y-28180D01*
X46997Y-28190D01*
X46988Y-28200D01*
X46980Y-28219D01*
X46980Y-28247D01*
X46988Y-28266D01*
X46997Y-28276D01*
X47014Y-28285D01*
X47082Y-28285D01*
X46911Y-28200D02*
X46902Y-28190D01*
X46885Y-28180D01*
X46842Y-28180D01*
X46825Y-28190D01*
X46817Y-28200D01*
X46808Y-28219D01*
X46808Y-28238D01*
X46817Y-28266D01*
X46920Y-28380D01*
X46808Y-28380D01*
X46180Y-26780D02*
X46240Y-26685D01*
X46282Y-26780D02*
X46282Y-26580D01*
X46214Y-26580D01*
X46197Y-26590D01*
X46188Y-26600D01*
X46180Y-26619D01*
X46180Y-26647D01*
X46188Y-26666D01*
X46197Y-26676D01*
X46214Y-26685D01*
X46282Y-26685D01*
X46120Y-26580D02*
X46008Y-26580D01*
X46068Y-26657D01*
X46042Y-26657D01*
X46025Y-26666D01*
X46017Y-26676D01*
X46008Y-26695D01*
X46008Y-26742D01*
X46017Y-26761D01*
X46025Y-26771D01*
X46042Y-26780D01*
X46094Y-26780D01*
X46111Y-26771D01*
X46120Y-26761D01*
X49530Y-25480D02*
X49590Y-25385D01*
X49632Y-25480D02*
X49632Y-25280D01*
X49564Y-25280D01*
X49547Y-25290D01*
X49538Y-25300D01*
X49530Y-25319D01*
X49530Y-25347D01*
X49538Y-25366D01*
X49547Y-25376D01*
X49564Y-25385D01*
X49632Y-25385D01*
X49375Y-25347D02*
X49375Y-25480D01*
X49418Y-25271D02*
X49461Y-25414D01*
X49350Y-25414D01*
G54D14*
X55672Y-29698D02*
X55633Y-29711D01*
X55567Y-29711D01*
X55541Y-29698D01*
X55528Y-29685D01*
X55515Y-29659D01*
X55515Y-29632D01*
X55528Y-29606D01*
X55541Y-29593D01*
X55567Y-29580D01*
X55620Y-29567D01*
X55646Y-29554D01*
X55659Y-29540D01*
X55672Y-29514D01*
X55672Y-29488D01*
X55659Y-29462D01*
X55646Y-29449D01*
X55620Y-29435D01*
X55554Y-29435D01*
X55515Y-29449D01*
X55423Y-29435D02*
X55357Y-29711D01*
X55305Y-29514D01*
X55252Y-29711D01*
X55187Y-29435D01*
X55082Y-29711D02*
X55082Y-29435D01*
X55016Y-29435D01*
X54977Y-29449D01*
X54950Y-29475D01*
X54937Y-29501D01*
X54924Y-29554D01*
X54924Y-29593D01*
X54937Y-29645D01*
X54950Y-29672D01*
X54977Y-29698D01*
X55016Y-29711D01*
X55082Y-29711D01*
X54872Y-29737D02*
X54662Y-29737D01*
X54635Y-29435D02*
X54544Y-29711D01*
X54452Y-29435D01*
X54202Y-29685D02*
X54216Y-29698D01*
X54255Y-29711D01*
X54281Y-29711D01*
X54320Y-29698D01*
X54347Y-29672D01*
X54360Y-29645D01*
X54373Y-29593D01*
X54373Y-29554D01*
X54360Y-29501D01*
X54347Y-29475D01*
X54320Y-29449D01*
X54281Y-29435D01*
X54255Y-29435D01*
X54216Y-29449D01*
X54202Y-29462D01*
X53927Y-29685D02*
X53940Y-29698D01*
X53979Y-29711D01*
X54006Y-29711D01*
X54045Y-29698D01*
X54071Y-29672D01*
X54084Y-29645D01*
X54097Y-29593D01*
X54097Y-29554D01*
X54084Y-29501D01*
X54071Y-29475D01*
X54045Y-29449D01*
X54006Y-29435D01*
X53979Y-29435D01*
X53940Y-29449D01*
X53927Y-29462D01*
X55283Y-28098D02*
X55244Y-28111D01*
X55179Y-28111D01*
X55152Y-28098D01*
X55139Y-28085D01*
X55126Y-28059D01*
X55126Y-28032D01*
X55139Y-28006D01*
X55152Y-27993D01*
X55179Y-27980D01*
X55231Y-27967D01*
X55257Y-27954D01*
X55270Y-27940D01*
X55283Y-27914D01*
X55283Y-27888D01*
X55270Y-27862D01*
X55257Y-27849D01*
X55231Y-27835D01*
X55165Y-27835D01*
X55126Y-27849D01*
X55034Y-27835D02*
X54969Y-28111D01*
X54916Y-27914D01*
X54864Y-28111D01*
X54798Y-27835D01*
X54693Y-28111D02*
X54693Y-27835D01*
X54627Y-27835D01*
X54588Y-27849D01*
X54562Y-27875D01*
X54549Y-27901D01*
X54535Y-27954D01*
X54535Y-27993D01*
X54549Y-28045D01*
X54562Y-28072D01*
X54588Y-28098D01*
X54627Y-28111D01*
X54693Y-28111D01*
X54417Y-28111D02*
X54417Y-27835D01*
X54234Y-27835D02*
X54181Y-27835D01*
X54155Y-27849D01*
X54129Y-27875D01*
X54116Y-27927D01*
X54116Y-28019D01*
X54129Y-28072D01*
X54155Y-28098D01*
X54181Y-28111D01*
X54234Y-28111D01*
X54260Y-28098D01*
X54286Y-28072D01*
X54299Y-28019D01*
X54299Y-27927D01*
X54286Y-27875D01*
X54260Y-27849D01*
X54234Y-27835D01*
X55223Y-26498D02*
X55183Y-26511D01*
X55118Y-26511D01*
X55092Y-26498D01*
X55079Y-26485D01*
X55065Y-26459D01*
X55065Y-26432D01*
X55079Y-26406D01*
X55092Y-26393D01*
X55118Y-26380D01*
X55170Y-26367D01*
X55197Y-26354D01*
X55210Y-26340D01*
X55223Y-26314D01*
X55223Y-26288D01*
X55210Y-26262D01*
X55197Y-26249D01*
X55170Y-26235D01*
X55105Y-26235D01*
X55065Y-26249D01*
X54974Y-26235D02*
X54908Y-26511D01*
X54855Y-26314D01*
X54803Y-26511D01*
X54737Y-26235D01*
X54475Y-26485D02*
X54488Y-26498D01*
X54527Y-26511D01*
X54554Y-26511D01*
X54593Y-26498D01*
X54619Y-26472D01*
X54632Y-26445D01*
X54645Y-26393D01*
X54645Y-26354D01*
X54632Y-26301D01*
X54619Y-26275D01*
X54593Y-26249D01*
X54554Y-26235D01*
X54527Y-26235D01*
X54488Y-26249D01*
X54475Y-26262D01*
X54225Y-26511D02*
X54357Y-26511D01*
X54357Y-26235D01*
X54134Y-26511D02*
X54134Y-26235D01*
X53976Y-26511D02*
X54094Y-26354D01*
X53976Y-26235D02*
X54134Y-26393D01*
X55502Y-27311D02*
X55502Y-27035D01*
X55344Y-27311D01*
X55344Y-27035D01*
X55055Y-27311D02*
X55147Y-27180D01*
X55213Y-27311D02*
X55213Y-27035D01*
X55108Y-27035D01*
X55082Y-27049D01*
X55069Y-27062D01*
X55055Y-27088D01*
X55055Y-27127D01*
X55069Y-27154D01*
X55082Y-27167D01*
X55108Y-27180D01*
X55213Y-27180D01*
X54937Y-27167D02*
X54845Y-27167D01*
X54806Y-27311D02*
X54937Y-27311D01*
X54937Y-27035D01*
X54806Y-27035D01*
X54701Y-27298D02*
X54662Y-27311D01*
X54596Y-27311D01*
X54570Y-27298D01*
X54557Y-27285D01*
X54544Y-27259D01*
X54544Y-27232D01*
X54557Y-27206D01*
X54570Y-27193D01*
X54596Y-27180D01*
X54649Y-27167D01*
X54675Y-27154D01*
X54688Y-27140D01*
X54701Y-27114D01*
X54701Y-27088D01*
X54688Y-27062D01*
X54675Y-27049D01*
X54649Y-27035D01*
X54583Y-27035D01*
X54544Y-27049D01*
X54425Y-27167D02*
X54334Y-27167D01*
X54294Y-27311D02*
X54425Y-27311D01*
X54425Y-27035D01*
X54294Y-27035D01*
X54216Y-27035D02*
X54058Y-27035D01*
X54137Y-27311D02*
X54137Y-27035D01*
X55798Y-28898D02*
X55759Y-28911D01*
X55693Y-28911D01*
X55667Y-28898D01*
X55654Y-28885D01*
X55641Y-28859D01*
X55641Y-28832D01*
X55654Y-28806D01*
X55667Y-28793D01*
X55693Y-28780D01*
X55746Y-28767D01*
X55772Y-28754D01*
X55785Y-28740D01*
X55798Y-28714D01*
X55798Y-28688D01*
X55785Y-28662D01*
X55772Y-28649D01*
X55746Y-28635D01*
X55680Y-28635D01*
X55641Y-28649D01*
X55549Y-28635D02*
X55483Y-28911D01*
X55431Y-28714D01*
X55379Y-28911D01*
X55313Y-28635D01*
X55208Y-28911D02*
X55208Y-28635D01*
X55142Y-28635D01*
X55103Y-28649D01*
X55077Y-28675D01*
X55064Y-28701D01*
X55050Y-28754D01*
X55050Y-28793D01*
X55064Y-28845D01*
X55077Y-28872D01*
X55103Y-28898D01*
X55142Y-28911D01*
X55208Y-28911D01*
X54998Y-28937D02*
X54788Y-28937D01*
X54578Y-28649D02*
X54604Y-28635D01*
X54644Y-28635D01*
X54683Y-28649D01*
X54709Y-28675D01*
X54722Y-28701D01*
X54735Y-28754D01*
X54735Y-28793D01*
X54722Y-28845D01*
X54709Y-28872D01*
X54683Y-28898D01*
X54644Y-28911D01*
X54617Y-28911D01*
X54578Y-28898D01*
X54565Y-28885D01*
X54565Y-28793D01*
X54617Y-28793D01*
X54447Y-28911D02*
X54447Y-28635D01*
X54289Y-28911D01*
X54289Y-28635D01*
X54158Y-28911D02*
X54158Y-28635D01*
X54092Y-28635D01*
X54053Y-28649D01*
X54027Y-28675D01*
X54014Y-28701D01*
X54001Y-28754D01*
X54001Y-28793D01*
X54014Y-28845D01*
X54027Y-28872D01*
X54053Y-28898D01*
X54092Y-28911D01*
X54158Y-28911D01*
G54D15*
X55380Y-25111D02*
X55388Y-25121D01*
X55414Y-25130D01*
X55431Y-25130D01*
X55457Y-25121D01*
X55474Y-25102D01*
X55482Y-25083D01*
X55491Y-25045D01*
X55491Y-25016D01*
X55482Y-24978D01*
X55474Y-24959D01*
X55457Y-24940D01*
X55431Y-24930D01*
X55414Y-24930D01*
X55388Y-24940D01*
X55380Y-24950D01*
X55217Y-24930D02*
X55302Y-24930D01*
X55311Y-25026D01*
X55302Y-25016D01*
X55285Y-25007D01*
X55242Y-25007D01*
X55225Y-25016D01*
X55217Y-25026D01*
X55208Y-25045D01*
X55208Y-25092D01*
X55217Y-25111D01*
X55225Y-25121D01*
X55242Y-25130D01*
X55285Y-25130D01*
X55302Y-25121D01*
X55311Y-25111D01*
X45680Y-30511D02*
X45688Y-30521D01*
X45714Y-30530D01*
X45731Y-30530D01*
X45757Y-30521D01*
X45774Y-30502D01*
X45782Y-30483D01*
X45791Y-30445D01*
X45791Y-30416D01*
X45782Y-30378D01*
X45774Y-30359D01*
X45757Y-30340D01*
X45731Y-30330D01*
X45714Y-30330D01*
X45688Y-30340D01*
X45680Y-30350D01*
X45620Y-30330D02*
X45508Y-30330D01*
X45568Y-30407D01*
X45542Y-30407D01*
X45525Y-30416D01*
X45517Y-30426D01*
X45508Y-30445D01*
X45508Y-30492D01*
X45517Y-30511D01*
X45525Y-30521D01*
X45542Y-30530D01*
X45594Y-30530D01*
X45611Y-30521D01*
X45620Y-30511D01*
X53811Y-29920D02*
X53821Y-29911D01*
X53830Y-29885D01*
X53830Y-29868D01*
X53821Y-29842D01*
X53802Y-29825D01*
X53783Y-29817D01*
X53745Y-29808D01*
X53716Y-29808D01*
X53678Y-29817D01*
X53659Y-29825D01*
X53640Y-29842D01*
X53630Y-29868D01*
X53630Y-29885D01*
X53640Y-29911D01*
X53650Y-29920D01*
X53697Y-30074D02*
X53830Y-30074D01*
X53621Y-30031D02*
X53764Y-29988D01*
X53764Y-30100D01*
M02*
