G04 (created by PCBNEW (2013-03-04 BZR 3984)-stable) date 10/15/2013 1:32:41 PM*
%MOIN*%
G04 Gerber Fmt 3.4, Leading zero omitted, Abs format*
%FSLAX34Y34*%
G01*
G70*
G90*
G04 APERTURE LIST*
%ADD10C,0*%
%ADD11C,0.0688976*%
G04 APERTURE END LIST*
G54D10*
G54D11*
X54000Y-24500D03*
X53000Y-31500D03*
X54000Y-31500D03*
X55000Y-31500D03*
X56000Y-31500D03*
X57000Y-31500D03*
X57000Y-30500D03*
X57000Y-29500D03*
X57000Y-28500D03*
X57000Y-27500D03*
X57000Y-26500D03*
X57000Y-25500D03*
X57000Y-24500D03*
X56000Y-24500D03*
X55000Y-24500D03*
X52000Y-31500D03*
X53000Y-24500D03*
X52000Y-24500D03*
X51000Y-24500D03*
X50000Y-24500D03*
X49000Y-24500D03*
X48000Y-24500D03*
X47000Y-24500D03*
X46000Y-24500D03*
X45000Y-24500D03*
X44000Y-31500D03*
X44000Y-24500D03*
X51000Y-31500D03*
X50000Y-31500D03*
X49000Y-31500D03*
X48000Y-31500D03*
X47000Y-31500D03*
G54D10*
G36*
X49747Y-28361D02*
X49663Y-28278D01*
X49900Y-28041D01*
X49983Y-28125D01*
X49747Y-28361D01*
X49747Y-28361D01*
G37*
G36*
X49886Y-28501D02*
X49802Y-28417D01*
X50039Y-28180D01*
X50123Y-28264D01*
X49886Y-28501D01*
X49886Y-28501D01*
G37*
G36*
X50025Y-28640D02*
X49942Y-28556D01*
X50178Y-28320D01*
X50262Y-28403D01*
X50025Y-28640D01*
X50025Y-28640D01*
G37*
G36*
X50164Y-28779D02*
X50081Y-28695D01*
X50317Y-28459D01*
X50401Y-28542D01*
X50164Y-28779D01*
X50164Y-28779D01*
G37*
G36*
X50304Y-28918D02*
X50220Y-28835D01*
X50457Y-28598D01*
X50540Y-28682D01*
X50304Y-28918D01*
X50304Y-28918D01*
G37*
G36*
X50443Y-29057D02*
X50359Y-28974D01*
X50596Y-28737D01*
X50679Y-28821D01*
X50443Y-29057D01*
X50443Y-29057D01*
G37*
G36*
X50582Y-29197D02*
X50498Y-29113D01*
X50735Y-28876D01*
X50819Y-28960D01*
X50582Y-29197D01*
X50582Y-29197D01*
G37*
G36*
X50721Y-29336D02*
X50638Y-29252D01*
X50874Y-29016D01*
X50958Y-29099D01*
X50721Y-29336D01*
X50721Y-29336D01*
G37*
G36*
X52099Y-27958D02*
X52016Y-27874D01*
X52252Y-27638D01*
X52336Y-27721D01*
X52099Y-27958D01*
X52099Y-27958D01*
G37*
G36*
X51960Y-27819D02*
X51876Y-27735D01*
X52113Y-27498D01*
X52197Y-27582D01*
X51960Y-27819D01*
X51960Y-27819D01*
G37*
G36*
X51821Y-27679D02*
X51737Y-27596D01*
X51974Y-27359D01*
X52057Y-27443D01*
X51821Y-27679D01*
X51821Y-27679D01*
G37*
G36*
X51682Y-27540D02*
X51598Y-27457D01*
X51835Y-27220D01*
X51918Y-27304D01*
X51682Y-27540D01*
X51682Y-27540D01*
G37*
G36*
X51542Y-27401D02*
X51459Y-27317D01*
X51695Y-27081D01*
X51779Y-27164D01*
X51542Y-27401D01*
X51542Y-27401D01*
G37*
G36*
X51403Y-27262D02*
X51320Y-27178D01*
X51556Y-26942D01*
X51640Y-27025D01*
X51403Y-27262D01*
X51403Y-27262D01*
G37*
G36*
X51264Y-27123D02*
X51180Y-27039D01*
X51417Y-26802D01*
X51501Y-26886D01*
X51264Y-27123D01*
X51264Y-27123D01*
G37*
G36*
X51125Y-26983D02*
X51041Y-26900D01*
X51278Y-26663D01*
X51361Y-26747D01*
X51125Y-26983D01*
X51125Y-26983D01*
G37*
G36*
X51278Y-29336D02*
X51041Y-29099D01*
X51125Y-29016D01*
X51361Y-29252D01*
X51278Y-29336D01*
X51278Y-29336D01*
G37*
G36*
X51417Y-29197D02*
X51180Y-28960D01*
X51264Y-28876D01*
X51501Y-29113D01*
X51417Y-29197D01*
X51417Y-29197D01*
G37*
G36*
X51556Y-29057D02*
X51320Y-28821D01*
X51403Y-28737D01*
X51640Y-28974D01*
X51556Y-29057D01*
X51556Y-29057D01*
G37*
G36*
X51695Y-28918D02*
X51459Y-28682D01*
X51542Y-28598D01*
X51779Y-28835D01*
X51695Y-28918D01*
X51695Y-28918D01*
G37*
G36*
X51835Y-28779D02*
X51598Y-28542D01*
X51682Y-28459D01*
X51918Y-28695D01*
X51835Y-28779D01*
X51835Y-28779D01*
G37*
G36*
X51974Y-28640D02*
X51737Y-28403D01*
X51821Y-28320D01*
X52057Y-28556D01*
X51974Y-28640D01*
X51974Y-28640D01*
G37*
G36*
X52113Y-28501D02*
X51876Y-28264D01*
X51960Y-28180D01*
X52197Y-28417D01*
X52113Y-28501D01*
X52113Y-28501D01*
G37*
G36*
X52252Y-28361D02*
X52016Y-28125D01*
X52099Y-28041D01*
X52336Y-28278D01*
X52252Y-28361D01*
X52252Y-28361D01*
G37*
G36*
X50874Y-26983D02*
X50638Y-26747D01*
X50721Y-26663D01*
X50958Y-26900D01*
X50874Y-26983D01*
X50874Y-26983D01*
G37*
G36*
X50735Y-27123D02*
X50498Y-26886D01*
X50582Y-26802D01*
X50819Y-27039D01*
X50735Y-27123D01*
X50735Y-27123D01*
G37*
G36*
X50596Y-27262D02*
X50359Y-27025D01*
X50443Y-26942D01*
X50679Y-27178D01*
X50596Y-27262D01*
X50596Y-27262D01*
G37*
G36*
X50457Y-27401D02*
X50220Y-27164D01*
X50304Y-27081D01*
X50540Y-27317D01*
X50457Y-27401D01*
X50457Y-27401D01*
G37*
G36*
X50317Y-27540D02*
X50081Y-27304D01*
X50164Y-27220D01*
X50401Y-27457D01*
X50317Y-27540D01*
X50317Y-27540D01*
G37*
G36*
X50178Y-27679D02*
X49942Y-27443D01*
X50025Y-27359D01*
X50262Y-27596D01*
X50178Y-27679D01*
X50178Y-27679D01*
G37*
G36*
X50039Y-27819D02*
X49802Y-27582D01*
X49886Y-27498D01*
X50123Y-27735D01*
X50039Y-27819D01*
X50039Y-27819D01*
G37*
G36*
X49900Y-27958D02*
X49663Y-27721D01*
X49747Y-27638D01*
X49983Y-27874D01*
X49900Y-27958D01*
X49900Y-27958D01*
G37*
G36*
X51000Y-28946D02*
X50053Y-28000D01*
X51000Y-27053D01*
X51946Y-28000D01*
X51000Y-28946D01*
X51000Y-28946D01*
G37*
G54D11*
X45000Y-31500D03*
X46000Y-31500D03*
M02*
